<svg width="126" height="34" fill="none" xmlns="http://www.w3.org/2000/svg"><path d="M40.433 16.149c0-1.277.281-2.417.844-3.42a6.132 6.132 0 0 1 2.33-2.361c.992-.57 2.099-.855 3.322-.855 1.432 0 2.686.371 3.762 1.115 1.077.743 1.83 1.772 2.258 3.086h-2.955c-.294-.62-.71-1.085-1.248-1.395-.526-.31-1.138-.464-1.835-.464-.747 0-1.413.18-2 .539-.576.347-1.028.843-1.359 1.487-.318.644-.477 1.4-.477 2.268 0 .855.16 1.611.477 2.268.33.644.783 1.146 1.358 1.506.588.347 1.255.52 2 .52.698 0 1.31-.155 1.836-.465.538-.322.954-.793 1.248-1.412h2.955c-.429 1.326-1.181 2.36-2.258 3.104-1.064.731-2.318 1.097-3.762 1.097-1.223 0-2.33-.28-3.322-.837a6.307 6.307 0 0 1-2.33-2.36c-.563-1.004-.844-2.145-.844-3.421Zm14.049 1.32c0-1.041.202-1.965.606-2.77.416-.806.972-1.425 1.67-1.859a4.45 4.45 0 0 1 2.367-.65c.759 0 1.42.154 1.982.464.575.31 1.034.7 1.377 1.171v-1.468h2.587v10.298h-2.587V21.15c-.33.484-.79.887-1.377 1.209-.575.31-1.242.465-2 .465-.856 0-1.64-.224-2.35-.67-.697-.446-1.253-1.072-1.67-1.877-.403-.818-.605-1.754-.605-2.807Zm8.002.037c0-.632-.123-1.171-.367-1.617a2.53 2.53 0 0 0-.991-1.041 2.572 2.572 0 0 0-1.34-.372c-.477 0-.918.118-1.321.353a2.692 2.692 0 0 0-.991 1.041c-.245.446-.367.98-.367 1.599 0 .62.122 1.165.367 1.636.257.458.587.811.99 1.06.417.247.857.371 1.322.371.477 0 .924-.118 1.34-.353.416-.248.746-.595.99-1.041.245-.459.368-1.004.368-1.636Zm10.731-5.298c1.21 0 2.19.39 2.936 1.171.746.769 1.12 1.847 1.12 3.235v6.041H74.7v-5.688c0-.818-.202-1.444-.606-1.878-.403-.446-.954-.669-1.651-.669-.71 0-1.273.223-1.689.67-.403.433-.605 1.059-.605 1.877v5.688h-2.57V12.357h2.57v1.282a3.49 3.49 0 0 1 1.303-1.04 3.993 3.993 0 0 1 1.761-.391Zm5.838 5.261c0-1.041.202-1.965.605-2.77.416-.806.98-1.425 1.689-1.859a4.45 4.45 0 0 1 2.367-.65c.66 0 1.29.148 1.89.446.6.285 1.077.669 1.432 1.152V8.9h2.606v13.756h-2.606v-1.524a3.499 3.499 0 0 1-1.34 1.227c-.575.31-1.242.465-2 .465a4.33 4.33 0 0 1-2.35-.67c-.709-.446-1.272-1.072-1.688-1.877-.403-.818-.605-1.754-.605-2.807Zm8.001.037c0-.632-.122-1.171-.367-1.617a2.53 2.53 0 0 0-.99-1.041 2.572 2.572 0 0 0-1.34-.372c-.478 0-.918.118-1.322.353-.404.236-.734.583-.99 1.041-.246.446-.368.98-.368 1.599 0 .62.122 1.165.367 1.636.257.458.587.811.991 1.06.416.247.856.371 1.321.371a2.68 2.68 0 0 0 1.34-.353c.416-.248.746-.595.991-1.041.245-.459.367-1.004.367-1.636ZM94.72 8.9v13.755h-2.569V8.9h2.57Zm11.99 8.383c0 .372-.025.706-.074 1.004h-7.432c.061.743.318 1.326.77 1.747.453.422 1.01.632 1.671.632.954 0 1.633-.415 2.037-1.245h2.771a4.746 4.746 0 0 1-1.688 2.454c-.832.631-1.854.948-3.065.948-.979 0-1.86-.217-2.643-.651a4.76 4.76 0 0 1-1.817-1.878c-.428-.805-.642-1.735-.642-2.788 0-1.066.214-2.002.642-2.807a4.513 4.513 0 0 1 1.799-1.859c.77-.434 1.658-.65 2.661-.65.966 0 1.829.21 2.587.632a4.333 4.333 0 0 1 1.781 1.803c.428.768.642 1.654.642 2.658Zm-2.661-.744c-.012-.669-.251-1.202-.716-1.598-.465-.41-1.034-.614-1.707-.614-.636 0-1.174.198-1.615.595-.428.384-.69.923-.789 1.617h4.827Zm3.875.93c0-1.041.202-1.965.606-2.77.416-.806.973-1.425 1.67-1.859a4.452 4.452 0 0 1 2.367-.65c.759 0 1.42.154 1.982.464.575.31 1.034.7 1.377 1.171v-1.468h2.587v10.298h-2.587V21.15c-.33.484-.789.887-1.377 1.209-.575.31-1.241.465-2 .465a4.327 4.327 0 0 1-2.349-.67c-.697-.446-1.254-1.072-1.67-1.877-.404-.818-.606-1.754-.606-2.807Zm8.002.037c0-.632-.123-1.171-.367-1.617a2.531 2.531 0 0 0-.991-1.041 2.574 2.574 0 0 0-1.34-.372 2.58 2.58 0 0 0-1.321.353c-.404.236-.734.583-.991 1.041-.245.446-.367.98-.367 1.599 0 .62.122 1.165.367 1.636.257.458.587.811.991 1.06a2.54 2.54 0 0 0 1.321.371c.477 0 .924-.118 1.34-.353.416-.248.746-.595.991-1.041.244-.459.367-1.004.367-1.636Zm9.758-3.011h-1.78v8.16h-2.606v-8.16h-1.156v-2.138h1.156v-.52c0-1.265.355-2.194 1.064-2.79.71-.594 1.781-.873 3.212-.836v2.194c-.624-.013-1.058.093-1.303.316-.245.223-.367.626-.367 1.208v.428h1.78v2.138Z" fill="#56B280"/><g clip-path="url(#logo__a)"><mask id="logo__b" style="mask-type:alpha" maskUnits="userSpaceOnUse" x="0" y="0" width="35" height="34"><circle cx="17.293" cy="16.977" r="16.807" fill="#F578A5"/></mask><g mask="url(#logo__b)"><circle cx="17.293" cy="16.977" r="16.807" fill="#56B280"/><path d="M9.562 33.54v.367h16.324V27c0-.601-.476-1.094-1.077-1.114l-14.095-.481a1.115 1.115 0 0 0-1.152 1.114v7.021Z" fill="#fff" stroke="#fff" stroke-width=".735"/><g clip-path="url(#logo__c)"><path d="M12.8 11.971c3.425-4.762 1.952-8.638 1.956-8.643a.375.375 0 0 1 .52-.467c6.182 2.958 8.842 6.777 9.351 10.23a8.369 8.369 0 0 1-.369 3.993 8.009 8.009 0 0 1-1.982 3.126c-1.723 1.664-4.131 2.43-6.508 1.653a6.213 6.213 0 0 1-1.7-.863 6.33 6.33 0 0 1-2.266-3 6.124 6.124 0 0 1-.041-3.996 7.41 7.41 0 0 1 1.039-2.033Z" fill="#fff"/><path d="M14.831 3.451a.375.375 0 1 1 .547-.511c.014.012 2.998 3.14 3.425 9.187l.004.057a21.873 21.873 0 0 1-.135 4.236l2.04-1.564a.375.375 0 0 1 .465.588L18.51 17.48c-.597 3.51-2.702 8.477.084 11.585a.375.375 0 0 1-.554.505c-3.342-3.724-.91-8.338-.245-12.328l.009-.056c.27-1.588.363-3.2.276-4.809l-2.399-1.758a.375.375 0 1 1 .445-.604l1.858 1.368c-.58-5.241-3.142-7.92-3.153-7.933Z" fill="#56B280"/></g></g></g><defs><clipPath id="logo__a"><path fill="#fff" transform="translate(.486 .17)" d="M0 0h33.613v33.613H0z"/></clipPath><clipPath id="logo__c"><path fill="#fff" transform="rotate(-48 19.916 5.547)" d="M0 0h20.627v20.627H0z"/></clipPath></defs></svg>