<?xml version="1.0" standalone="no"?>
<!DOCTYPE svg PUBLIC "-//W3C//DTD SVG 20010904//EN"
 "http://www.w3.org/TR/2001/REC-SVG-20010904/DTD/svg10.dtd">
<svg version="1.0" xmlns="http://www.w3.org/2000/svg"
 width="212.000000pt" height="212.000000pt" viewBox="0 0 212.000000 212.000000"
 preserveAspectRatio="xMidYMid meet">
<metadata>
Created by potrace 1.14, written by Peter Selinger 2001-2017
</metadata>
<g transform="translate(0.000000,212.000000) scale(0.100000,-0.100000)"
fill="#000000" stroke="none">
<path d="M1347 1727 c-75 -59 -108 -77 -262 -141 -278 -116 -450 -276 -521
-486 -25 -74 -25 -241 0 -325 21 -70 66 -165 78 -165 4 0 8 4 8 8 0 22 80 108
159 171 145 116 280 262 361 389 18 28 35 52 37 52 8 0 -53 -110 -99 -178 -71
-105 -158 -203 -235 -264 -133 -105 -163 -145 -209 -280 -23 -69 -41 -158 -31
-158 3 0 25 8 49 19 40 17 44 22 55 71 7 29 21 69 30 89 l18 36 130 6 c202 9
328 61 450 184 195 198 252 465 163 770 -21 74 -62 169 -95 222 l-20 33 -66
-53z"/>
</g>
</svg>
