<svg width="159" height="135" fill="none" xmlns="http://www.w3.org/2000/svg"><path d="M12.952 122.88V134h-1.824v-7.616L7.736 134H6.472l-3.408-7.616V134H1.24v-11.12h1.968l3.904 8.72L11 122.88h1.952Zm6.221 11.264c-.832 0-1.584-.187-2.256-.56a4.149 4.149 0 0 1-1.584-1.6c-.384-.693-.576-1.493-.576-2.4 0-.896.198-1.691.592-2.384a4.09 4.09 0 0 1 1.616-1.6c.683-.373 1.446-.56 2.288-.56.843 0 1.606.187 2.288.56a4.09 4.09 0 0 1 1.616 1.6c.395.693.592 1.488.592 2.384 0 .896-.202 1.691-.608 2.384a4.254 4.254 0 0 1-1.664 1.616 4.785 4.785 0 0 1-2.304.56Zm0-1.584c.47 0 .907-.112 1.312-.336.416-.224.752-.56 1.008-1.008.256-.448.384-.992.384-1.632 0-.64-.122-1.179-.368-1.616a2.473 2.473 0 0 0-.976-1.008 2.67 2.67 0 0 0-1.312-.336c-.469 0-.906.112-1.312.336-.394.224-.709.56-.944 1.008-.234.437-.352.976-.352 1.616 0 .949.24 1.685.72 2.208.491.512 1.104.768 1.84.768Zm9.58 1.584c-.694 0-1.318-.123-1.872-.368-.544-.256-.977-.597-1.297-1.024a2.591 2.591 0 0 1-.511-1.456h1.887c.032.373.209.688.528.944.331.245.742.368 1.233.368.512 0 .906-.096 1.183-.288.288-.203.433-.459.433-.768 0-.331-.16-.576-.48-.736-.31-.16-.806-.336-1.488-.528-.662-.181-1.2-.357-1.616-.528a2.905 2.905 0 0 1-1.088-.784c-.3-.352-.448-.816-.448-1.392 0-.469.138-.896.416-1.28.277-.395.672-.704 1.184-.928.522-.224 1.12-.336 1.791-.336 1.003 0 1.808.256 2.416.768.62.501.95 1.189.992 2.064h-1.823a1.3 1.3 0 0 0-.48-.944c-.289-.235-.678-.352-1.169-.352-.48 0-.848.091-1.104.272a.841.841 0 0 0-.384.72c0 .235.086.432.256.592.171.16.38.288.624.384.246.085.608.197 1.088.336.64.171 1.163.347 1.569.528.416.171.773.427 1.072.768.298.341.453.795.464 1.36 0 .501-.14.949-.416 1.344-.278.395-.672.704-1.184.928-.502.224-1.094.336-1.776.336Zm7.474-7.472v4.88c0 .331.075.571.224.72.16.139.427.208.8.208h1.12V134h-1.44c-.82 0-1.45-.192-1.888-.576-.437-.384-.656-1.008-.656-1.872v-4.88h-1.04v-1.488h1.04v-2.192h1.84v2.192h2.144v1.488h-2.144Zm11.182 7.472c-.694 0-1.317-.123-1.872-.368-.544-.256-.976-.597-1.296-1.024a2.59 2.59 0 0 1-.512-1.456h1.888c.032.373.208.688.528.944.33.245.741.368 1.232.368.512 0 .906-.096 1.184-.288.288-.203.432-.459.432-.768 0-.331-.16-.576-.48-.736-.31-.16-.805-.336-1.488-.528-.661-.181-1.2-.357-1.616-.528a2.904 2.904 0 0 1-1.088-.784c-.299-.352-.448-.816-.448-1.392 0-.469.139-.896.416-1.28.277-.395.672-.704 1.184-.928.523-.224 1.12-.336 1.792-.336 1.002 0 1.808.256 2.416.768.619.501.95 1.189.992 2.064h-1.824a1.3 1.3 0 0 0-.48-.944c-.288-.235-.678-.352-1.168-.352-.48 0-.848.091-1.104.272a.841.841 0 0 0-.384.72c0 .235.085.432.256.592.17.16.378.288.624.384.245.085.608.197 1.088.336.64.171 1.163.347 1.568.528.416.171.773.427 1.072.768.299.341.453.795.464 1.36 0 .501-.139.949-.416 1.344-.277.395-.672.704-1.184.928-.502.224-1.093.336-1.776.336Zm13.427-4.768c0 .331-.022.629-.064.896h-6.736c.053.704.314 1.269.784 1.696.469.427 1.045.64 1.728.64.981 0 1.674-.411 2.08-1.232h1.968a3.998 3.998 0 0 1-1.456 2c-.694.512-1.558.768-2.592.768-.843 0-1.6-.187-2.272-.56a4.182 4.182 0 0 1-1.568-1.6c-.374-.693-.56-1.493-.56-2.4 0-.907.181-1.701.544-2.384a3.936 3.936 0 0 1 1.552-1.6c.672-.373 1.44-.56 2.304-.56.832 0 1.573.181 2.224.544a3.84 3.84 0 0 1 1.52 1.536c.362.651.544 1.403.544 2.256Zm-1.904-.576c-.011-.672-.251-1.211-.72-1.616-.47-.405-1.051-.608-1.744-.608-.63 0-1.168.203-1.616.608-.448.395-.715.933-.8 1.616h4.88Zm5.523-6.64V134H62.63v-11.84h1.824Zm4.218 0V134H66.85v-11.84h1.824Zm10.475 7.216c0 .331-.021.629-.064.896h-6.736c.053.704.315 1.269.784 1.696.47.427 1.045.64 1.728.64.981 0 1.675-.411 2.08-1.232h1.968a3.998 3.998 0 0 1-1.456 2c-.693.512-1.557.768-2.592.768-.843 0-1.6-.187-2.272-.56a4.182 4.182 0 0 1-1.568-1.6c-.373-.693-.56-1.493-.56-2.4 0-.907.181-1.701.544-2.384a3.936 3.936 0 0 1 1.552-1.6c.672-.373 1.44-.56 2.304-.56.832 0 1.573.181 2.224.544a3.84 3.84 0 0 1 1.52 1.536c.363.651.544 1.403.544 2.256Zm-1.904-.576c-.01-.672-.25-1.211-.72-1.616s-1.05-.608-1.744-.608c-.63 0-1.168.203-1.616.608-.448.395-.715.933-.8 1.616h4.88Zm3.091.752c0-.885.181-1.669.544-2.352a4.058 4.058 0 0 1 3.632-2.16 4.01 4.01 0 0 1 1.696.384c.566.245 1.014.576 1.344.992v-4.256h1.84V134h-1.84v-1.328c-.299.427-.715.779-1.248 1.056-.522.277-1.125.416-1.808.416a4.028 4.028 0 0 1-2.112-.576 4.279 4.279 0 0 1-1.504-1.632c-.363-.704-.544-1.499-.544-2.384Zm7.216.032c0-.608-.128-1.136-.384-1.584a2.587 2.587 0 0 0-.976-1.024 2.571 2.571 0 0 0-1.312-.352c-.47 0-.907.117-1.312.352a2.58 2.58 0 0 0-.992 1.008c-.245.437-.368.96-.368 1.568 0 .608.123 1.141.368 1.6.256.459.587.811.992 1.056a2.628 2.628 0 0 0 2.624 0c.406-.235.73-.576.976-1.024.256-.459.384-.992.384-1.6Z" fill="#E1E1E1"/><path d="M12.952 87.88V99h-1.824v-7.616L7.736 99H6.472l-3.408-7.616V99H1.24V87.88h1.968l3.904 8.72L11 87.88h1.952Zm6.221 11.264c-.832 0-1.584-.187-2.256-.56a4.151 4.151 0 0 1-1.584-1.6c-.384-.693-.576-1.493-.576-2.4 0-.896.198-1.69.592-2.384a4.09 4.09 0 0 1 1.616-1.6c.683-.373 1.446-.56 2.288-.56.843 0 1.606.187 2.288.56a4.09 4.09 0 0 1 1.616 1.6c.395.693.592 1.488.592 2.384 0 .896-.202 1.69-.608 2.384a4.252 4.252 0 0 1-1.664 1.616 4.781 4.781 0 0 1-2.304.56Zm0-1.584c.47 0 .907-.112 1.312-.336.416-.224.752-.56 1.008-1.008.256-.448.384-.992.384-1.632 0-.64-.122-1.179-.368-1.616a2.473 2.473 0 0 0-.976-1.008 2.67 2.67 0 0 0-1.312-.336c-.469 0-.906.112-1.312.336-.394.224-.709.56-.944 1.008-.234.437-.352.976-.352 1.616 0 .95.24 1.685.72 2.208.491.512 1.104.768 1.84.768Zm9.58 1.584c-.694 0-1.318-.123-1.872-.368-.544-.256-.977-.597-1.297-1.024a2.591 2.591 0 0 1-.511-1.456h1.887c.032.373.209.688.528.944.331.245.742.368 1.233.368.512 0 .906-.096 1.183-.288.288-.203.433-.459.433-.768 0-.33-.16-.576-.48-.736-.31-.16-.806-.336-1.488-.528-.662-.181-1.2-.357-1.616-.528a2.902 2.902 0 0 1-1.088-.784c-.3-.352-.448-.816-.448-1.392 0-.47.138-.896.416-1.28.277-.395.672-.704 1.184-.928.522-.224 1.12-.336 1.791-.336 1.003 0 1.808.256 2.416.768.62.501.95 1.19.992 2.064h-1.823a1.3 1.3 0 0 0-.48-.944c-.289-.235-.678-.352-1.169-.352-.48 0-.848.09-1.104.272a.842.842 0 0 0-.384.72.78.78 0 0 0 .256.592c.171.16.38.288.624.384.246.085.608.197 1.088.336.64.17 1.163.347 1.569.528.416.17.773.427 1.072.768.298.341.453.795.464 1.36 0 .501-.14.95-.416 1.344-.278.395-.672.704-1.184.928-.502.224-1.094.336-1.776.336Zm7.474-7.472v4.88c0 .33.075.57.224.72.16.139.427.208.8.208h1.12V99h-1.44c-.82 0-1.45-.192-1.888-.576-.437-.384-.656-1.008-.656-1.872v-4.88h-1.04v-1.488h1.04v-2.192h1.84v2.192h2.144v1.488h-2.144Zm11.182 7.472c-.694 0-1.317-.123-1.872-.368-.544-.256-.976-.597-1.296-1.024a2.59 2.59 0 0 1-.512-1.456h1.888c.032.373.208.688.528.944.33.245.741.368 1.232.368.512 0 .906-.096 1.184-.288.288-.203.432-.459.432-.768 0-.33-.16-.576-.48-.736-.31-.16-.805-.336-1.488-.528-.661-.181-1.2-.357-1.616-.528a2.9 2.9 0 0 1-1.088-.784c-.299-.352-.448-.816-.448-1.392 0-.47.139-.896.416-1.28.277-.395.672-.704 1.184-.928.523-.224 1.12-.336 1.792-.336 1.002 0 1.808.256 2.416.768.619.501.95 1.19.992 2.064h-1.824a1.3 1.3 0 0 0-.48-.944c-.288-.235-.678-.352-1.168-.352-.48 0-.848.09-1.104.272a.842.842 0 0 0-.384.72.78.78 0 0 0 .256.592c.17.16.378.288.624.384.245.085.608.197 1.088.336.64.17 1.163.347 1.568.528.416.17.773.427 1.072.768.299.341.453.795.464 1.36 0 .501-.139.95-.416 1.344-.277.395-.672.704-1.184.928-.502.224-1.093.336-1.776.336Zm13.427-4.768c0 .33-.022.63-.064.896h-6.736c.053.704.314 1.27.784 1.696.469.427 1.045.64 1.728.64.981 0 1.674-.41 2.08-1.232h1.968a3.998 3.998 0 0 1-1.456 2c-.694.512-1.558.768-2.592.768-.843 0-1.6-.187-2.272-.56a4.185 4.185 0 0 1-1.568-1.6c-.374-.693-.56-1.493-.56-2.4 0-.907.181-1.701.544-2.384a3.936 3.936 0 0 1 1.552-1.6c.672-.373 1.44-.56 2.304-.56.832 0 1.573.181 2.224.544a3.84 3.84 0 0 1 1.52 1.536c.362.65.544 1.403.544 2.256Zm-1.904-.576c-.011-.672-.251-1.21-.72-1.616-.47-.405-1.051-.608-1.744-.608-.63 0-1.168.203-1.616.608-.448.395-.715.933-.8 1.616h4.88Zm3.09.752c0-.885.182-1.67.545-2.352a4.062 4.062 0 0 1 3.616-2.16c.693 0 1.296.139 1.808.416.522.267.938.603 1.248 1.008v-1.28h1.84V99h-1.84v-1.312c-.31.416-.731.763-1.264 1.04-.534.277-1.142.416-1.824.416a3.914 3.914 0 0 1-2.08-.576 4.275 4.275 0 0 1-1.504-1.632c-.363-.704-.544-1.499-.544-2.384Zm7.217.032c0-.608-.128-1.136-.384-1.584a2.585 2.585 0 0 0-.976-1.024 2.574 2.574 0 0 0-1.312-.352c-.47 0-.907.117-1.312.352-.406.224-.736.56-.992 1.008-.246.437-.368.96-.368 1.568 0 .608.122 1.141.368 1.6.256.459.586.81.992 1.056a2.627 2.627 0 0 0 2.624 0c.405-.235.73-.576.976-1.024.256-.459.384-.992.384-1.6Zm6.06-3.12a2.822 2.822 0 0 1 1.055-1.04c.448-.256.976-.384 1.584-.384v1.888h-.464c-.714 0-1.258.181-1.632.544-.362.363-.544.992-.544 1.888V99h-1.824v-8.816h1.824v1.28Zm3.708 3.12c0-.907.181-1.701.544-2.384a3.968 3.968 0 0 1 1.536-1.6c.65-.373 1.397-.56 2.24-.56 1.067 0 1.947.256 2.64.768.704.501 1.179 1.221 1.424 2.16h-1.968a2.081 2.081 0 0 0-.768-1.024c-.352-.245-.795-.368-1.328-.368-.747 0-1.344.267-1.792.8-.437.523-.656 1.259-.656 2.208 0 .95.219 1.69.656 2.224.448.533 1.045.8 1.792.8 1.056 0 1.755-.464 2.096-1.392h1.968c-.256.896-.736 1.61-1.44 2.144-.704.523-1.579.784-2.624.784-.843 0-1.59-.187-2.24-.56a4.107 4.107 0 0 1-1.536-1.6c-.363-.693-.544-1.493-.544-2.4Zm14.762-4.544c.672 0 1.27.144 1.792.432.533.288.95.715 1.248 1.28.31.565.464 1.248.464 2.048V99h-1.808v-4.928c0-.79-.198-1.392-.592-1.808-.395-.427-.934-.64-1.616-.64-.683 0-1.227.213-1.632.64-.395.416-.592 1.019-.592 1.808V99h-1.824V87.16h1.824v4.048c.31-.373.698-.661 1.168-.864a3.99 3.99 0 0 1 1.568-.304Zm13.91 4.336c0 .33-.021.63-.064.896h-6.736c.054.704.315 1.27.784 1.696.47.427 1.046.64 1.728.64.982 0 1.675-.41 2.08-1.232h1.968a3.994 3.994 0 0 1-1.456 2c-.693.512-1.557.768-2.592.768-.842 0-1.6-.187-2.272-.56a4.186 4.186 0 0 1-1.568-1.6c-.373-.693-.56-1.493-.56-2.4 0-.907.182-1.701.544-2.384a3.937 3.937 0 0 1 1.552-1.6c.672-.373 1.44-.56 2.304-.56.832 0 1.574.181 2.224.544a3.825 3.825 0 0 1 1.52 1.536c.363.65.544 1.403.544 2.256Zm-1.904-.576c-.01-.672-.25-1.21-.72-1.616-.469-.405-1.05-.608-1.744-.608-.629 0-1.168.203-1.616.608-.448.395-.714.933-.8 1.616h4.88Zm3.091.752c0-.885.182-1.67.544-2.352a4.059 4.059 0 0 1 3.632-2.16c.576 0 1.142.128 1.696.384.566.245 1.014.576 1.344.992V87.16h1.84V99h-1.84v-1.328c-.298.427-.714.779-1.248 1.056-.522.277-1.125.416-1.808.416a4.028 4.028 0 0 1-2.112-.576 4.283 4.283 0 0 1-1.504-1.632c-.362-.704-.544-1.499-.544-2.384Zm7.216.032c0-.608-.128-1.136-.384-1.584a2.578 2.578 0 0 0-.976-1.024 2.571 2.571 0 0 0-1.312-.352c-.469 0-.906.117-1.312.352a2.58 2.58 0 0 0-.992 1.008c-.245.437-.368.96-.368 1.568 0 .608.123 1.141.368 1.6.256.459.587.81.992 1.056a2.63 2.63 0 0 0 2.624 0 2.58 2.58 0 0 0 .976-1.024c.256-.459.384-.992.384-1.6Z" fill="#fff"/><path d="M10.376 65H8.552l-5.488-8.304V65H1.24V53.864h1.824l5.488 8.288v-8.288h1.824V65Zm10.475-4.624c0 .33-.021.63-.064.896h-6.736c.054.704.315 1.27.784 1.696.47.427 1.046.64 1.728.64.982 0 1.675-.41 2.08-1.232h1.968a3.998 3.998 0 0 1-1.456 2c-.693.512-1.557.768-2.592.768-.842 0-1.6-.187-2.272-.56a4.185 4.185 0 0 1-1.568-1.6c-.373-.693-.56-1.493-.56-2.4 0-.907.182-1.701.544-2.384a3.936 3.936 0 0 1 1.552-1.6c.672-.373 1.44-.56 2.304-.56.832 0 1.574.181 2.224.544a3.83 3.83 0 0 1 1.52 1.536c.363.65.544 1.403.544 2.256Zm-1.904-.576c-.01-.672-.25-1.21-.72-1.616-.469-.405-1.05-.608-1.744-.608-.629 0-1.168.203-1.616.608-.448.395-.714.933-.8 1.616h4.88Zm15.54-3.616L31.75 65h-1.92l-1.776-6.512L26.278 65h-1.92l-2.752-8.816h1.856l1.84 7.088 1.872-7.088h1.904l1.792 7.056 1.824-7.056h1.792Zm8.719 8.96c-.694 0-1.318-.123-1.872-.368-.544-.256-.976-.597-1.296-1.024a2.59 2.59 0 0 1-.512-1.456h1.888c.032.373.208.688.528.944.33.245.741.368 1.232.368.512 0 .906-.096 1.184-.288.288-.203.432-.459.432-.768 0-.33-.16-.576-.48-.736-.31-.16-.806-.336-1.488-.528a14.42 14.42 0 0 1-1.616-.528 2.9 2.9 0 0 1-1.088-.784c-.299-.352-.448-.816-.448-1.392 0-.47.138-.896.416-1.28.277-.395.672-.704 1.184-.928.522-.224 1.12-.336 1.792-.336 1.002 0 1.808.256 2.416.768.618.501.949 1.19.992 2.064h-1.824a1.3 1.3 0 0 0-.48-.944c-.288-.235-.678-.352-1.168-.352-.48 0-.848.09-1.104.272a.842.842 0 0 0-.384.72.78.78 0 0 0 .256.592c.17.16.378.288.624.384.245.085.608.197 1.088.336.64.17 1.162.347 1.568.528.416.17.773.427 1.072.768.298.341.453.795.464 1.36 0 .501-.139.95-.416 1.344-.278.395-.672.704-1.184.928-.502.224-1.094.336-1.776.336Zm13.426-4.768c0 .33-.02.63-.063.896h-6.736c.053.704.314 1.27.784 1.696.469.427 1.045.64 1.727.64.982 0 1.675-.41 2.08-1.232h1.968a3.997 3.997 0 0 1-1.456 2c-.693.512-1.557.768-2.592.768-.842 0-1.6-.187-2.272-.56a4.185 4.185 0 0 1-1.568-1.6c-.373-.693-.56-1.493-.56-2.4 0-.907.182-1.701.544-2.384a3.937 3.937 0 0 1 1.553-1.6c.672-.373 1.44-.56 2.303-.56.832 0 1.574.181 2.224.544a3.83 3.83 0 0 1 1.52 1.536c.363.65.544 1.403.544 2.256Zm-1.904-.576c-.01-.672-.25-1.21-.72-1.616-.469-.405-1.05-.608-1.744-.608-.629 0-1.168.203-1.616.608-.448.395-.714.933-.8 1.616h4.88Zm3.091.752c0-.885.182-1.67.544-2.352a4.063 4.063 0 0 1 3.617-2.16c.693 0 1.296.139 1.808.416.522.267.938.603 1.248 1.008v-1.28h1.84V65h-1.84v-1.312c-.31.416-.731.763-1.264 1.04-.534.277-1.142.416-1.825.416a3.92 3.92 0 0 1-2.08-.576 4.276 4.276 0 0 1-1.503-1.632c-.363-.704-.544-1.499-.544-2.384Zm7.216.032c0-.608-.127-1.136-.383-1.584a2.584 2.584 0 0 0-.977-1.024 2.574 2.574 0 0 0-1.311-.352c-.47 0-.907.117-1.313.352a2.58 2.58 0 0 0-.992 1.008c-.245.437-.367.96-.367 1.568 0 .608.122 1.141.367 1.6.257.459.587.81.992 1.056a2.631 2.631 0 0 0 2.625 0c.405-.235.73-.576.975-1.024.257-.459.385-.992.385-1.6Zm7.436 4.56c-.693 0-1.317-.123-1.872-.368-.544-.256-.976-.597-1.296-1.024a2.59 2.59 0 0 1-.512-1.456h1.888c.032.373.208.688.528.944.331.245.742.368 1.232.368.512 0 .907-.096 1.184-.288.288-.203.432-.459.432-.768 0-.33-.16-.576-.48-.736-.309-.16-.805-.336-1.488-.528-.661-.181-1.2-.357-1.616-.528a2.9 2.9 0 0 1-1.088-.784c-.298-.352-.448-.816-.448-1.392 0-.47.139-.896.416-1.28.278-.395.672-.704 1.184-.928.523-.224 1.12-.336 1.792-.336 1.003 0 1.808.256 2.416.768.619.501.95 1.19.992 2.064h-1.824a1.3 1.3 0 0 0-.48-.944c-.288-.235-.677-.352-1.168-.352-.48 0-.848.09-1.104.272a.842.842 0 0 0-.384.72.78.78 0 0 0 .256.592c.171.16.379.288.624.384.246.085.608.197 1.088.336.64.17 1.163.347 1.568.528.416.17.774.427 1.072.768.299.341.454.795.464 1.36 0 .501-.138.95-.416 1.344-.277.395-.672.704-1.184.928-.501.224-1.093.336-1.776.336Zm9.171 0c-.832 0-1.584-.187-2.256-.56a4.151 4.151 0 0 1-1.584-1.6c-.384-.693-.576-1.493-.576-2.4 0-.896.198-1.69.592-2.384a4.088 4.088 0 0 1 1.616-1.6c.683-.373 1.445-.56 2.288-.56.843 0 1.606.187 2.288.56a4.09 4.09 0 0 1 1.616 1.6c.395.693.592 1.488.592 2.384 0 .896-.203 1.69-.608 2.384a4.252 4.252 0 0 1-1.664 1.616 4.782 4.782 0 0 1-2.304.56Zm0-1.584c.47 0 .907-.112 1.312-.336.416-.224.752-.56 1.008-1.008.256-.448.384-.992.384-1.632 0-.64-.123-1.179-.368-1.616a2.473 2.473 0 0 0-.976-1.008 2.67 2.67 0 0 0-1.312-.336c-.47 0-.906.112-1.312.336-.394.224-.71.56-.944 1.008-.234.437-.352.976-.352 1.616 0 .95.24 1.685.72 2.208.49.512 1.104.768 1.84.768Zm10.827-7.52c.694 0 1.312.144 1.856.432a3.06 3.06 0 0 1 1.296 1.28c.31.565.464 1.248.464 2.048V65h-1.808v-4.928c0-.79-.197-1.392-.592-1.808-.394-.427-.933-.64-1.616-.64-.682 0-1.226.213-1.632.64-.394.416-.592 1.019-.592 1.808V65h-1.824v-8.816h1.824v1.008a3.033 3.033 0 0 1 1.136-.848c.47-.203.966-.304 1.488-.304Z" fill="#E1E1E1"/><path d="M4.872 8.88c1.184 0 2.219.23 3.104.688a4.744 4.744 0 0 1 2.064 1.952c.49.843.736 1.83.736 2.96s-.245 2.112-.736 2.944c-.48.832-1.168 1.472-2.064 1.92-.885.437-1.92.656-3.104.656H1.24V8.88h3.632Zm0 9.632c1.301 0 2.299-.352 2.992-1.056.693-.704 1.04-1.696 1.04-2.976 0-1.29-.347-2.299-1.04-3.024-.693-.725-1.69-1.088-2.992-1.088H3.064v8.144h1.808Zm8.64-8.496a1.13 1.13 0 0 1-.832-.336 1.13 1.13 0 0 1-.336-.832c0-.33.112-.608.336-.832a1.13 1.13 0 0 1 .832-.336c.32 0 .592.112.816.336.224.224.336.501.336.832 0 .33-.112.608-.336.832a1.11 1.11 0 0 1-.816.336Zm.896 1.168V20h-1.824v-8.816h1.824Zm5.595 8.96c-.694 0-1.318-.123-1.872-.368-.544-.256-.977-.597-1.297-1.024a2.591 2.591 0 0 1-.511-1.456h1.887c.032.373.209.688.528.944.331.245.742.368 1.233.368.512 0 .906-.096 1.183-.288.288-.203.433-.459.433-.768 0-.33-.16-.576-.48-.736-.31-.16-.806-.336-1.488-.528-.662-.181-1.2-.357-1.616-.528a2.902 2.902 0 0 1-1.088-.784c-.3-.352-.448-.816-.448-1.392 0-.47.138-.896.416-1.28.277-.395.672-.704 1.184-.928.522-.224 1.12-.336 1.791-.336 1.003 0 1.808.256 2.416.768.62.501.95 1.19.992 2.064h-1.823a1.3 1.3 0 0 0-.48-.944c-.289-.235-.678-.352-1.169-.352-.48 0-.848.09-1.104.272a.842.842 0 0 0-.384.72.78.78 0 0 0 .256.592c.171.16.38.288.624.384.246.085.608.197 1.088.336.64.17 1.163.347 1.569.528.416.17.773.427 1.072.768.298.341.453.795.463 1.36 0 .501-.138.95-.416 1.344-.277.395-.671.704-1.183.928-.502.224-1.094.336-1.776.336Zm4.738-4.56c0-.907.182-1.701.544-2.384a3.967 3.967 0 0 1 1.536-1.6c.651-.373 1.398-.56 2.24-.56 1.067 0 1.947.256 2.64.768.704.501 1.18 1.221 1.424 2.16h-1.968a2.081 2.081 0 0 0-.768-1.024c-.352-.245-.794-.368-1.328-.368-.746 0-1.344.267-1.792.8-.437.523-.656 1.259-.656 2.208 0 .95.22 1.69.656 2.224.448.533 1.046.8 1.792.8 1.056 0 1.755-.464 2.096-1.392h1.968c-.256.896-.736 1.61-1.44 2.144-.704.523-1.578.784-2.624.784-.842 0-1.589-.187-2.24-.56a4.105 4.105 0 0 1-1.536-1.6c-.362-.693-.544-1.493-.544-2.4Zm14.026 4.56c-.832 0-1.584-.187-2.256-.56a4.151 4.151 0 0 1-1.584-1.6c-.384-.693-.576-1.493-.576-2.4 0-.896.197-1.69.592-2.384a4.088 4.088 0 0 1 1.616-1.6c.683-.373 1.446-.56 2.288-.56.843 0 1.605.187 2.288.56a4.09 4.09 0 0 1 1.616 1.6c.395.693.592 1.488.592 2.384 0 .896-.203 1.69-.608 2.384a4.252 4.252 0 0 1-1.664 1.616 4.782 4.782 0 0 1-2.304.56Zm0-1.584c.47 0 .907-.112 1.312-.336.416-.224.752-.56 1.008-1.008.256-.448.384-.992.384-1.632 0-.64-.122-1.179-.368-1.616a2.473 2.473 0 0 0-.976-1.008 2.67 2.67 0 0 0-1.312-.336c-.47 0-.907.112-1.312.336-.395.224-.71.56-.944 1.008-.234.437-.352.976-.352 1.616 0 .95.24 1.685.72 2.208.49.512 1.104.768 1.84.768Zm9.787-.192 2.496-7.184h1.936L49.626 20H47.45l-3.344-8.816h1.952l2.496 7.184Zm13.891-2.992c0 .33-.021.63-.064.896h-6.736c.053.704.315 1.27.784 1.696.47.427 1.045.64 1.728.64.981 0 1.675-.41 2.08-1.232h1.968a3.997 3.997 0 0 1-1.456 2c-.693.512-1.557.768-2.592.768-.843 0-1.6-.187-2.272-.56a4.185 4.185 0 0 1-1.568-1.6c-.373-.693-.56-1.493-.56-2.4 0-.907.181-1.701.544-2.384a3.937 3.937 0 0 1 1.552-1.6c.672-.373 1.44-.56 2.304-.56.832 0 1.573.181 2.224.544a3.83 3.83 0 0 1 1.52 1.536c.363.65.544 1.403.544 2.256Zm-1.904-.576c-.01-.672-.25-1.21-.72-1.616-.47-.405-1.05-.608-1.744-.608-.63 0-1.168.203-1.616.608-.448.395-.715.933-.8 1.616h4.88Zm5.523-2.336a2.822 2.822 0 0 1 1.056-1.04c.448-.256.976-.384 1.584-.384v1.888h-.464c-.715 0-1.259.181-1.632.544-.363.363-.544.992-.544 1.888V20H64.24v-8.816h1.824v1.28Zm12.253-1.28-5.408 12.96H71.02l1.792-4.288-3.472-8.672h2.032l2.48 6.72 2.576-6.72h1.888Z" fill="#56B280"/></svg>