<svg width="163" height="136" fill="none" xmlns="http://www.w3.org/2000/svg"><path d="M7.944 132.728H3.288l-.8 2.272H.584l3.984-11.136H6.68L10.664 135h-1.92l-.8-2.272Zm-.512-1.488-1.808-5.168L3.8 131.24h3.632Zm8.66-3.568H14.46V135h-1.84v-7.328h-1.04v-1.488h1.04v-.624c0-1.013.267-1.749.8-2.208.544-.469 1.392-.704 2.544-.704v1.52c-.554 0-.944.107-1.168.32-.224.203-.336.56-.336 1.072v.624h1.632v1.488Zm5.313 0h-1.632V135h-1.84v-7.328h-1.04v-1.488h1.04v-.624c0-1.013.267-1.749.8-2.208.544-.469 1.392-.704 2.544-.704v1.52c-.555 0-.944.107-1.168.32-.224.203-.336.56-.336 1.072v.624h1.632v1.488Zm2.544-2.656a1.13 1.13 0 0 1-.832-.336 1.13 1.13 0 0 1-.336-.832c0-.331.112-.608.336-.832a1.13 1.13 0 0 1 .832-.336c.32 0 .592.112.816.336.224.224.336.501.336.832 0 .331-.112.608-.336.832a1.11 1.11 0 0 1-.816.336Zm.896 1.168V135h-1.824v-8.816h1.824Zm4.219-3.024V135H27.24v-11.84h1.824Zm3.323 1.856a1.13 1.13 0 0 1-.832-.336 1.13 1.13 0 0 1-.336-.832c0-.331.112-.608.336-.832a1.13 1.13 0 0 1 .832-.336c.32 0 .592.112.816.336.224.224.336.501.336.832 0 .331-.112.608-.336.832a1.11 1.11 0 0 1-.816.336Zm.896 1.168V135h-1.824v-8.816h1.824Zm1.786 4.368c0-.885.182-1.669.544-2.352a4.06 4.06 0 0 1 3.617-2.16c.693 0 1.296.139 1.808.416.522.267.938.603 1.248 1.008v-1.28h1.84V135h-1.84v-1.312c-.31.416-.731.763-1.264 1.04-.534.277-1.142.416-1.825.416a3.92 3.92 0 0 1-2.08-.576 4.28 4.28 0 0 1-1.503-1.632c-.363-.704-.544-1.499-.544-2.384Zm7.216.032c0-.608-.127-1.136-.383-1.584a2.586 2.586 0 0 0-.977-1.024 2.57 2.57 0 0 0-1.311-.352c-.47 0-.907.117-1.313.352a2.58 2.58 0 0 0-.992 1.008c-.245.437-.367.96-.367 1.568 0 .608.122 1.141.367 1.6.257.459.587.811.992 1.056a2.629 2.629 0 0 0 2.624 0c.406-.235.731-.576.977-1.024.255-.459.383-.992.383-1.6Zm6.364-2.912v4.88c0 .331.075.571.224.72.16.139.427.208.8.208h1.12V135h-1.44c-.821 0-1.45-.192-1.888-.576-.437-.384-.656-1.008-.656-1.872v-4.88h-1.04v-1.488h1.04v-2.192h1.84v2.192h2.144v1.488H48.65Zm11.905 2.704c0 .331-.02.629-.064.896h-6.736c.054.704.315 1.269.784 1.696.47.427 1.046.64 1.728.64.982 0 1.675-.411 2.08-1.232h1.968a3.998 3.998 0 0 1-1.456 2c-.693.512-1.557.768-2.592.768-.842 0-1.6-.187-2.272-.56a4.183 4.183 0 0 1-1.568-1.6c-.373-.693-.56-1.493-.56-2.4 0-.907.182-1.701.544-2.384a3.936 3.936 0 0 1 1.552-1.6c.672-.373 1.44-.56 2.304-.56.832 0 1.574.181 2.224.544a3.828 3.828 0 0 1 1.52 1.536c.363.651.544 1.403.544 2.256Zm-1.904-.576c-.01-.672-.25-1.211-.72-1.616-.469-.405-1.05-.608-1.744-.608-.629 0-1.168.203-1.616.608-.448.395-.714.933-.8 1.616h4.88ZM4.904 100.112c-.747 0-1.419-.128-2.016-.384-.597-.267-1.067-.64-1.408-1.12-.341-.48-.512-1.04-.512-1.68H2.92c.043.48.23.875.56 1.184.341.31.816.464 1.424.464.63 0 1.12-.15 1.472-.448.352-.31.528-.704.528-1.184 0-.373-.112-.677-.336-.912a2.11 2.11 0 0 0-.816-.544c-.32-.128-.768-.267-1.344-.416a13.994 13.994 0 0 1-1.776-.576 3.006 3.006 0 0 1-1.152-.928c-.32-.416-.48-.97-.48-1.664 0-.64.16-1.2.48-1.68.32-.48.768-.848 1.344-1.104.576-.256 1.243-.384 2-.384 1.077 0 1.957.272 2.64.816.693.533 1.077 1.27 1.152 2.208H6.6c-.032-.405-.224-.752-.576-1.04-.352-.288-.816-.432-1.392-.432-.523 0-.95.133-1.28.4-.33.267-.496.65-.496 1.152 0 .341.101.624.304.848.213.213.48.384.8.512.32.128.757.267 1.312.416.736.203 1.333.405 1.792.608a2.9 2.9 0 0 1 1.184.944c.33.416.496.976.496 1.68a3 3 0 0 1-.464 1.6c-.299.501-.741.907-1.328 1.216-.576.299-1.259.448-2.048.448Zm10.552-9.072c.672 0 1.27.144 1.792.432.534.288.95.715 1.248 1.28.31.565.464 1.248.464 2.048v5.2h-1.808v-4.928c0-.79-.197-1.392-.592-1.808-.394-.427-.933-.64-1.616-.64-.682 0-1.226.213-1.632.64-.394.416-.592 1.019-.592 1.808V100h-1.824V88.16h1.824v4.048c.31-.373.699-.661 1.168-.864a3.99 3.99 0 0 1 1.568-.304Zm6.759-1.024a1.13 1.13 0 0 1-.832-.336 1.13 1.13 0 0 1-.336-.832c0-.33.112-.608.336-.832a1.13 1.13 0 0 1 .832-.336c.32 0 .592.112.816.336.224.224.336.501.336.832 0 .33-.112.608-.336.832a1.11 1.11 0 0 1-.816.336Zm.896 1.168V100h-1.824v-8.816h1.824Zm4.219 1.296c.309-.405.73-.747 1.264-1.024.533-.277 1.136-.416 1.808-.416.768 0 1.466.192 2.096.576.64.373 1.141.901 1.504 1.584.362.683.544 1.467.544 2.352 0 .885-.182 1.68-.544 2.384a4.117 4.117 0 0 1-1.504 1.632 3.946 3.946 0 0 1-2.096.576c-.672 0-1.27-.133-1.792-.4a4.11 4.11 0 0 1-1.28-1.024v5.472h-1.824V91.184h1.824v1.296Zm5.36 3.072c0-.608-.128-1.13-.384-1.568a2.443 2.443 0 0 0-.992-1.008 2.574 2.574 0 0 0-1.312-.352c-.459 0-.896.117-1.312.352A2.696 2.696 0 0 0 27.698 94c-.246.448-.368.976-.368 1.584 0 .608.122 1.141.368 1.6.256.448.586.79.992 1.024a2.627 2.627 0 0 0 2.624 0c.416-.245.746-.597.992-1.056.256-.459.384-.992.384-1.6Zm5.483-3.072c.31-.405.731-.747 1.264-1.024.534-.277 1.136-.416 1.808-.416.768 0 1.467.192 2.096.576.64.373 1.142.901 1.504 1.584.363.683.544 1.467.544 2.352 0 .885-.18 1.68-.544 2.384a4.117 4.117 0 0 1-1.504 1.632 3.945 3.945 0 0 1-2.096.576c-.672 0-1.269-.133-1.792-.4a4.11 4.11 0 0 1-1.28-1.024v5.472H36.35V91.184h1.824v1.296Zm5.36 3.072c0-.608-.128-1.13-.384-1.568a2.443 2.443 0 0 0-.992-1.008 2.574 2.574 0 0 0-1.312-.352 2.63 2.63 0 0 0-1.312.352A2.697 2.697 0 0 0 38.541 94c-.245.448-.368.976-.368 1.584 0 .608.123 1.141.368 1.6.256.448.587.79.992 1.024a2.63 2.63 0 0 0 2.624 0 2.63 2.63 0 0 0 .992-1.056c.256-.459.384-.992.384-1.6Zm4.588-5.536a1.13 1.13 0 0 1-.832-.336 1.13 1.13 0 0 1-.336-.832c0-.33.112-.608.336-.832a1.13 1.13 0 0 1 .832-.336c.32 0 .592.112.816.336.224.224.336.501.336.832 0 .33-.112.608-.336.832a1.11 1.11 0 0 1-.816.336Zm.896 1.168V100h-1.824v-8.816h1.824Zm6.843-.144c.693 0 1.312.144 1.856.432a3.06 3.06 0 0 1 1.296 1.28c.31.565.464 1.248.464 2.048v5.2h-1.808v-4.928c0-.79-.197-1.392-.592-1.808-.395-.427-.933-.64-1.616-.64s-1.227.213-1.632.64c-.395.416-.592 1.019-.592 1.808V100h-1.824v-8.816h1.824v1.008a3.033 3.033 0 0 1 1.136-.848 3.71 3.71 0 0 1 1.488-.304Zm9.495 0c.682 0 1.285.139 1.807.416.534.267.95.603 1.248 1.008v-1.28h1.84v8.96c0 .811-.17 1.531-.511 2.16a3.675 3.675 0 0 1-1.489 1.504c-.64.363-1.407.544-2.303.544-1.195 0-2.187-.283-2.977-.848-.789-.555-1.237-1.312-1.343-2.272h1.807c.14.459.433.827.88 1.104.46.288 1.003.432 1.633.432.736 0 1.328-.224 1.775-.672.46-.448.689-1.099.689-1.952v-1.472c-.31.416-.731.768-1.264 1.056-.523.277-1.12.416-1.793.416a4.028 4.028 0 0 1-2.111-.576 4.276 4.276 0 0 1-1.505-1.632c-.362-.704-.544-1.499-.544-2.384 0-.885.182-1.67.544-2.352a4.063 4.063 0 0 1 3.617-2.16Zm3.055 4.544c0-.608-.127-1.136-.383-1.584a2.584 2.584 0 0 0-.977-1.024 2.574 2.574 0 0 0-1.311-.352c-.47 0-.907.117-1.313.352a2.58 2.58 0 0 0-.992 1.008c-.245.437-.367.96-.367 1.568 0 .608.122 1.141.367 1.6.257.459.587.81.993 1.056a2.624 2.624 0 0 0 2.624 0c.405-.235.73-.576.975-1.024.257-.459.385-.992.385-1.6ZM12.125 53.88V65h-1.824v-4.864H5.07V65H3.245V53.88H5.07v4.768h5.232V53.88h1.824Zm10.482 6.496c0 .33-.022.63-.064.896h-6.736c.053.704.314 1.27.783 1.696.47.427 1.046.64 1.729.64.98 0 1.674-.41 2.08-1.232h1.967a3.997 3.997 0 0 1-1.456 2c-.693.512-1.557.768-2.591.768-.843 0-1.6-.187-2.272-.56a4.185 4.185 0 0 1-1.569-1.6c-.373-.693-.56-1.493-.56-2.4 0-.907.182-1.701.545-2.384a3.937 3.937 0 0 1 1.552-1.6c.671-.373 1.44-.56 2.303-.56.832 0 1.574.181 2.224.544a3.83 3.83 0 0 1 1.52 1.536c.363.65.544 1.403.544 2.256Zm-1.904-.576c-.011-.672-.251-1.21-.72-1.616-.47-.405-1.051-.608-1.745-.608-.629 0-1.168.203-1.616.608-.448.395-.714.933-.8 1.616h4.88Zm5.523-6.64V65H24.4V53.16h1.825Zm4.218 4.32c.31-.405.731-.747 1.264-1.024.534-.277 1.136-.416 1.808-.416.768 0 1.467.192 2.096.576.64.373 1.142.901 1.504 1.584.363.683.544 1.467.544 2.352 0 .885-.181 1.68-.544 2.384a4.117 4.117 0 0 1-1.504 1.632 3.945 3.945 0 0 1-2.096.576c-.672 0-1.269-.133-1.792-.4a4.11 4.11 0 0 1-1.28-1.024v5.472H28.62V56.184h1.824v1.296Zm5.36 3.072c0-.608-.128-1.13-.384-1.568a2.443 2.443 0 0 0-.992-1.008 2.574 2.574 0 0 0-1.312-.352 2.63 2.63 0 0 0-1.312.352A2.697 2.697 0 0 0 30.812 59c-.245.448-.368.976-.368 1.584 0 .608.123 1.141.368 1.6.256.448.587.79.992 1.024a2.63 2.63 0 0 0 2.624 0 2.63 2.63 0 0 0 .992-1.056c.256-.459.384-.992.384-1.6Z" fill="#fff"/><path d="M7.944 17.728H3.288L2.488 20H.584L4.568 8.864H6.68L10.664 20h-1.92l-.8-2.272Zm-.512-1.488-1.808-5.168L3.8 16.24h3.632Zm6.788-3.744c.31-.427.731-.773 1.264-1.04a3.923 3.923 0 0 1 1.808-.416c.779 0 1.483.187 2.112.56.63.373 1.126.907 1.488 1.6.363.683.544 1.467.544 2.352 0 .885-.181 1.68-.544 2.384a4.117 4.117 0 0 1-1.504 1.632 3.945 3.945 0 0 1-2.096.576c-.682 0-1.29-.133-1.824-.4-.522-.267-.938-.608-1.248-1.024V20h-1.824V8.16h1.824v4.336Zm5.36 3.056c0-.608-.128-1.13-.384-1.568a2.443 2.443 0 0 0-.992-1.008 2.574 2.574 0 0 0-1.312-.352 2.63 2.63 0 0 0-1.312.352A2.697 2.697 0 0 0 14.588 14c-.245.448-.368.976-.368 1.584 0 .608.123 1.141.368 1.6.256.448.587.79.992 1.024a2.63 2.63 0 0 0 2.624 0 2.63 2.63 0 0 0 .992-1.056c.256-.459.384-.992.384-1.6Zm7.484 4.592c-.832 0-1.584-.187-2.256-.56a4.151 4.151 0 0 1-1.584-1.6c-.384-.693-.576-1.493-.576-2.4 0-.896.197-1.69.592-2.384a4.09 4.09 0 0 1 1.616-1.6c.683-.373 1.445-.56 2.288-.56.843 0 1.605.187 2.288.56a4.088 4.088 0 0 1 1.616 1.6c.395.693.592 1.488.592 2.384 0 .896-.203 1.69-.608 2.384a4.252 4.252 0 0 1-1.664 1.616 4.781 4.781 0 0 1-2.304.56Zm0-1.584c.47 0 .907-.112 1.312-.336.416-.224.752-.56 1.008-1.008.256-.448.384-.992.384-1.632 0-.64-.123-1.179-.368-1.616a2.472 2.472 0 0 0-.976-1.008 2.669 2.669 0 0 0-1.312-.336c-.47 0-.907.112-1.312.336-.395.224-.71.56-.944 1.008-.235.437-.352.976-.352 1.616 0 .95.24 1.685.72 2.208.49.512 1.104.768 1.84.768Zm14.363-7.376V20h-1.824v-1.04a3.01 3.01 0 0 1-1.136.864 3.6 3.6 0 0 1-1.472.304c-.693 0-1.317-.144-1.872-.432a3.184 3.184 0 0 1-1.296-1.28c-.31-.565-.464-1.248-.464-2.048v-5.184h1.808v4.912c0 .79.197 1.397.592 1.824.395.416.934.624 1.616.624.683 0 1.221-.208 1.616-.624.406-.427.608-1.035.608-1.824v-4.912h1.824Zm4.535 1.488v4.88c0 .33.074.57.224.72.16.139.426.208.8.208h1.12V20h-1.44c-.822 0-1.45-.192-1.888-.576-.438-.384-.656-1.008-.656-1.872v-4.88h-1.04v-1.488h1.04V8.992h1.84v2.192h2.144v1.488h-2.144Z" fill="#56B280"/></svg>