<svg width="341" height="41" fill="none" xmlns="http://www.w3.org/2000/svg"><path d="M9.08 1.848 5.448 8.792V13H3.992V8.792L.344 1.848H1.96l2.752 5.648 2.752-5.648H9.08Zm4.86 11.296a4.534 4.534 0 0 1-2.24-.56A4.07 4.07 0 0 1 10.132 11c-.374-.693-.56-1.493-.56-2.4 0-.896.192-1.685.576-2.368a4.009 4.009 0 0 1 1.6-1.584c.672-.373 1.424-.56 2.256-.56.832 0 1.584.187 2.256.56.672.363 1.2.885 1.584 1.568.394.683.592 1.477.592 2.384 0 .907-.203 1.707-.608 2.4a4.118 4.118 0 0 1-1.616 1.584c-.683.373-1.44.56-2.272.56Zm0-1.28c.523 0 1.013-.123 1.472-.368a2.748 2.748 0 0 0 1.104-1.104c.288-.49.432-1.088.432-1.792s-.139-1.301-.416-1.792c-.277-.49-.64-.853-1.088-1.088a2.983 2.983 0 0 0-1.456-.368c-.534 0-1.024.123-1.472.368-.438.235-.79.597-1.056 1.088-.267.49-.4 1.088-.4 1.792 0 .715.128 1.317.384 1.808.266.49.618.859 1.056 1.104.437.235.917.352 1.44.352Zm13.686-7.632V13H26.17v-1.296c-.277.448-.667.8-1.168 1.056a3.598 3.598 0 0 1-1.632.368c-.683 0-1.296-.139-1.84-.416a3.184 3.184 0 0 1-1.296-1.28c-.31-.565-.464-1.253-.464-2.064V4.232h1.44v4.944c0 .864.219 1.53.656 2 .438.459 1.035.688 1.792.688.779 0 1.392-.24 1.84-.72.448-.48.672-1.179.672-2.096V4.232h1.456Zm3.415 1.424a2.81 2.81 0 0 1 1.088-1.168c.48-.277 1.06-.416 1.744-.416v1.504h-.384c-1.632 0-2.448.885-2.448 2.656V13h-1.457V4.232h1.457v1.424Zm12.05-1.584c1.067 0 1.93.325 2.592.976.661.64.992 1.568.992 2.784V13h-1.44V8.04c0-.875-.219-1.541-.656-2-.437-.47-1.035-.704-1.792-.704-.768 0-1.381.24-1.84.72-.448.48-.672 1.179-.672 2.096V13h-1.456V4.232h1.456V5.48a2.903 2.903 0 0 1 1.168-1.04 3.698 3.698 0 0 1 1.648-.368Zm4.918 4.512c0-.896.182-1.68.544-2.352a3.952 3.952 0 0 1 1.488-1.584 4.15 4.15 0 0 1 2.128-.56c.768 0 1.435.165 2 .496.566.33.987.747 1.264 1.248v-1.6h1.472V13h-1.472v-1.632c-.288.512-.72.939-1.296 1.28-.565.33-1.226.496-1.984.496a3.974 3.974 0 0 1-2.112-.576 4.04 4.04 0 0 1-1.488-1.616c-.362-.693-.544-1.483-.544-2.368Zm7.424.016c0-.661-.133-1.237-.4-1.728a2.754 2.754 0 0 0-1.088-1.12 2.854 2.854 0 0 0-1.488-.4c-.544 0-1.04.128-1.488.384-.448.256-.805.63-1.072 1.12-.266.49-.4 1.067-.4 1.728 0 .672.134 1.259.4 1.76a2.9 2.9 0 0 0 1.072 1.136c.448.256.944.384 1.488.384s1.04-.128 1.488-.384a2.864 2.864 0 0 0 1.088-1.136c.267-.501.4-1.083.4-1.744Zm5.209-3.168V10.6c0 .427.09.73.272.912.181.17.496.256.944.256h1.072V13h-1.312c-.81 0-1.419-.187-1.824-.56-.405-.373-.608-.987-.608-1.84V5.432H58.05v-1.2h1.136V2.024h1.456v2.208h2.288v1.2h-2.288Zm11.328-1.2V13h-1.456v-1.296c-.277.448-.667.8-1.168 1.056a3.598 3.598 0 0 1-1.632.368c-.683 0-1.296-.139-1.84-.416a3.184 3.184 0 0 1-1.296-1.28c-.31-.565-.464-1.253-.464-2.064V4.232h1.44v4.944c0 .864.219 1.53.656 2 .437.459 1.035.688 1.792.688.779 0 1.392-.24 1.84-.72.448-.48.672-1.179.672-2.096V4.232h1.456Zm3.414 1.424c.256-.501.619-.89 1.088-1.168.48-.277 1.062-.416 1.744-.416v1.504h-.384c-1.632 0-2.448.885-2.448 2.656V13h-1.456V4.232h1.456v1.424Zm3.469 2.928c0-.896.181-1.68.544-2.352a3.952 3.952 0 0 1 1.488-1.584 4.15 4.15 0 0 1 2.128-.56c.768 0 1.435.165 2 .496.565.33.987.747 1.264 1.248v-1.6h1.472V13h-1.472v-1.632c-.288.512-.72.939-1.296 1.28-.565.33-1.227.496-1.984.496a3.975 3.975 0 0 1-2.112-.576 4.04 4.04 0 0 1-1.488-1.616c-.363-.693-.544-1.483-.544-2.368Zm7.424.016c0-.661-.133-1.237-.4-1.728a2.753 2.753 0 0 0-1.088-1.12 2.854 2.854 0 0 0-1.488-.4c-.544 0-1.04.128-1.488.384-.448.256-.805.63-1.072 1.12-.267.49-.4 1.067-.4 1.728 0 .672.133 1.259.4 1.76a2.9 2.9 0 0 0 1.072 1.136c.448.256.944.384 1.488.384s1.04-.128 1.488-.384a2.863 2.863 0 0 0 1.088-1.136c.267-.501.4-1.083.4-1.744Zm4.888-7.44V13H89.71V1.16h1.456ZM96.37 8.6c0-.907.181-1.696.544-2.368a3.917 3.917 0 0 1 1.504-1.584c.65-.373 1.392-.56 2.224-.56 1.077 0 1.962.261 2.656.784.704.523 1.168 1.248 1.392 2.176h-1.568a2.243 2.243 0 0 0-.88-1.264c-.427-.31-.96-.464-1.6-.464-.832 0-1.504.288-2.016.864-.512.565-.768 1.37-.768 2.416 0 1.056.256 1.872.768 2.448.512.576 1.184.864 2.016.864.64 0 1.173-.15 1.6-.448.426-.299.72-.725.88-1.28h1.568c-.235.896-.704 1.616-1.408 2.16-.704.533-1.584.8-2.64.8-.832 0-1.574-.187-2.224-.56A3.917 3.917 0 0 1 96.913 11c-.363-.683-.544-1.483-.544-2.4Zm9.218-.016c0-.896.182-1.68.544-2.352a3.956 3.956 0 0 1 1.488-1.584 4.15 4.15 0 0 1 2.128-.56c.768 0 1.435.165 2 .496.566.33.987.747 1.264 1.248v-1.6h1.472V13h-1.472v-1.632c-.288.512-.72.939-1.296 1.28-.565.33-1.226.496-1.984.496a3.978 3.978 0 0 1-2.112-.576 4.045 4.045 0 0 1-1.488-1.616c-.362-.693-.544-1.483-.544-2.368Zm7.424.016c0-.661-.133-1.237-.4-1.728a2.747 2.747 0 0 0-1.088-1.12 2.854 2.854 0 0 0-1.488-.4c-.544 0-1.04.128-1.488.384-.448.256-.805.63-1.072 1.12-.266.49-.4 1.067-.4 1.728 0 .672.134 1.259.4 1.76.267.49.624.87 1.072 1.136.448.256.944.384 1.488.384s1.04-.128 1.488-.384a2.857 2.857 0 0 0 1.088-1.136c.267-.501.4-1.083.4-1.744Zm7.705-4.528c1.067 0 1.931.325 2.592.976.661.64.992 1.568.992 2.784V13h-1.44V8.04c0-.875-.219-1.541-.656-2-.437-.47-1.035-.704-1.792-.704-.768 0-1.381.24-1.84.72-.448.48-.672 1.179-.672 2.096V13h-1.456V4.232h1.456V5.48a2.9 2.9 0 0 1 1.168-1.04 3.698 3.698 0 0 1 1.648-.368Zm4.918 4.512c0-.896.182-1.68.544-2.352a3.956 3.956 0 0 1 1.488-1.584 4.177 4.177 0 0 1 2.144-.56c.683 0 1.318.16 1.904.48.587.31 1.035.72 1.344 1.232V1.16h1.472V13h-1.472v-1.648c-.288.523-.714.955-1.28 1.296-.565.33-1.226.496-1.984.496a4.059 4.059 0 0 1-2.128-.576 4.045 4.045 0 0 1-1.488-1.616c-.362-.693-.544-1.483-.544-2.368Zm7.424.016c0-.661-.133-1.237-.4-1.728a2.747 2.747 0 0 0-1.088-1.12 2.854 2.854 0 0 0-1.488-.4c-.544 0-1.04.128-1.488.384-.448.256-.805.63-1.072 1.12-.266.49-.4 1.067-.4 1.728 0 .672.134 1.259.4 1.76.267.49.624.87 1.072 1.136.448.256.944.384 1.488.384s1.04-.128 1.488-.384a2.857 2.857 0 0 0 1.088-1.136c.267-.501.4-1.083.4-1.744Zm4.889-7.44V13h-1.456V1.16h1.456Zm9.981 7.12c0 .277-.016.57-.048.88h-7.008c.054.864.347 1.541.88 2.032.544.48 1.2.72 1.968.72.63 0 1.152-.144 1.568-.432.427-.299.726-.693.896-1.184h1.568a3.804 3.804 0 0 1-1.408 2.064c-.704.523-1.578.784-2.624.784-.832 0-1.578-.187-2.24-.56A4.001 4.001 0 0 1 139.944 11c-.373-.693-.56-1.493-.56-2.4 0-.907.182-1.701.544-2.384a3.787 3.787 0 0 1 1.52-1.568c.662-.373 1.419-.56 2.272-.56.832 0 1.568.181 2.208.544a3.7 3.7 0 0 1 1.472 1.504c.352.63.528 1.344.528 2.144Zm-1.504-.304c0-.555-.122-1.03-.368-1.424a2.312 2.312 0 0 0-1.008-.912 3.006 3.006 0 0 0-1.392-.32c-.736 0-1.365.235-1.888.704-.512.47-.805 1.12-.88 1.952h5.536Zm17.236-3.904c.682 0 1.29.144 1.824.432.533.277.954.699 1.264 1.264.309.565.464 1.253.464 2.064V13h-1.44V8.04c0-.875-.219-1.541-.656-2-.427-.47-1.008-.704-1.744-.704-.758 0-1.36.245-1.808.736-.448.48-.672 1.179-.672 2.096V13h-1.44V8.04c0-.875-.219-1.541-.656-2-.427-.47-1.008-.704-1.744-.704-.758 0-1.36.245-1.808.736-.448.48-.672 1.179-.672 2.096V13h-1.456V4.232h1.456v1.264a2.89 2.89 0 0 1 1.152-1.056 3.56 3.56 0 0 1 1.616-.368c.736 0 1.386.165 1.952.496.565.33.986.816 1.264 1.456a2.87 2.87 0 0 1 1.216-1.44 3.58 3.58 0 0 1 1.888-.512Zm4.896 4.512c0-.896.181-1.68.544-2.352a3.956 3.956 0 0 1 1.488-1.584 4.145 4.145 0 0 1 2.128-.56c.768 0 1.435.165 2 .496.565.33.987.747 1.264 1.248v-1.6h1.472V13h-1.472v-1.632c-.288.512-.72.939-1.296 1.28-.565.33-1.227.496-1.984.496a3.973 3.973 0 0 1-2.112-.576 4.045 4.045 0 0 1-1.488-1.616c-.363-.693-.544-1.483-.544-2.368Zm7.424.016c0-.661-.133-1.237-.4-1.728a2.754 2.754 0 0 0-1.088-1.12 2.854 2.854 0 0 0-1.488-.4c-.544 0-1.04.128-1.488.384-.448.256-.805.63-1.072 1.12-.267.49-.4 1.067-.4 1.728 0 .672.133 1.259.4 1.76.267.49.624.87 1.072 1.136.448.256.944.384 1.488.384s1.04-.128 1.488-.384a2.864 2.864 0 0 0 1.088-1.136c.267-.501.4-1.083.4-1.744Zm2.889-.016c0-.896.181-1.68.544-2.352a3.943 3.943 0 0 1 1.488-1.584 4.175 4.175 0 0 1 2.144-.56c.682 0 1.317.16 1.904.48.586.31 1.034.72 1.344 1.232V1.16h1.472V13h-1.472v-1.648c-.288.523-.715.955-1.28 1.296-.566.33-1.227.496-1.984.496a4.056 4.056 0 0 1-2.128-.576 4.03 4.03 0 0 1-1.488-1.616c-.363-.693-.544-1.483-.544-2.368Zm7.424.016c0-.661-.134-1.237-.4-1.728a2.76 2.76 0 0 0-1.088-1.12 2.854 2.854 0 0 0-1.488-.4c-.544 0-1.04.128-1.488.384-.448.256-.806.63-1.072 1.12-.267.49-.4 1.067-.4 1.728 0 .672.133 1.259.4 1.76.266.49.624.87 1.072 1.136.448.256.944.384 1.488.384s1.04-.128 1.488-.384a2.87 2.87 0 0 0 1.088-1.136c.266-.501.4-1.083.4-1.744Zm11.432-.32c0 .277-.016.57-.048.88h-7.008c.053.864.347 1.541.88 2.032.544.48 1.2.72 1.968.72.629 0 1.152-.144 1.568-.432.427-.299.725-.693.896-1.184h1.568a3.81 3.81 0 0 1-1.408 2.064c-.704.523-1.579.784-2.624.784-.832 0-1.579-.187-2.24-.56A3.988 3.988 0 0 1 189.741 11c-.373-.693-.56-1.493-.56-2.4 0-.907.181-1.701.544-2.384a3.781 3.781 0 0 1 1.52-1.568c.661-.373 1.419-.56 2.272-.56.832 0 1.568.181 2.208.544a3.7 3.7 0 0 1 1.472 1.504c.352.63.528 1.344.528 2.144Zm-1.504-.304c0-.555-.123-1.03-.368-1.424a2.312 2.312 0 0 0-1.008-.912 3.006 3.006 0 0 0-1.392-.32c-.736 0-1.365.235-1.888.704-.512.47-.805 1.12-.88 1.952h5.536Zm10.26-2.544h-1.84V13h-1.456V5.432h-1.136v-1.2h1.136v-.624c0-.981.25-1.696.752-2.144.512-.459 1.328-.688 2.448-.688v1.216c-.64 0-1.094.128-1.36.384-.256.245-.384.656-.384 1.232v.624h1.84v1.2Zm5.021 7.712a4.535 4.535 0 0 1-2.24-.56A4.072 4.072 0 0 1 207.694 11c-.373-.693-.56-1.493-.56-2.4 0-.896.192-1.685.576-2.368a4.01 4.01 0 0 1 1.6-1.584c.672-.373 1.424-.56 2.256-.56.832 0 1.584.187 2.256.56.672.363 1.2.885 1.584 1.568.395.683.592 1.477.592 2.384 0 .907-.202 1.707-.608 2.4a4.112 4.112 0 0 1-1.616 1.584c-.682.373-1.44.56-2.272.56Zm0-1.28c.523 0 1.014-.123 1.472-.368a2.744 2.744 0 0 0 1.104-1.104c.288-.49.432-1.088.432-1.792s-.138-1.301-.416-1.792c-.277-.49-.64-.853-1.088-1.088a2.982 2.982 0 0 0-1.456-.368c-.533 0-1.024.123-1.472.368-.437.235-.789.597-1.056 1.088-.266.49-.4 1.088-.4 1.792 0 .715.128 1.317.384 1.808.267.49.619.859 1.056 1.104a3 3 0 0 0 1.44.352Zm7.367-6.208a2.81 2.81 0 0 1 1.088-1.168c.48-.277 1.061-.416 1.744-.416v1.504h-.384c-1.632 0-2.448.885-2.448 2.656V13h-1.456V4.232h1.456v1.424Zm15.33-1.424-5.28 12.896h-1.504l1.728-4.224-3.536-8.672h1.616l2.752 7.104 2.72-7.104h1.504Zm4.788 8.912a4.532 4.532 0 0 1-2.24-.56A4.065 4.065 0 0 1 235.179 11c-.374-.693-.56-1.493-.56-2.4 0-.896.192-1.685.576-2.368a4.005 4.005 0 0 1 1.6-1.584c.672-.373 1.424-.56 2.256-.56.832 0 1.584.187 2.256.56.672.363 1.2.885 1.584 1.568.394.683.592 1.477.592 2.384 0 .907-.203 1.707-.608 2.4a4.125 4.125 0 0 1-1.616 1.584c-.683.373-1.44.56-2.272.56Zm0-1.28c.522 0 1.013-.123 1.472-.368a2.756 2.756 0 0 0 1.104-1.104c.288-.49.432-1.088.432-1.792s-.139-1.301-.416-1.792c-.278-.49-.64-.853-1.088-1.088a2.985 2.985 0 0 0-1.456-.368c-.534 0-1.024.123-1.472.368-.438.235-.79.597-1.056 1.088-.267.49-.4 1.088-.4 1.792 0 .715.128 1.317.384 1.808.266.49.618.859 1.056 1.104.437.235.917.352 1.44.352Zm13.686-7.632V13h-1.456v-1.296c-.277.448-.667.8-1.168 1.056a3.6 3.6 0 0 1-1.632.368c-.683 0-1.296-.139-1.84-.416a3.184 3.184 0 0 1-1.296-1.28c-.309-.565-.464-1.253-.464-2.064V4.232h1.44v4.944c0 .864.219 1.53.656 2 .437.459 1.035.688 1.792.688.779 0 1.392-.24 1.84-.72.448-.48.672-1.179.672-2.096V4.232h1.456Zm3.414 1.424a2.81 2.81 0 0 1 1.088-1.168c.48-.277 1.062-.416 1.744-.416v1.504h-.384c-1.632 0-2.448.885-2.448 2.656V13h-1.456V4.232h1.456v1.424Zm12.131-1.584c.661 0 1.258.144 1.792.432a2.92 2.92 0 0 1 1.248 1.264c.309.565.464 1.253.464 2.064V13h-1.44V8.04c0-.875-.219-1.541-.656-2-.438-.47-1.035-.704-1.792-.704-.768 0-1.382.24-1.84.72-.448.48-.672 1.179-.672 2.096V13h-1.456V1.16h1.456v4.32a2.875 2.875 0 0 1 1.184-1.04 3.909 3.909 0 0 1 1.712-.368Zm9.206 9.072a4.535 4.535 0 0 1-2.24-.56A4.072 4.072 0 0 1 273.616 11c-.373-.693-.56-1.493-.56-2.4 0-.896.192-1.685.576-2.368a4.01 4.01 0 0 1 1.6-1.584c.672-.373 1.424-.56 2.256-.56.832 0 1.584.187 2.256.56.672.363 1.2.885 1.584 1.568.395.683.592 1.477.592 2.384 0 .907-.203 1.707-.608 2.4a4.118 4.118 0 0 1-1.616 1.584c-.683.373-1.44.56-2.272.56Zm0-1.28c.523 0 1.013-.123 1.472-.368A2.744 2.744 0 0 0 280 10.392c.288-.49.432-1.088.432-1.792s-.139-1.301-.416-1.792c-.277-.49-.64-.853-1.088-1.088a2.982 2.982 0 0 0-1.456-.368c-.533 0-1.024.123-1.472.368-.437.235-.789.597-1.056 1.088-.267.49-.4 1.088-.4 1.792 0 .715.128 1.317.384 1.808.267.49.619.859 1.056 1.104.437.235.917.352 1.44.352Zm16.455-7.792c.682 0 1.29.144 1.824.432.533.277.954.699 1.264 1.264.309.565.464 1.253.464 2.064V13h-1.44V8.04c0-.875-.219-1.541-.656-2-.427-.47-1.008-.704-1.744-.704-.758 0-1.36.245-1.808.736-.448.48-.672 1.179-.672 2.096V13h-1.44V8.04c0-.875-.219-1.541-.656-2-.427-.47-1.008-.704-1.744-.704-.758 0-1.36.245-1.808.736-.448.48-.672 1.179-.672 2.096V13h-1.456V4.232h1.456v1.264a2.89 2.89 0 0 1 1.152-1.056 3.56 3.56 0 0 1 1.616-.368c.736 0 1.386.165 1.952.496.565.33.986.816 1.264 1.456a2.87 2.87 0 0 1 1.216-1.44 3.58 3.58 0 0 1 1.888-.512Zm13.44 4.208c0 .277-.016.57-.048.88h-7.008c.053.864.347 1.541.88 2.032.544.48 1.2.72 1.968.72.629 0 1.152-.144 1.568-.432.427-.299.725-.693.896-1.184h1.568a3.81 3.81 0 0 1-1.408 2.064c-.704.523-1.579.784-2.624.784-.832 0-1.579-.187-2.24-.56A3.988 3.988 0 0 1 299.335 11c-.373-.693-.56-1.493-.56-2.4 0-.907.181-1.701.544-2.384a3.781 3.781 0 0 1 1.52-1.568c.661-.373 1.419-.56 2.272-.56.832 0 1.568.181 2.208.544a3.7 3.7 0 0 1 1.472 1.504c.352.63.528 1.344.528 2.144Zm-1.504-.304c0-.555-.123-1.03-.368-1.424a2.312 2.312 0 0 0-1.008-.912 3.006 3.006 0 0 0-1.392-.32c-.736 0-1.365.235-1.888.704-.512.47-.805 1.12-.88 1.952h5.536Zm6.147.608c0-.896.182-1.68.544-2.352a3.956 3.956 0 0 1 1.488-1.584 4.15 4.15 0 0 1 2.128-.56c.768 0 1.435.165 2 .496.566.33.987.747 1.264 1.248v-1.6h1.472V13h-1.472v-1.632c-.288.512-.72.939-1.296 1.28-.565.33-1.226.496-1.984.496a3.978 3.978 0 0 1-2.112-.576 4.045 4.045 0 0 1-1.488-1.616c-.362-.693-.544-1.483-.544-2.368Zm7.424.016c0-.661-.133-1.237-.4-1.728a2.747 2.747 0 0 0-1.088-1.12 2.854 2.854 0 0 0-1.488-.4c-.544 0-1.04.128-1.488.384-.448.256-.805.63-1.072 1.12-.266.49-.4 1.067-.4 1.728 0 .672.134 1.259.4 1.76.267.49.624.87 1.072 1.136.448.256.944.384 1.488.384s1.04-.128 1.488-.384a2.857 2.857 0 0 0 1.088-1.136c.267-.501.4-1.083.4-1.744Zm7.705-4.528c1.067 0 1.931.325 2.592.976.661.64.992 1.568.992 2.784V13h-1.44V8.04c0-.875-.219-1.541-.656-2-.437-.47-1.035-.704-1.792-.704-.768 0-1.381.24-1.84.72-.448.48-.672 1.179-.672 2.096V13h-1.456V4.232h1.456V5.48a2.9 2.9 0 0 1 1.168-1.04 3.698 3.698 0 0 1 1.648-.368Zm4.918 4.512c0-.896.182-1.68.544-2.352a3.956 3.956 0 0 1 1.488-1.584 4.177 4.177 0 0 1 2.144-.56c.683 0 1.318.16 1.904.48.587.31 1.035.72 1.344 1.232V1.16h1.472V13h-1.472v-1.648c-.288.523-.714.955-1.28 1.296-.565.33-1.226.496-1.984.496a4.059 4.059 0 0 1-2.128-.576 4.045 4.045 0 0 1-1.488-1.616c-.362-.693-.544-1.483-.544-2.368Zm7.424.016c0-.661-.133-1.237-.4-1.728a2.747 2.747 0 0 0-1.088-1.12 2.854 2.854 0 0 0-1.488-.4c-.544 0-1.04.128-1.488.384-.448.256-.805.63-1.072 1.12-.266.49-.4 1.067-.4 1.728 0 .672.134 1.259.4 1.76.267.49.624.87 1.072 1.136.448.256.944.384 1.488.384s1.04-.128 1.488-.384a2.857 2.857 0 0 0 1.088-1.136c.267-.501.4-1.083.4-1.744ZM4.84 28.432H3V36H1.544v-7.568H.408v-1.2h1.136v-.624c0-.981.25-1.696.752-2.144.512-.459 1.328-.688 2.448-.688v1.216c-.64 0-1.093.128-1.36.384-.256.245-.384.656-.384 1.232v.624h1.84v1.2Zm5.022 7.712a4.534 4.534 0 0 1-2.24-.56A4.07 4.07 0 0 1 6.054 34c-.374-.693-.56-1.493-.56-2.4 0-.896.192-1.685.576-2.368a4.01 4.01 0 0 1 1.6-1.584c.672-.373 1.424-.56 2.256-.56.832 0 1.584.187 2.256.56.672.363 1.2.885 1.584 1.568.394.683.592 1.477.592 2.384 0 .907-.203 1.707-.608 2.4a4.12 4.12 0 0 1-1.616 1.584c-.683.373-1.44.56-2.272.56Zm0-1.28c.522 0 1.013-.123 1.472-.368a2.749 2.749 0 0 0 1.104-1.104c.288-.49.432-1.088.432-1.792s-.139-1.301-.416-1.792c-.278-.49-.64-.853-1.088-1.088a2.983 2.983 0 0 0-1.456-.368c-.534 0-1.024.123-1.472.368-.438.235-.79.597-1.056 1.088-.267.49-.4 1.088-.4 1.792 0 .715.128 1.317.384 1.808.266.49.618.859 1.056 1.104.437.235.917.352 1.44.352Zm7.366-6.208c.256-.501.619-.89 1.088-1.168.48-.277 1.061-.416 1.744-.416v1.504h-.384c-1.632 0-2.448.885-2.448 2.656V36h-1.456v-8.768h1.456v1.424Zm15.33-1.424-5.28 12.896h-1.504l1.728-4.224-3.536-8.672h1.616l2.752 7.104 2.72-7.104h1.504Zm4.788 8.912a4.534 4.534 0 0 1-2.24-.56A4.07 4.07 0 0 1 33.538 34c-.373-.693-.56-1.493-.56-2.4 0-.896.192-1.685.576-2.368a4.01 4.01 0 0 1 1.6-1.584c.672-.373 1.424-.56 2.256-.56.832 0 1.584.187 2.256.56.672.363 1.2.885 1.584 1.568.395.683.592 1.477.592 2.384 0 .907-.203 1.707-.608 2.4a4.118 4.118 0 0 1-1.616 1.584c-.683.373-1.44.56-2.272.56Zm0-1.28c.523 0 1.013-.123 1.472-.368a2.748 2.748 0 0 0 1.104-1.104c.288-.49.432-1.088.432-1.792s-.139-1.301-.416-1.792c-.277-.49-.64-.853-1.088-1.088a2.983 2.983 0 0 0-1.456-.368c-.533 0-1.024.123-1.472.368-.437.235-.79.597-1.056 1.088-.267.49-.4 1.088-.4 1.792 0 .715.128 1.317.384 1.808.267.49.619.859 1.056 1.104.437.235.917.352 1.44.352Zm13.686-7.632V36h-1.456v-1.296c-.277.448-.666.8-1.168 1.056a3.598 3.598 0 0 1-1.632.368c-.682 0-1.296-.139-1.84-.416a3.184 3.184 0 0 1-1.296-1.28c-.309-.565-.464-1.253-.464-2.064v-5.136h1.44v4.944c0 .864.22 1.53.656 2 .438.459 1.035.688 1.792.688.78 0 1.392-.24 1.84-.72.448-.48.672-1.179.672-2.096v-4.816h1.456Zm3.415 1.424a2.81 2.81 0 0 1 1.088-1.168c.48-.277 1.061-.416 1.744-.416v1.504h-.384c-1.632 0-2.448.885-2.448 2.656V36H52.99v-8.768h1.456v1.424Zm19.458-1.424L71.17 36h-1.504l-2.112-6.96L65.441 36h-1.504l-2.752-8.768h1.488l2.016 7.36 2.176-7.36h1.488l2.128 7.376 1.984-7.376h1.44Zm8.945 4.048c0 .277-.016.57-.048.88h-7.008c.053.864.347 1.541.88 2.032.544.48 1.2.72 1.968.72.63 0 1.152-.144 1.568-.432.427-.299.726-.693.896-1.184h1.568a3.808 3.808 0 0 1-1.408 2.064c-.704.523-1.579.784-2.624.784-.832 0-1.578-.187-2.24-.56A3.992 3.992 0 0 1 74.866 34c-.373-.693-.56-1.493-.56-2.4 0-.907.181-1.701.544-2.384a3.78 3.78 0 0 1 1.52-1.568c.661-.373 1.419-.56 2.272-.56.832 0 1.568.181 2.208.544a3.7 3.7 0 0 1 1.472 1.504c.352.63.528 1.344.528 2.144Zm-1.504-.304c0-.555-.123-1.03-.368-1.424a2.317 2.317 0 0 0-1.008-.912 3.006 3.006 0 0 0-1.392-.32c-.736 0-1.365.235-1.888.704-.512.47-.805 1.12-.88 1.952h5.536Zm4.382-6.816V36h-1.456V24.16h1.456Zm3.438 0V36H87.71V24.16h1.456Zm6.253 2.912c1.067 0 1.93.325 2.592.976.661.64.992 1.568.992 2.784V36h-1.44v-4.96c0-.875-.219-1.541-.656-2-.437-.47-1.035-.704-1.792-.704-.768 0-1.381.24-1.84.72-.448.48-.672 1.179-.672 2.096V36h-1.456v-8.768h1.456v1.248a2.903 2.903 0 0 1 1.168-1.04 3.699 3.699 0 0 1 1.648-.368Zm13.462 4.208c0 .277-.016.57-.048.88h-7.008c.054.864.347 1.541.88 2.032.544.48 1.2.72 1.968.72.63 0 1.152-.144 1.568-.432.427-.299.726-.693.896-1.184h1.568a3.804 3.804 0 0 1-1.408 2.064c-.704.523-1.578.784-2.624.784-.832 0-1.578-.187-2.24-.56A4.001 4.001 0 0 1 100.897 34c-.373-.693-.56-1.493-.56-2.4 0-.907.182-1.701.544-2.384a3.787 3.787 0 0 1 1.52-1.568c.662-.373 1.419-.56 2.272-.56.832 0 1.568.181 2.208.544a3.7 3.7 0 0 1 1.472 1.504c.352.63.528 1.344.528 2.144Zm-1.504-.304c0-.555-.122-1.03-.368-1.424a2.313 2.313 0 0 0-1.008-.912 3.006 3.006 0 0 0-1.392-.32c-.736 0-1.365.235-1.888.704-.512.47-.805 1.12-.88 1.952h5.536Zm6.03 5.168c-.672 0-1.274-.112-1.808-.336-.533-.235-.954-.555-1.264-.96a2.598 2.598 0 0 1-.512-1.424h1.504c.043.437.246.795.608 1.072.374.277.859.416 1.456.416.555 0 .992-.123 1.312-.368.32-.245.48-.555.48-.928a.897.897 0 0 0-.512-.848c-.341-.192-.869-.379-1.584-.56-.65-.17-1.184-.341-1.6-.512a3.044 3.044 0 0 1-1.056-.784c-.288-.352-.432-.81-.432-1.376 0-.448.134-.859.4-1.232.267-.373.646-.667 1.136-.88.491-.224 1.051-.336 1.68-.336.971 0 1.755.245 2.352.736.598.49.918 1.163.96 2.016h-1.456a1.492 1.492 0 0 0-.56-1.104c-.33-.277-.778-.416-1.344-.416-.522 0-.938.112-1.248.336-.309.224-.464.517-.464.88 0 .288.091.528.272.72.192.181.427.33.704.448.288.107.683.23 1.184.368.63.17 1.142.341 1.536.512.395.16.731.405 1.008.736.288.33.438.763.448 1.296 0 .48-.133.912-.4 1.296-.266.384-.645.688-1.136.912-.48.213-1.034.32-1.664.32Zm7.86 0c-.672 0-1.275-.112-1.808-.336-.534-.235-.955-.555-1.264-.96a2.59 2.59 0 0 1-.512-1.424h1.504c.042.437.245.795.608 1.072.373.277.858.416 1.456.416.554 0 .992-.123 1.312-.368.32-.245.48-.555.48-.928 0-.384-.171-.667-.512-.848-.342-.192-.87-.379-1.584-.56a13.017 13.017 0 0 1-1.6-.512 3.026 3.026 0 0 1-1.056-.784c-.288-.352-.432-.81-.432-1.376 0-.448.133-.859.4-1.232.266-.373.645-.667 1.136-.88.49-.224 1.05-.336 1.68-.336.97 0 1.754.245 2.352.736.597.49.917 1.163.96 2.016h-1.456a1.495 1.495 0 0 0-.56-1.104c-.331-.277-.779-.416-1.344-.416-.523 0-.939.112-1.248.336-.31.224-.464.517-.464.88 0 .288.09.528.272.72.192.181.426.33.704.448.288.107.682.23 1.184.368.629.17 1.141.341 1.536.512.394.16.73.405 1.008.736.288.33.437.763.448 1.296 0 .48-.134.912-.4 1.296-.267.384-.646.688-1.136.912-.48.213-1.035.32-1.664.32Zm5.219-.048a.958.958 0 0 1-.704-.288.958.958 0 0 1-.288-.704c0-.277.096-.512.288-.704a.958.958 0 0 1 .704-.288c.267 0 .491.096.672.288a.958.958 0 0 1 .288.704.958.958 0 0 1-.288.704.886.886 0 0 1-.672.288Z" fill="#fff"/></svg>