<svg width="346" height="39" fill="none" xmlns="http://www.w3.org/2000/svg"><path d="M34.08 3.88V15h-1.824v-4.864h-5.232V15H25.2V3.88h1.824v4.768h5.232V3.88h1.824Zm10.337 2.304-5.408 12.96h-1.888l1.792-4.288-3.472-8.672h2.032l2.48 6.72 2.576-6.72h1.888Zm3.2 1.296c.31-.405.731-.747 1.265-1.024.533-.277 1.136-.416 1.808-.416.768 0 1.466.192 2.096.576.64.373 1.141.901 1.504 1.584.362.683.544 1.467.544 2.352 0 .885-.182 1.68-.544 2.384a4.117 4.117 0 0 1-1.504 1.632 3.946 3.946 0 0 1-2.096.576c-.672 0-1.27-.133-1.792-.4a4.11 4.11 0 0 1-1.28-1.024v5.472h-1.824V6.184h1.824V7.48Zm5.36 3.072c0-.608-.127-1.13-.383-1.568a2.443 2.443 0 0 0-.992-1.008 2.575 2.575 0 0 0-1.312-.352c-.459 0-.896.117-1.312.352A2.696 2.696 0 0 0 47.986 9c-.246.448-.368.976-.368 1.584 0 .608.122 1.141.368 1.6.256.448.586.79.992 1.024a2.627 2.627 0 0 0 2.624 0c.416-.245.746-.597.992-1.056.256-.459.384-.992.384-1.6Zm8.22-4.512c.672 0 1.27.144 1.792.432.534.288.95.715 1.248 1.28.31.565.465 1.248.465 2.048V15h-1.808v-4.928c0-.79-.198-1.392-.593-1.808-.394-.427-.933-.64-1.616-.64-.682 0-1.226.213-1.632.64-.394.416-.591 1.019-.591 1.808V15h-1.825V3.16h1.825v4.048a3.074 3.074 0 0 1 1.167-.864 3.99 3.99 0 0 1 1.569-.304Zm9.655 9.104c-.832 0-1.584-.187-2.256-.56a4.151 4.151 0 0 1-1.584-1.6c-.384-.693-.576-1.493-.576-2.4 0-.896.197-1.69.592-2.384a4.09 4.09 0 0 1 1.616-1.6c.683-.373 1.445-.56 2.288-.56.843 0 1.605.187 2.288.56a4.088 4.088 0 0 1 1.616 1.6c.395.693.592 1.488.592 2.384 0 .896-.203 1.69-.608 2.384a4.252 4.252 0 0 1-1.664 1.616 4.781 4.781 0 0 1-2.304.56Zm0-1.584c.47 0 .907-.112 1.312-.336.416-.224.752-.56 1.008-1.008.256-.448.384-.992.384-1.632 0-.64-.123-1.179-.368-1.616a2.472 2.472 0 0 0-.976-1.008 2.669 2.669 0 0 0-1.312-.336c-.47 0-.907.112-1.312.336-.394.224-.71.56-.944 1.008-.235.437-.352.976-.352 1.616 0 .95.24 1.685.72 2.208.49.512 1.104.768 1.84.768Zm5.771-3.008c0-.885.182-1.67.544-2.352a4.062 4.062 0 0 1 3.616-2.16c.694 0 1.296.139 1.808.416.523.267.939.603 1.248 1.008v-1.28h1.84V15h-1.84v-1.312c-.31.416-.73.763-1.264 1.04-.533.277-1.141.416-1.824.416a3.92 3.92 0 0 1-2.08-.576 4.275 4.275 0 0 1-1.504-1.632c-.362-.704-.544-1.499-.544-2.384Zm7.216.032c0-.608-.128-1.136-.384-1.584a2.585 2.585 0 0 0-.976-1.024 2.575 2.575 0 0 0-1.312-.352c-.47 0-.906.117-1.312.352a2.58 2.58 0 0 0-.992 1.008c-.245.437-.368.96-.368 1.568 0 .608.123 1.141.368 1.6.256.459.587.81.992 1.056a2.63 2.63 0 0 0 2.624 0c.406-.235.73-.576.976-1.024.256-.459.384-.992.384-1.6ZM89.9 3.16V15h-1.824V3.16H89.9Zm4.219 0V15h-1.824V3.16h1.824Zm10.475 7.216c0 .33-.022.63-.064.896h-6.736c.053.704.314 1.27.783 1.696.47.427 1.046.64 1.729.64.981 0 1.674-.41 2.08-1.232h1.967a3.992 3.992 0 0 1-1.455 2c-.694.512-1.558.768-2.592.768-.843 0-1.6-.187-2.273-.56a4.185 4.185 0 0 1-1.567-1.6c-.374-.693-.56-1.493-.56-2.4 0-.907.18-1.701.543-2.384a3.936 3.936 0 0 1 1.553-1.6c.671-.373 1.44-.56 2.304-.56.832 0 1.573.181 2.224.544a3.84 3.84 0 0 1 1.52 1.536c.362.65.544 1.403.544 2.256ZM102.69 9.8c-.011-.672-.251-1.21-.72-1.616-.47-.405-1.051-.608-1.744-.608-.63 0-1.168.203-1.616.608-.448.395-.715.933-.8 1.616h4.88Zm5.523-2.336a2.812 2.812 0 0 1 1.056-1.04c.448-.256.976-.384 1.584-.384v1.888h-.464c-.715 0-1.259.181-1.632.544-.363.363-.544.992-.544 1.888V15h-1.824V6.184h1.824v1.28Zm7.868-1.424c.683 0 1.285.139 1.808.416.533.267.949.603 1.248 1.008v-1.28h1.84v8.96c0 .81-.171 1.53-.512 2.16a3.67 3.67 0 0 1-1.488 1.504c-.64.363-1.408.544-2.304.544-1.195 0-2.187-.283-2.976-.848-.789-.555-1.237-1.312-1.344-2.272h1.808c.139.459.432.827.88 1.104.459.288 1.003.432 1.632.432.736 0 1.328-.224 1.776-.672.459-.448.688-1.099.688-1.952v-1.472c-.309.416-.731.768-1.264 1.056-.523.277-1.12.416-1.792.416a4.028 4.028 0 0 1-2.112-.576 4.275 4.275 0 0 1-1.504-1.632c-.363-.704-.544-1.499-.544-2.384 0-.885.181-1.67.544-2.352a4.063 4.063 0 0 1 3.616-2.16Zm3.056 4.544c0-.608-.128-1.136-.384-1.584a2.584 2.584 0 0 0-.976-1.024 2.574 2.574 0 0 0-1.312-.352c-.469 0-.907.117-1.312.352a2.58 2.58 0 0 0-.992 1.008c-.245.437-.368.96-.368 1.568 0 .608.123 1.141.368 1.6.256.459.587.81.992 1.056a2.63 2.63 0 0 0 1.312.352c.469 0 .907-.117 1.312-.352s.731-.576.976-1.024c.256-.459.384-.992.384-1.6Zm12.316-.208c0 .33-.021.63-.064.896h-6.736c.053.704.315 1.27.784 1.696.469.427 1.045.64 1.728.64.981 0 1.675-.41 2.08-1.232h1.968a4 4 0 0 1-1.456 2c-.693.512-1.557.768-2.592.768-.843 0-1.6-.187-2.272-.56a4.187 4.187 0 0 1-1.568-1.6c-.373-.693-.56-1.493-.56-2.4 0-.907.181-1.701.544-2.384a3.936 3.936 0 0 1 1.552-1.6c.672-.373 1.44-.56 2.304-.56.832 0 1.573.181 2.224.544a3.83 3.83 0 0 1 1.52 1.536c.363.65.544 1.403.544 2.256Zm-1.904-.576c-.011-.672-.251-1.21-.72-1.616-.469-.405-1.051-.608-1.744-.608-.629 0-1.168.203-1.616.608-.448.395-.715.933-.8 1.616h4.88Zm8.147-3.76c.693 0 1.312.144 1.856.432.555.288.987.715 1.296 1.28.309.565.464 1.248.464 2.048V15h-1.808v-4.928c0-.79-.197-1.392-.592-1.808-.395-.427-.933-.64-1.616-.64s-1.227.213-1.632.64c-.395.416-.592 1.019-.592 1.808V15h-1.824V6.184h1.824v1.008a3.033 3.033 0 0 1 1.136-.848 3.711 3.711 0 0 1 1.488-.304Zm6.871-1.024a1.13 1.13 0 0 1-.832-.336 1.13 1.13 0 0 1-.336-.832c0-.33.112-.608.336-.832a1.13 1.13 0 0 1 .832-.336c.32 0 .592.112.816.336.224.224.336.501.336.832 0 .33-.112.608-.336.832a1.11 1.11 0 0 1-.816.336Zm.896 1.168V15h-1.824V6.184h1.824Zm1.786 4.4c0-.907.182-1.701.544-2.384a3.976 3.976 0 0 1 1.536-1.6c.651-.373 1.398-.56 2.24-.56 1.067 0 1.947.256 2.64.768.704.501 1.179 1.221 1.424 2.16h-1.968a2.081 2.081 0 0 0-.768-1.024c-.352-.245-.794-.368-1.328-.368-.746 0-1.344.267-1.792.8-.437.523-.656 1.259-.656 2.208 0 .95.219 1.69.656 2.224.448.533 1.046.8 1.792.8 1.056 0 1.755-.464 2.096-1.392h1.968c-.256.896-.736 1.61-1.44 2.144-.704.523-1.578.784-2.624.784-.842 0-1.589-.187-2.24-.56a4.115 4.115 0 0 1-1.536-1.6c-.362-.693-.544-1.493-.544-2.4Zm10.938 4.528a1.13 1.13 0 0 1-.832-.336 1.13 1.13 0 0 1-.336-.832c0-.33.112-.608.336-.832a1.13 1.13 0 0 1 .832-.336c.32 0 .592.112.816.336.224.224.336.501.336.832 0 .33-.112.608-.336.832a1.11 1.11 0 0 1-.816.336Zm0-6.72a1.13 1.13 0 0 1-.832-.336 1.13 1.13 0 0 1-.336-.832c0-.33.112-.608.336-.832a1.13 1.13 0 0 1 .832-.336c.32 0 .592.112.816.336.224.224.336.501.336.832 0 .33-.112.608-.336.832a1.11 1.11 0 0 1-.816.336Zm6.75-3.632V3.432h3.008V15h-1.472V4.76h-1.536Zm5.509 4.336c0-1.835.299-3.264.896-4.288.597-1.035 1.643-1.552 3.136-1.552 1.483 0 2.523.517 3.12 1.552.597 1.024.896 2.453.896 4.288 0 1.867-.299 3.317-.896 4.352C177 14.483 175.96 15 174.477 15c-1.493 0-2.539-.517-3.136-1.552-.597-1.035-.896-2.485-.896-4.352Zm6.608 0c0-.928-.064-1.712-.192-2.352-.117-.65-.368-1.173-.752-1.568-.373-.395-.917-.592-1.632-.592-.725 0-1.28.197-1.664.592-.373.395-.624.917-.752 1.568-.117.64-.176 1.424-.176 2.352 0 .96.059 1.765.176 2.416.128.65.379 1.173.752 1.568.384.395.939.592 1.664.592.715 0 1.259-.197 1.632-.592.384-.395.635-.917.752-1.568.128-.65.192-1.456.192-2.416Zm3.439 0c0-1.835.299-3.264.896-4.288.597-1.035 1.643-1.552 3.136-1.552 1.483 0 2.523.517 3.12 1.552.597 1.024.896 2.453.896 4.288 0 1.867-.299 3.317-.896 4.352-.597 1.035-1.637 1.552-3.12 1.552-1.493 0-2.539-.517-3.136-1.552-.597-1.035-.896-2.485-.896-4.352Zm6.608 0c0-.928-.064-1.712-.192-2.352-.117-.65-.368-1.173-.752-1.568-.373-.395-.917-.592-1.632-.592-.725 0-1.28.197-1.664.592-.373.395-.624.917-.752 1.568-.117.64-.176 1.424-.176 2.352 0 .96.059 1.765.176 2.416.128.65.379 1.173.752 1.568.384.395.939.592 1.664.592.715 0 1.259-.197 1.632-.592.384-.395.635-.917.752-1.568.128-.65.192-1.456.192-2.416Zm3.119-3.056c0-.725.219-1.301.656-1.728.437-.437.997-.656 1.68-.656.683 0 1.243.219 1.68.656.437.427.656 1.003.656 1.728 0 .736-.219 1.323-.656 1.76-.437.427-.997.64-1.68.64-.683 0-1.243-.213-1.68-.64-.437-.437-.656-1.024-.656-1.76Zm9.344-2.208L193.083 15h-1.44l6.48-11.168h1.44Zm-7.008.72c-.363 0-.651.128-.864.384-.203.245-.304.613-.304 1.104 0 .49.101.864.304 1.12.213.256.501.384.864.384s.651-.128.864-.384c.213-.267.32-.64.32-1.12 0-.49-.107-.859-.32-1.104-.213-.256-.501-.384-.864-.384Zm3.792 8.24c0-.736.219-1.317.656-1.744.437-.437.997-.656 1.68-.656.683 0 1.237.219 1.664.656.437.427.656 1.008.656 1.744 0 .725-.219 1.307-.656 1.744-.427.437-.981.656-1.664.656-.683 0-1.243-.213-1.68-.64-.437-.437-.656-1.024-.656-1.76Zm2.32-1.488c-.363 0-.651.128-.864.384-.213.245-.32.613-.32 1.104 0 .48.107.848.32 1.104.213.245.501.368.864.368s.651-.123.864-.368c.213-.256.32-.624.32-1.104 0-.49-.107-.859-.32-1.104-.213-.256-.501-.384-.864-.384Zm12.79-5.232c1.067 0 1.931.325 2.592.976.661.64.992 1.568.992 2.784V15h-1.44v-4.96c0-.875-.219-1.541-.656-2-.437-.47-1.035-.704-1.792-.704-.768 0-1.381.24-1.84.72-.448.48-.672 1.179-.672 2.096V15h-1.456V6.232h1.456V7.48a2.9 2.9 0 0 1 1.168-1.04 3.698 3.698 0 0 1 1.648-.368Zm5.419 4.512c0-.896.181-1.68.544-2.352a3.943 3.943 0 0 1 1.488-1.584 4.145 4.145 0 0 1 2.128-.56c.768 0 1.434.165 2 .496.565.33.986.747 1.264 1.248v-1.6h1.472V15H224.3v-1.632c-.288.512-.72.939-1.296 1.28-.566.33-1.227.496-1.984.496a3.973 3.973 0 0 1-2.112-.576 4.03 4.03 0 0 1-1.488-1.616c-.363-.693-.544-1.483-.544-2.368Zm7.424.016c0-.661-.134-1.237-.4-1.728a2.76 2.76 0 0 0-1.088-1.12 2.854 2.854 0 0 0-1.488-.4c-.544 0-1.04.128-1.488.384-.448.256-.806.63-1.072 1.12-.267.49-.4 1.067-.4 1.728 0 .672.133 1.259.4 1.76.266.49.624.87 1.072 1.136.448.256.944.384 1.488.384s1.04-.128 1.488-.384a2.87 2.87 0 0 0 1.088-1.136c.266-.501.4-1.083.4-1.744Zm5.708-3.168V12.6c0 .427.091.73.272.912.181.17.496.256.944.256h1.072V15h-1.312c-.811 0-1.419-.187-1.824-.56-.405-.373-.608-.987-.608-1.84V7.432h-1.136v-1.2h1.136V4.024h1.456v2.208h2.288v1.2h-2.288Zm11.828-1.2V15h-1.456v-1.296c-.277.448-.667.8-1.168 1.056a3.6 3.6 0 0 1-1.632.368c-.683 0-1.296-.139-1.84-.416a3.184 3.184 0 0 1-1.296-1.28c-.309-.565-.464-1.253-.464-2.064V6.232h1.44v4.944c0 .864.219 1.53.656 2 .437.459 1.035.688 1.792.688.779 0 1.392-.24 1.84-.72.448-.48.672-1.179.672-2.096V6.232h1.456Zm3.915 1.424a2.81 2.81 0 0 1 1.088-1.168c.48-.277 1.061-.416 1.744-.416v1.504h-.384c-1.632 0-2.448.885-2.448 2.656V15h-1.456V6.232h1.456v1.424Zm3.968 2.928c0-.896.182-1.68.544-2.352a3.956 3.956 0 0 1 1.488-1.584 4.15 4.15 0 0 1 2.128-.56c.768 0 1.435.165 2 .496.566.33.987.747 1.264 1.248v-1.6h1.472V15h-1.472v-1.632c-.288.512-.72.939-1.296 1.28-.565.33-1.226.496-1.984.496a3.978 3.978 0 0 1-2.112-.576 4.045 4.045 0 0 1-1.488-1.616c-.362-.693-.544-1.483-.544-2.368Zm7.424.016c0-.661-.133-1.237-.4-1.728a2.747 2.747 0 0 0-1.088-1.12 2.854 2.854 0 0 0-1.488-.4c-.544 0-1.04.128-1.488.384-.448.256-.805.63-1.072 1.12-.266.49-.4 1.067-.4 1.728 0 .672.134 1.259.4 1.76.267.49.624.87 1.072 1.136.448.256.944.384 1.488.384s1.04-.128 1.488-.384a2.857 2.857 0 0 0 1.088-1.136c.267-.501.4-1.083.4-1.744Zm5.389-7.44V15h-1.456V3.16h1.456Zm3.985 9.824-1.792 4.304h-.976l1.168-4.304h1.6Zm10.286-6.912c.661 0 1.258.144 1.792.432a2.92 2.92 0 0 1 1.248 1.264c.309.565.464 1.253.464 2.064V15h-1.44v-4.96c0-.875-.219-1.541-.656-2-.438-.47-1.035-.704-1.792-.704-.768 0-1.382.24-1.84.72-.448.48-.672 1.179-.672 2.096V15h-1.456V3.16h1.456v4.32a2.875 2.875 0 0 1 1.184-1.04 3.909 3.909 0 0 1 1.712-.368Zm13.658.16V15h-1.456v-1.296c-.277.448-.667.8-1.168 1.056a3.6 3.6 0 0 1-1.632.368c-.683 0-1.296-.139-1.84-.416a3.184 3.184 0 0 1-1.296-1.28c-.309-.565-.464-1.253-.464-2.064V6.232h1.44v4.944c0 .864.219 1.53.656 2 .437.459 1.035.688 1.792.688.779 0 1.392-.24 1.84-.72.448-.48.672-1.179.672-2.096V6.232h1.456Zm13.003-.16c.682 0 1.29.144 1.824.432.533.277.954.699 1.264 1.264.309.565.464 1.253.464 2.064V15h-1.44v-4.96c0-.875-.219-1.541-.656-2-.427-.47-1.008-.704-1.744-.704-.758 0-1.36.245-1.808.736-.448.48-.672 1.179-.672 2.096V15h-1.44v-4.96c0-.875-.219-1.541-.656-2-.427-.47-1.008-.704-1.744-.704-.758 0-1.36.245-1.808.736-.448.48-.672 1.179-.672 2.096V15h-1.456V6.232h1.456v1.264a2.89 2.89 0 0 1 1.152-1.056 3.56 3.56 0 0 1 1.616-.368c.736 0 1.386.165 1.952.496.565.33.986.816 1.264 1.456a2.87 2.87 0 0 1 1.216-1.44 3.58 3.58 0 0 1 1.888-.512Zm5.396 4.512c0-.896.181-1.68.544-2.352a3.956 3.956 0 0 1 1.488-1.584 4.145 4.145 0 0 1 2.128-.56c.768 0 1.435.165 2 .496.565.33.987.747 1.264 1.248v-1.6h1.472V15h-1.472v-1.632c-.288.512-.72.939-1.296 1.28-.565.33-1.227.496-1.984.496a3.973 3.973 0 0 1-2.112-.576 4.045 4.045 0 0 1-1.488-1.616c-.363-.693-.544-1.483-.544-2.368Zm7.424.016c0-.661-.133-1.237-.4-1.728a2.754 2.754 0 0 0-1.088-1.12 2.854 2.854 0 0 0-1.488-.4c-.544 0-1.04.128-1.488.384-.448.256-.805.63-1.072 1.12-.267.49-.4 1.067-.4 1.728 0 .672.133 1.259.4 1.76.267.49.624.87 1.072 1.136.448.256.944.384 1.488.384s1.04-.128 1.488-.384a2.864 2.864 0 0 0 1.088-1.136c.267-.501.4-1.083.4-1.744Zm8.204-4.528c1.067 0 1.931.325 2.592.976.662.64.992 1.568.992 2.784V15h-1.44v-4.96c0-.875-.218-1.541-.656-2-.437-.47-1.034-.704-1.792-.704-.768 0-1.381.24-1.84.72-.448.48-.672 1.179-.672 2.096V15h-1.456V6.232h1.456V7.48a2.907 2.907 0 0 1 1.168-1.04 3.701 3.701 0 0 1 1.648-.368ZM28.8 26.432h-1.84V34h-1.456v-7.568h-1.136v-1.2h1.136v-.624c0-.981.25-1.696.752-2.144.512-.459 1.328-.688 2.448-.688v1.216c-.64 0-1.093.128-1.36.384-.256.245-.384.656-.384 1.232v.624h1.84v1.2Zm3.154.224a2.81 2.81 0 0 1 1.088-1.168c.48-.277 1.061-.416 1.744-.416v1.504h-.384c-1.632 0-2.448.885-2.448 2.656V34h-1.456v-8.768h1.456v1.424Zm5.264-2.848a.958.958 0 0 1-.704-.288.958.958 0 0 1-.288-.704c0-.277.096-.512.288-.704a.958.958 0 0 1 .704-.288c.267 0 .491.096.672.288a.958.958 0 0 1 .288.704.958.958 0 0 1-.288.704.888.888 0 0 1-.672.288Zm.704 1.424V34h-1.456v-8.768h1.456Zm10.482 4.048c0 .277-.016.57-.048.88h-7.008c.053.864.346 1.541.88 2.032.544.48 1.2.72 1.968.72.63 0 1.152-.144 1.568-.432.426-.299.725-.693.896-1.184h1.568a3.808 3.808 0 0 1-1.408 2.064c-.704.523-1.579.784-2.624.784-.832 0-1.579-.187-2.24-.56A3.992 3.992 0 0 1 40.42 32c-.373-.693-.56-1.493-.56-2.4 0-.907.181-1.701.544-2.384a3.78 3.78 0 0 1 1.52-1.568c.661-.373 1.419-.56 2.272-.56.832 0 1.568.181 2.208.544a3.7 3.7 0 0 1 1.472 1.504c.352.63.528 1.344.528 2.144Zm-1.504-.304c0-.555-.123-1.03-.368-1.424a2.317 2.317 0 0 0-1.008-.912 3.006 3.006 0 0 0-1.392-.32c-.736 0-1.365.235-1.888.704-.512.47-.806 1.12-.88 1.952H46.9Zm7.698-3.904c1.066 0 1.93.325 2.592.976.661.64.992 1.568.992 2.784V34h-1.44v-4.96c0-.875-.219-1.541-.656-2-.438-.47-1.035-.704-1.792-.704-.768 0-1.382.24-1.84.72-.448.48-.672 1.179-.672 2.096V34h-1.456v-8.768h1.456v1.248a2.902 2.902 0 0 1 1.168-1.04 3.698 3.698 0 0 1 1.648-.368Zm5.418 4.512c0-.896.181-1.68.544-2.352a3.952 3.952 0 0 1 1.488-1.584 4.177 4.177 0 0 1 2.144-.56c.683 0 1.318.16 1.904.48.587.31 1.035.72 1.344 1.232v-4.64h1.472V34H67.44v-1.648c-.288.523-.715.955-1.28 1.296-.565.33-1.227.496-1.984.496a4.057 4.057 0 0 1-2.128-.576 4.04 4.04 0 0 1-1.488-1.616c-.363-.693-.544-1.483-.544-2.368Zm7.424.016c0-.661-.133-1.237-.4-1.728a2.753 2.753 0 0 0-1.088-1.12 2.854 2.854 0 0 0-1.488-.4c-.544 0-1.04.128-1.488.384-.448.256-.805.63-1.072 1.12-.267.49-.4 1.067-.4 1.728 0 .672.134 1.259.4 1.76a2.9 2.9 0 0 0 1.072 1.136c.448.256.944.384 1.488.384s1.04-.128 1.488-.384a2.863 2.863 0 0 0 1.088-1.136c.267-.501.4-1.083.4-1.744Zm5.389-7.44V34h-1.456V22.16h1.456Zm10.033 3.072-5.28 12.896h-1.504l1.728-4.224-3.536-8.672h1.616l2.752 7.104 2.72-7.104h1.504Zm6.481-1.424a.958.958 0 0 1-.704-.288.958.958 0 0 1-.288-.704c0-.277.096-.512.288-.704a.958.958 0 0 1 .704-.288c.267 0 .491.096.672.288a.958.958 0 0 1 .288.704.958.958 0 0 1-.288.704.888.888 0 0 1-.672.288Zm.704 1.424V34h-1.456v-8.768h1.456Zm6.754-.16c1.067 0 1.93.325 2.592.976.661.64.992 1.568.992 2.784V34h-1.44v-4.96c0-.875-.219-1.541-.656-2-.438-.47-1.035-.704-1.792-.704-.768 0-1.382.24-1.84.72-.448.48-.672 1.179-.672 2.096V34h-1.456v-8.768h1.456v1.248a2.902 2.902 0 0 1 1.168-1.04 3.698 3.698 0 0 1 1.648-.368Zm9.578.016c.758 0 1.419.165 1.984.496.576.33 1.003.747 1.28 1.248v-1.6h1.472v8.96c0 .8-.17 1.51-.512 2.128a3.621 3.621 0 0 1-1.472 1.472c-.629.352-1.365.528-2.208.528-1.152 0-2.112-.272-2.88-.816-.768-.544-1.221-1.285-1.36-2.224h1.44c.16.533.491.96.992 1.28.502.33 1.104.496 1.808.496.8 0 1.451-.25 1.952-.752.512-.501.768-1.205.768-2.112v-1.84c-.288.512-.714.939-1.28 1.28-.565.341-1.226.512-1.984.512a4.059 4.059 0 0 1-2.128-.576 4.045 4.045 0 0 1-1.488-1.616c-.362-.693-.544-1.483-.544-2.368 0-.896.182-1.68.544-2.352a3.956 3.956 0 0 1 1.488-1.584 4.15 4.15 0 0 1 2.128-.56Zm3.264 4.512c0-.661-.133-1.237-.4-1.728a2.747 2.747 0 0 0-1.088-1.12 2.854 2.854 0 0 0-1.488-.4c-.544 0-1.04.128-1.488.384-.448.256-.805.63-1.072 1.12-.266.49-.4 1.067-.4 1.728 0 .672.134 1.259.4 1.76.267.49.624.87 1.072 1.136.448.256.944.384 1.488.384s1.04-.128 1.488-.384a2.857 2.857 0 0 0 1.088-1.136c.267-.501.4-1.083.4-1.744Zm5.389-2.944a2.81 2.81 0 0 1 1.088-1.168c.48-.277 1.061-.416 1.744-.416v1.504h-.384c-1.632 0-2.448.885-2.448 2.656V34h-1.456v-8.768h1.456v1.424Zm12.513 2.624c0 .277-.016.57-.048.88h-7.008c.053.864.346 1.541.88 2.032.544.48 1.2.72 1.968.72.629 0 1.152-.144 1.568-.432.426-.299.725-.693.896-1.184h1.568a3.81 3.81 0 0 1-1.408 2.064c-.704.523-1.579.784-2.624.784-.832 0-1.579-.187-2.24-.56A3.988 3.988 0 0 1 119.561 32c-.374-.693-.56-1.493-.56-2.4 0-.907.181-1.701.544-2.384a3.775 3.775 0 0 1 1.52-1.568c.661-.373 1.418-.56 2.272-.56.832 0 1.568.181 2.208.544.64.363 1.13.864 1.472 1.504.352.63.528 1.344.528 2.144Zm-1.504-.304c0-.555-.123-1.03-.368-1.424a2.324 2.324 0 0 0-1.008-.912 3.006 3.006 0 0 0-1.392-.32c-.736 0-1.366.235-1.888.704-.512.47-.806 1.12-.88 1.952h5.536Zm2.881.608c0-.896.182-1.68.544-2.352a3.956 3.956 0 0 1 1.488-1.584 4.178 4.178 0 0 1 2.144-.56c.683 0 1.318.16 1.904.48.587.31 1.035.72 1.344 1.232v-4.64h1.472V34h-1.472v-1.648c-.288.523-.714.955-1.28 1.296-.565.33-1.226.496-1.984.496a4.059 4.059 0 0 1-2.128-.576 4.045 4.045 0 0 1-1.488-1.616c-.362-.693-.544-1.483-.544-2.368Zm7.424.016c0-.661-.133-1.237-.4-1.728a2.747 2.747 0 0 0-1.088-1.12 2.854 2.854 0 0 0-1.488-.4c-.544 0-1.04.128-1.488.384-.448.256-.805.63-1.072 1.12-.266.49-.4 1.067-.4 1.728 0 .672.134 1.259.4 1.76.267.49.624.87 1.072 1.136.448.256.944.384 1.488.384s1.04-.128 1.488-.384a2.857 2.857 0 0 0 1.088-1.136c.267-.501.4-1.083.4-1.744Zm4.685-5.792a.958.958 0 0 1-.704-.288.958.958 0 0 1-.288-.704c0-.277.096-.512.288-.704a.958.958 0 0 1 .704-.288c.267 0 .491.096.672.288a.958.958 0 0 1 .288.704.958.958 0 0 1-.288.704.886.886 0 0 1-.672.288Zm.704 1.424V34h-1.456v-8.768h1.456Zm10.481 4.048c0 .277-.016.57-.048.88h-7.008c.054.864.347 1.541.88 2.032.544.48 1.2.72 1.968.72.63 0 1.152-.144 1.568-.432.427-.299.726-.693.896-1.184h1.568a3.804 3.804 0 0 1-1.408 2.064c-.704.523-1.578.784-2.624.784-.832 0-1.578-.187-2.24-.56A4.001 4.001 0 0 1 144.232 32c-.373-.693-.56-1.493-.56-2.4 0-.907.182-1.701.544-2.384a3.787 3.787 0 0 1 1.52-1.568c.662-.373 1.419-.56 2.272-.56.832 0 1.568.181 2.208.544a3.7 3.7 0 0 1 1.472 1.504c.352.63.528 1.344.528 2.144Zm-1.504-.304c0-.555-.122-1.03-.368-1.424a2.313 2.313 0 0 0-1.008-.912 3.006 3.006 0 0 0-1.392-.32c-.736 0-1.365.235-1.888.704-.512.47-.805 1.12-.88 1.952h5.536Zm7.698-3.904c1.067 0 1.931.325 2.592.976.662.64.992 1.568.992 2.784V34h-1.44v-4.96c0-.875-.218-1.541-.656-2-.437-.47-1.034-.704-1.792-.704-.768 0-1.381.24-1.84.72-.448.48-.672 1.179-.672 2.096V34h-1.456v-8.768h1.456v1.248a2.907 2.907 0 0 1 1.168-1.04 3.702 3.702 0 0 1 1.648-.368Zm7.739 1.36V31.6c0 .427.09.73.272.912.181.17.496.256.944.256h1.072V34h-1.312c-.811 0-1.419-.187-1.824-.56-.406-.373-.608-.987-.608-1.84v-5.168h-1.136v-1.2h1.136v-2.208h1.456v2.208h2.288v1.2h-2.288Zm7.156 7.712c-.672 0-1.275-.112-1.808-.336-.534-.235-.955-.555-1.264-.96a2.59 2.59 0 0 1-.512-1.424h1.504c.042.437.245.795.608 1.072.373.277.858.416 1.456.416.554 0 .992-.123 1.312-.368.32-.245.48-.555.48-.928 0-.384-.171-.667-.512-.848-.342-.192-.87-.379-1.584-.56a13.017 13.017 0 0 1-1.6-.512 3.026 3.026 0 0 1-1.056-.784c-.288-.352-.432-.81-.432-1.376 0-.448.133-.859.4-1.232.266-.373.645-.667 1.136-.88.49-.224 1.05-.336 1.68-.336.97 0 1.754.245 2.352.736.597.49.917 1.163.96 2.016h-1.456a1.495 1.495 0 0 0-.56-1.104c-.331-.277-.779-.416-1.344-.416-.523 0-.939.112-1.248.336-.31.224-.464.517-.464.88 0 .288.09.528.272.72.192.181.426.33.704.448.288.107.682.23 1.184.368.629.17 1.141.341 1.536.512.394.16.73.405 1.008.736.288.33.437.763.448 1.296 0 .48-.134.912-.4 1.296-.267.384-.646.688-1.136.912-.48.213-1.035.32-1.664.32ZM7 19c-3.85 0-7-3.15-7-7s3.15-7 7-7 7 3.15 7 7-3.15 7-7 7ZM7 5.875C3.631 5.875.875 8.631.875 12S3.631 18.125 7 18.125s6.125-2.756 6.125-6.125S10.369 5.875 7 5.875Z" fill="#000"/><path d="M5.686 14.8 3.63 12.744l.613-.613 1.443 1.444 4.07-4.069.612.613L5.686 14.8Z" fill="#000"/></svg>