<svg width="346" height="42" fill="none" xmlns="http://www.w3.org/2000/svg"><path d="M27.024 10.352v3.264h3.84v1.488h-3.84v3.408h4.32V20H25.2V8.864h6.144v1.488h-4.32Zm5.959 5.232c0-.907.181-1.701.544-2.384a3.968 3.968 0 0 1 1.536-1.6c.65-.373 1.397-.56 2.24-.56 1.066 0 1.946.256 2.64.768.704.501 1.178 1.221 1.424 2.16h-1.968a2.081 2.081 0 0 0-.768-1.024c-.352-.245-.795-.368-1.328-.368-.747 0-1.344.267-1.792.8-.438.523-.656 1.259-.656 2.208 0 .95.218 1.69.656 2.224.448.533 1.045.8 1.792.8 1.056 0 1.754-.464 2.096-1.392h1.968c-.256.896-.736 1.61-1.44 2.144-.704.523-1.579.784-2.624.784-.843 0-1.59-.187-2.24-.56a4.107 4.107 0 0 1-1.536-1.6c-.363-.693-.544-1.493-.544-2.4Zm14.025 4.56c-.832 0-1.584-.187-2.256-.56a4.151 4.151 0 0 1-1.584-1.6c-.384-.693-.576-1.493-.576-2.4 0-.896.198-1.69.592-2.384a4.088 4.088 0 0 1 1.616-1.6c.683-.373 1.446-.56 2.288-.56.843 0 1.606.187 2.288.56a4.09 4.09 0 0 1 1.616 1.6c.395.693.592 1.488.592 2.384 0 .896-.202 1.69-.608 2.384a4.252 4.252 0 0 1-1.664 1.616 4.782 4.782 0 0 1-2.304.56Zm0-1.584c.47 0 .907-.112 1.312-.336.416-.224.752-.56 1.008-1.008.256-.448.384-.992.384-1.632 0-.64-.122-1.179-.368-1.616a2.473 2.473 0 0 0-.976-1.008 2.67 2.67 0 0 0-1.312-.336c-.469 0-.906.112-1.312.336-.394.224-.709.56-.944 1.008-.234.437-.352.976-.352 1.616 0 .95.24 1.685.72 2.208.491.512 1.104.768 1.84.768Zm13.148-5.12v1.536H53.58V13.44h6.576Zm5.79 6.704c-.692 0-1.317-.123-1.871-.368-.544-.256-.976-.597-1.296-1.024a2.59 2.59 0 0 1-.512-1.456h1.888c.032.373.208.688.528.944.33.245.741.368 1.232.368.512 0 .906-.096 1.184-.288.288-.203.432-.459.432-.768 0-.33-.16-.576-.48-.736-.31-.16-.805-.336-1.488-.528a14.42 14.42 0 0 1-1.616-.528 2.9 2.9 0 0 1-1.088-.784c-.299-.352-.448-.816-.448-1.392 0-.47.139-.896.416-1.28.277-.395.672-.704 1.184-.928.523-.224 1.12-.336 1.792-.336 1.002 0 1.808.256 2.416.768.619.501.95 1.19.992 2.064h-1.824a1.3 1.3 0 0 0-.48-.944c-.288-.235-.677-.352-1.168-.352-.48 0-.848.09-1.104.272a.842.842 0 0 0-.384.72.78.78 0 0 0 .256.592c.17.16.378.288.624.384.245.085.608.197 1.088.336.64.17 1.163.347 1.568.528.416.17.773.427 1.072.768.299.341.453.795.464 1.36 0 .501-.139.95-.416 1.344-.278.395-.672.704-1.184.928-.501.224-1.094.336-1.776.336Zm13.332-8.96V20h-1.824v-1.04a3.01 3.01 0 0 1-1.136.864 3.6 3.6 0 0 1-1.472.304c-.694 0-1.318-.144-1.872-.432a3.184 3.184 0 0 1-1.296-1.28c-.31-.565-.464-1.248-.464-2.048v-5.184h1.808v4.912c0 .79.197 1.397.592 1.824.394.416.933.624 1.616.624.682 0 1.221-.208 1.616-.624.405-.427.608-1.035.608-1.824v-4.912h1.824Zm5.606 8.96c-.693 0-1.317-.123-1.872-.368-.544-.256-.976-.597-1.296-1.024a2.59 2.59 0 0 1-.512-1.456h1.888c.032.373.208.688.528.944.331.245.742.368 1.232.368.512 0 .907-.096 1.184-.288.288-.203.432-.459.432-.768 0-.33-.16-.576-.48-.736-.309-.16-.805-.336-1.488-.528a14.42 14.42 0 0 1-1.616-.528 2.9 2.9 0 0 1-1.088-.784c-.298-.352-.448-.816-.448-1.392 0-.47.139-.896.416-1.28.278-.395.672-.704 1.184-.928.523-.224 1.12-.336 1.792-.336 1.003 0 1.808.256 2.416.768.619.501.95 1.19.992 2.064h-1.824a1.3 1.3 0 0 0-.48-.944c-.288-.235-.677-.352-1.168-.352-.48 0-.848.09-1.104.272a.842.842 0 0 0-.384.72.78.78 0 0 0 .256.592c.171.16.379.288.624.384.246.085.608.197 1.088.336.64.17 1.163.347 1.568.528.416.17.774.427 1.072.768.299.341.454.795.464 1.36 0 .501-.138.95-.416 1.344-.277.395-.672.704-1.184.928-.501.224-1.093.336-1.776.336Zm7.475-7.472v4.88c0 .33.075.57.224.72.16.139.427.208.8.208h1.12V20h-1.44c-.821 0-1.45-.192-1.888-.576-.437-.384-.656-1.008-.656-1.872v-4.88h-1.04v-1.488h1.04V8.992h1.84v2.192h2.144v1.488H92.36Zm3.217 2.88c0-.885.182-1.67.544-2.352a4.062 4.062 0 0 1 3.616-2.16c.694 0 1.296.139 1.808.416.523.267.939.603 1.248 1.008v-1.28h1.84V20h-1.84v-1.312c-.309.416-.73.763-1.264 1.04-.533.277-1.141.416-1.824.416a3.92 3.92 0 0 1-2.08-.576 4.275 4.275 0 0 1-1.504-1.632c-.362-.704-.544-1.499-.544-2.384Zm7.216.032c0-.608-.128-1.136-.384-1.584a2.578 2.578 0 0 0-.976-1.024 2.571 2.571 0 0 0-1.312-.352c-.469 0-.906.117-1.312.352a2.58 2.58 0 0 0-.992 1.008c-.245.437-.368.96-.368 1.568 0 .608.123 1.141.368 1.6.256.459.587.81.992 1.056a2.63 2.63 0 0 0 2.624 0 2.58 2.58 0 0 0 .976-1.024c.256-.459.384-.992.384-1.6Zm5.164-5.568a1.13 1.13 0 0 1-.832-.336 1.13 1.13 0 0 1-.336-.832c0-.33.112-.608.336-.832a1.13 1.13 0 0 1 .832-.336c.32 0 .592.112.816.336.224.224.336.501.336.832 0 .33-.112.608-.336.832a1.11 1.11 0 0 1-.816.336Zm.896 1.168V20h-1.824v-8.816h1.824Zm6.843-.144c.693 0 1.312.144 1.856.432.555.288.987.715 1.296 1.28.309.565.464 1.248.464 2.048V20h-1.808v-4.928c0-.79-.197-1.392-.592-1.808-.395-.427-.933-.64-1.616-.64s-1.227.213-1.632.64c-.395.416-.592 1.019-.592 1.808V20h-1.824v-8.816h1.824v1.008a3.033 3.033 0 0 1 1.136-.848 3.71 3.71 0 0 1 1.488-.304Zm5.335 4.512c0-.885.181-1.67.544-2.352a4.056 4.056 0 0 1 3.616-2.16c.693 0 1.296.139 1.808.416.522.267.938.603 1.248 1.008v-1.28h1.84V20h-1.84v-1.312c-.31.416-.731.763-1.264 1.04-.534.277-1.142.416-1.824.416a3.914 3.914 0 0 1-2.08-.576 4.268 4.268 0 0 1-1.504-1.632c-.363-.704-.544-1.499-.544-2.384Zm7.216.032c0-.608-.128-1.136-.384-1.584a2.591 2.591 0 0 0-.976-1.024 2.577 2.577 0 0 0-1.312-.352c-.47 0-.907.117-1.312.352-.406.224-.736.56-.992 1.008-.246.437-.368.96-.368 1.568 0 .608.122 1.141.368 1.6.256.459.586.81.992 1.056a2.63 2.63 0 0 0 1.312.352c.469 0 .906-.117 1.312-.352.405-.235.73-.576.976-1.024.256-.459.384-.992.384-1.6Zm6.059-3.088c.31-.427.731-.773 1.264-1.04a3.924 3.924 0 0 1 1.808-.416 4.06 4.06 0 0 1 2.112.56c.63.373 1.126.907 1.488 1.6.363.683.544 1.467.544 2.352 0 .885-.181 1.68-.544 2.384a4.112 4.112 0 0 1-1.504 1.632 3.945 3.945 0 0 1-2.096.576c-.682 0-1.29-.133-1.824-.4a3.52 3.52 0 0 1-1.248-1.024V20h-1.824V8.16h1.824v4.336Zm5.36 3.056c0-.608-.128-1.13-.384-1.568a2.441 2.441 0 0 0-.992-1.008 2.571 2.571 0 0 0-1.312-.352 2.63 2.63 0 0 0-1.312.352 2.699 2.699 0 0 0-.992 1.024c-.245.448-.368.976-.368 1.584 0 .608.123 1.141.368 1.6.256.448.587.79.992 1.024a2.63 2.63 0 0 0 2.624 0 2.63 2.63 0 0 0 .992-1.056c.256-.459.384-.992.384-1.6Zm5.484-7.392V20h-1.824V8.16h1.824Zm10.475 7.216c0 .33-.022.63-.064.896h-6.736c.053.704.314 1.27.784 1.696.469.427 1.045.64 1.728.64.981 0 1.674-.41 2.08-1.232h1.968a4 4 0 0 1-1.456 2c-.694.512-1.558.768-2.592.768-.843 0-1.6-.187-2.272-.56a4.18 4.18 0 0 1-1.568-1.6c-.374-.693-.56-1.493-.56-2.4 0-.907.181-1.701.544-2.384a3.93 3.93 0 0 1 1.552-1.6c.672-.373 1.44-.56 2.304-.56.832 0 1.573.181 2.224.544a3.84 3.84 0 0 1 1.52 1.536c.362.65.544 1.403.544 2.256Zm-1.904-.576c-.011-.672-.251-1.21-.72-1.616-.47-.405-1.051-.608-1.744-.608-.63 0-1.168.203-1.616.608-.448.395-.715.933-.8 1.616h4.88Zm4.435 5.312a1.13 1.13 0 0 1-.832-.336 1.13 1.13 0 0 1-.336-.832c0-.33.112-.608.336-.832a1.13 1.13 0 0 1 .832-.336c.32 0 .592.112.816.336.224.224.336.501.336.832 0 .33-.112.608-.336.832a1.11 1.11 0 0 1-.816.336Zm0-6.72a1.13 1.13 0 0 1-.832-.336 1.13 1.13 0 0 1-.336-.832c0-.33.112-.608.336-.832a1.13 1.13 0 0 1 .832-.336c.32 0 .592.112.816.336.224.224.336.501.336.832 0 .33-.112.608-.336.832a1.11 1.11 0 0 1-.816.336Zm9.81 4.128h-4.864l-.896 2.48h-1.536l4.032-11.088h1.68L170.397 20h-1.536l-.896-2.48Zm-.416-1.184-2.016-5.632-2.016 5.632h4.032Zm6.061-8.176V20h-1.456V8.16h1.456Zm3.937 0V20h-1.456V8.16h1.456Zm8.204 4.496a2.81 2.81 0 0 1 1.088-1.168c.48-.277 1.061-.416 1.744-.416v1.504h-.384c-1.632 0-2.448.885-2.448 2.656V20h-1.456v-8.768h1.456v1.424Zm12.512 2.624c0 .277-.016.57-.048.88h-7.008c.054.864.347 1.541.88 2.032.544.48 1.2.72 1.968.72.63 0 1.152-.144 1.568-.432.427-.299.726-.693.896-1.184h1.568a3.804 3.804 0 0 1-1.408 2.064c-.704.523-1.578.784-2.624.784-.832 0-1.578-.187-2.24-.56A4.001 4.001 0 0 1 190.279 18c-.373-.693-.56-1.493-.56-2.4 0-.907.182-1.701.544-2.384a3.787 3.787 0 0 1 1.52-1.568c.662-.373 1.419-.56 2.272-.56.832 0 1.568.181 2.208.544a3.7 3.7 0 0 1 1.472 1.504c.352.63.528 1.344.528 2.144Zm-1.504-.304c0-.555-.122-1.03-.368-1.424a2.313 2.313 0 0 0-1.008-.912 3.006 3.006 0 0 0-1.392-.32c-.736 0-1.365.235-1.888.704-.512.47-.805 1.12-.88 1.952h5.536Zm2.882.624c0-.907.181-1.696.544-2.368a3.92 3.92 0 0 1 1.504-1.584c.651-.373 1.392-.56 2.224-.56 1.077 0 1.963.261 2.656.784.704.523 1.168 1.248 1.392 2.176h-1.568a2.238 2.238 0 0 0-.88-1.264c-.427-.31-.96-.464-1.6-.464-.832 0-1.504.288-2.016.864-.512.565-.768 1.37-.768 2.416 0 1.056.256 1.872.768 2.448.512.576 1.184.864 2.016.864.64 0 1.173-.15 1.6-.448.427-.299.72-.725.88-1.28h1.568c-.235.896-.704 1.616-1.408 2.16-.704.533-1.584.8-2.64.8-.832 0-1.573-.187-2.224-.56A3.92 3.92 0 0 1 200.185 18c-.363-.683-.544-1.483-.544-2.4Zm17.815-4.368-5.28 12.896h-1.504l1.728-4.224-3.536-8.672h1.616l2.752 7.104 2.72-7.104h1.504Zm.92 4.368c0-.907.181-1.696.544-2.368a3.913 3.913 0 0 1 1.504-1.584c.65-.373 1.392-.56 2.224-.56 1.077 0 1.962.261 2.656.784.704.523 1.168 1.248 1.392 2.176h-1.568a2.243 2.243 0 0 0-.88-1.264c-.427-.31-.96-.464-1.6-.464-.832 0-1.504.288-2.016.864-.512.565-.768 1.37-.768 2.416 0 1.056.256 1.872.768 2.448.512.576 1.184.864 2.016.864.64 0 1.173-.15 1.6-.448.426-.299.72-.725.88-1.28h1.568c-.235.896-.704 1.616-1.408 2.16-.704.533-1.584.8-2.64.8-.832 0-1.574-.187-2.224-.56A3.913 3.913 0 0 1 218.92 18c-.363-.683-.544-1.483-.544-2.4Zm11.718-7.44V20h-1.456V8.16h1.456Zm1.938 7.424c0-.896.181-1.68.544-2.352a3.942 3.942 0 0 1 1.488-1.584 4.145 4.145 0 0 1 2.128-.56c.768 0 1.434.165 2 .496.565.33.986.747 1.264 1.248v-1.6h1.472V20h-1.472v-1.632c-.288.512-.72.939-1.296 1.28-.566.33-1.227.496-1.984.496a3.973 3.973 0 0 1-2.112-.576 4.03 4.03 0 0 1-1.488-1.616c-.363-.693-.544-1.483-.544-2.368Zm7.424.016c0-.661-.134-1.237-.4-1.728a2.76 2.76 0 0 0-1.088-1.12 2.854 2.854 0 0 0-1.488-.4c-.544 0-1.04.128-1.488.384-.448.256-.806.63-1.072 1.12-.267.49-.4 1.067-.4 1.728 0 .672.133 1.259.4 1.76.266.49.624.87 1.072 1.136.448.256.944.384 1.488.384s1.04-.128 1.488-.384a2.87 2.87 0 0 0 1.088-1.136c.266-.501.4-1.083.4-1.744Zm5.388-2.736c.299-.523.736-.95 1.312-1.28.576-.33 1.232-.496 1.968-.496.79 0 1.499.187 2.128.56.63.373 1.126.901 1.488 1.584.363.672.544 1.456.544 2.352 0 .885-.181 1.675-.544 2.368a3.999 3.999 0 0 1-1.504 1.616 3.973 3.973 0 0 1-2.112.576c-.757 0-1.424-.165-2-.496-.565-.33-.992-.752-1.28-1.264V20h-1.456V8.16h1.456v4.704Zm5.952 2.72c0-.661-.133-1.237-.4-1.728a2.747 2.747 0 0 0-1.088-1.12 2.946 2.946 0 0 0-1.488-.384c-.533 0-1.029.133-1.488.4-.448.256-.81.635-1.088 1.136-.266.49-.4 1.061-.4 1.712 0 .661.134 1.243.4 1.744.278.49.64.87 1.088 1.136.459.256.955.384 1.488.384.544 0 1.04-.128 1.488-.384a2.857 2.857 0 0 0 1.088-1.136c.267-.501.4-1.088.4-1.76Zm4.861-7.424V20h-1.456V8.16h1.456Zm10.481 7.12c0 .277-.016.57-.048.88h-7.008c.054.864.347 1.541.88 2.032.544.48 1.2.72 1.968.72.63 0 1.152-.144 1.568-.432.427-.299.726-.693.896-1.184h1.568a3.804 3.804 0 0 1-1.408 2.064c-.704.523-1.578.784-2.624.784-.832 0-1.578-.187-2.24-.56A4.001 4.001 0 0 1 258.154 18c-.373-.693-.56-1.493-.56-2.4 0-.907.182-1.701.544-2.384a3.787 3.787 0 0 1 1.52-1.568c.662-.373 1.419-.56 2.272-.56.832 0 1.568.181 2.208.544a3.7 3.7 0 0 1 1.472 1.504c.352.63.528 1.344.528 2.144Zm-1.504-.304c0-.555-.122-1.03-.368-1.424a2.313 2.313 0 0 0-1.008-.912 3.006 3.006 0 0 0-1.392-.32c-.736 0-1.365.235-1.888.704-.512.47-.805 1.12-.88 1.952h5.536ZM35.776 30.072c.683 0 1.29.144 1.824.432.533.277.955.699 1.264 1.264.31.565.464 1.253.464 2.064V39h-1.44v-4.96c0-.875-.219-1.541-.656-2-.427-.47-1.008-.704-1.744-.704-.757 0-1.36.245-1.808.736-.448.48-.672 1.179-.672 2.096V39h-1.44v-4.96c0-.875-.219-1.541-.656-2-.427-.47-1.008-.704-1.744-.704-.757 0-1.36.245-1.808.736-.448.48-.672 1.179-.672 2.096V39h-1.456v-8.768h1.456v1.264a2.89 2.89 0 0 1 1.152-1.056 3.563 3.563 0 0 1 1.616-.368c.736 0 1.387.165 1.952.496.565.33.987.816 1.264 1.456a2.876 2.876 0 0 1 1.216-1.44 3.582 3.582 0 0 1 1.888-.512Zm5.396 4.512c0-.896.182-1.68.544-2.352a3.95 3.95 0 0 1 1.488-1.584 4.15 4.15 0 0 1 2.128-.56c.768 0 1.435.165 2 .496.566.33.987.747 1.264 1.248v-1.6h1.472V39h-1.472v-1.632c-.288.512-.72.939-1.296 1.28-.565.33-1.226.496-1.984.496a3.974 3.974 0 0 1-2.112-.576 4.04 4.04 0 0 1-1.488-1.616c-.362-.693-.544-1.483-.544-2.368Zm7.424.016c0-.661-.133-1.237-.4-1.728a2.754 2.754 0 0 0-1.088-1.12 2.854 2.854 0 0 0-1.488-.4c-.544 0-1.04.128-1.488.384-.448.256-.805.63-1.072 1.12-.266.49-.4 1.067-.4 1.728 0 .672.134 1.259.4 1.76a2.9 2.9 0 0 0 1.072 1.136c.448.256.944.384 1.488.384s1.04-.128 1.488-.384a2.864 2.864 0 0 0 1.088-1.136c.267-.501.4-1.083.4-1.744Zm5.709-3.168V36.6c0 .427.09.73.272.912.181.17.496.256.944.256h1.072V39H55.28c-.81 0-1.419-.187-1.824-.56-.406-.373-.608-.987-.608-1.84v-5.168h-1.136v-1.2h1.136v-2.208h1.456v2.208h2.288v1.2h-2.288Zm12.052 2.848c0 .277-.016.57-.048.88h-7.008c.053.864.347 1.541.88 2.032.544.48 1.2.72 1.968.72.63 0 1.152-.144 1.568-.432.427-.299.725-.693.896-1.184h1.568a3.808 3.808 0 0 1-1.408 2.064c-.704.523-1.579.784-2.624.784-.832 0-1.579-.187-2.24-.56A3.992 3.992 0 0 1 58.373 37c-.373-.693-.56-1.493-.56-2.4 0-.907.181-1.701.544-2.384a3.781 3.781 0 0 1 1.52-1.568c.661-.373 1.419-.56 2.272-.56.832 0 1.568.181 2.208.544a3.7 3.7 0 0 1 1.472 1.504c.352.63.528 1.344.528 2.144Zm-1.504-.304c0-.555-.123-1.03-.368-1.424a2.316 2.316 0 0 0-1.008-.912 3.006 3.006 0 0 0-1.392-.32c-.736 0-1.365.235-1.888.704-.512.47-.805 1.12-.88 1.952h5.536Zm4.882-2.32a2.81 2.81 0 0 1 1.088-1.168c.48-.277 1.061-.416 1.744-.416v1.504h-.384c-1.632 0-2.448.885-2.448 2.656V39h-1.456v-8.768h1.456v1.424ZM75 28.808a.958.958 0 0 1-.704-.288.958.958 0 0 1-.288-.704c0-.277.096-.512.288-.704a.958.958 0 0 1 .704-.288.89.89 0 0 1 .672.288.958.958 0 0 1 .288.704.958.958 0 0 1-.288.704.887.887 0 0 1-.672.288Zm.704 1.424V39h-1.456v-8.768h1.456Zm1.937 4.352c0-.896.181-1.68.544-2.352a3.952 3.952 0 0 1 1.488-1.584 4.15 4.15 0 0 1 2.128-.56c.768 0 1.435.165 2 .496.566.33.987.747 1.264 1.248v-1.6h1.472V39h-1.472v-1.632c-.288.512-.72.939-1.296 1.28-.565.33-1.227.496-1.984.496a3.975 3.975 0 0 1-2.112-.576 4.04 4.04 0 0 1-1.488-1.616c-.362-.693-.544-1.483-.544-2.368Zm7.424.016c0-.661-.133-1.237-.4-1.728a2.753 2.753 0 0 0-1.088-1.12 2.854 2.854 0 0 0-1.488-.4c-.544 0-1.04.128-1.488.384-.448.256-.805.63-1.072 1.12-.266.49-.4 1.067-.4 1.728 0 .672.133 1.259.4 1.76a2.9 2.9 0 0 0 1.072 1.136c.448.256.944.384 1.488.384s1.04-.128 1.488-.384a2.863 2.863 0 0 0 1.088-1.136c.267-.501.4-1.083.4-1.744Zm5.389-7.44V39h-1.456V27.16h1.456Zm5.585 11.984c-.672 0-1.275-.112-1.808-.336-.533-.235-.954-.555-1.264-.96-.31-.416-.48-.89-.512-1.424h1.504c.043.437.245.795.608 1.072.374.277.859.416 1.456.416.555 0 .992-.123 1.312-.368.32-.245.48-.555.48-.928a.897.897 0 0 0-.512-.848c-.341-.192-.87-.379-1.584-.56a13.04 13.04 0 0 1-1.6-.512 3.039 3.039 0 0 1-1.056-.784c-.288-.352-.432-.81-.432-1.376 0-.448.133-.859.4-1.232s.645-.667 1.136-.88c.49-.224 1.05-.336 1.68-.336.97 0 1.755.245 2.352.736.597.49.918 1.163.96 2.016h-1.456a1.494 1.494 0 0 0-.56-1.104c-.33-.277-.778-.416-1.344-.416-.523 0-.939.112-1.248.336-.31.224-.464.517-.464.88 0 .288.09.528.272.72.192.181.427.33.704.448.288.107.683.23 1.184.368.63.17 1.141.341 1.536.512.395.16.73.405 1.008.736.288.33.438.763.448 1.296 0 .48-.133.912-.4 1.296-.266.384-.645.688-1.136.912-.48.213-1.035.32-1.664.32Zm6.76-2.16-1.792 4.304h-.977l1.169-4.304h1.6Zm5.693-3.888c0-1.835.299-3.264.896-4.288.597-1.035 1.643-1.552 3.136-1.552 1.483 0 2.523.517 3.12 1.552.597 1.024.896 2.453.896 4.288 0 1.867-.299 3.317-.896 4.352-.597 1.035-1.637 1.552-3.12 1.552-1.493 0-2.539-.517-3.136-1.552-.597-1.035-.896-2.485-.896-4.352Zm6.608 0c0-.928-.064-1.712-.192-2.352-.117-.65-.368-1.173-.752-1.568-.373-.395-.917-.592-1.632-.592-.725 0-1.28.197-1.664.592-.373.395-.624.917-.752 1.568-.117.64-.176 1.424-.176 2.352 0 .96.059 1.765.176 2.416.128.65.379 1.173.752 1.568.384.395.939.592 1.664.592.715 0 1.259-.197 1.632-.592.384-.395.635-.917.752-1.568.128-.65.192-1.456.192-2.416Zm3.119-3.056c0-.725.219-1.301.656-1.728.437-.437.997-.656 1.68-.656.683 0 1.243.219 1.68.656.437.427.656 1.003.656 1.728 0 .736-.219 1.323-.656 1.76-.437.427-.997.64-1.68.64-.683 0-1.243-.213-1.68-.64-.437-.437-.656-1.024-.656-1.76Zm9.344-2.208L121.083 39h-1.44l6.48-11.168h1.44Zm-7.008.72c-.363 0-.651.128-.864.384-.203.245-.304.613-.304 1.104 0 .49.101.864.304 1.12.213.256.501.384.864.384s.651-.128.864-.384c.213-.267.32-.64.32-1.12 0-.49-.107-.859-.32-1.104-.213-.256-.501-.384-.864-.384Zm3.792 8.24c0-.736.219-1.317.656-1.744.437-.437.997-.656 1.68-.656.683 0 1.237.219 1.664.656.437.427.656 1.008.656 1.744 0 .725-.219 1.307-.656 1.744-.427.437-.981.656-1.664.656-.683 0-1.243-.213-1.68-.64-.437-.437-.656-1.024-.656-1.76Zm2.32-1.488c-.363 0-.651.128-.864.384-.213.245-.32.613-.32 1.104 0 .48.107.848.32 1.104.213.245.501.368.864.368s.651-.123.864-.368c.213-.256.32-.624.32-1.104 0-.49-.107-.859-.32-1.104-.213-.256-.501-.384-.864-.384Zm7.974-1.888c0-1.088.245-2.064.736-2.928a5.349 5.349 0 0 1 2-2.048c.853-.49 1.797-.736 2.832-.736 1.216 0 2.277.293 3.184.88s1.568 1.419 1.984 2.496h-1.744c-.309-.672-.757-1.19-1.344-1.552-.576-.363-1.269-.544-2.08-.544-.779 0-1.477.181-2.096.544a3.79 3.79 0 0 0-1.456 1.552c-.352.661-.528 1.44-.528 2.336 0 .885.176 1.664.528 2.336a3.815 3.815 0 0 0 1.456 1.536c.619.363 1.317.544 2.096.544.811 0 1.504-.176 2.08-.528.587-.363 1.035-.88 1.344-1.552h1.744c-.416 1.067-1.077 1.893-1.984 2.48-.907.576-1.968.864-3.184.864-1.035 0-1.979-.24-2.832-.72a5.38 5.38 0 0 1-2-2.032c-.491-.864-.736-1.84-.736-2.928Zm17.96 5.696c-1.035 0-1.979-.24-2.832-.72a5.456 5.456 0 0 1-2.032-2.032c-.491-.875-.736-1.856-.736-2.944 0-1.088.245-2.064.736-2.928a5.305 5.305 0 0 1 2.032-2.032c.853-.49 1.797-.736 2.832-.736 1.045 0 1.994.245 2.848.736a5.235 5.235 0 0 1 2.016 2.016c.49.864.736 1.845.736 2.944s-.246 2.08-.736 2.944a5.35 5.35 0 0 1-2.016 2.032c-.854.48-1.803.72-2.848.72Zm0-1.264c.778 0 1.477-.181 2.096-.544a3.763 3.763 0 0 0 1.472-1.552c.362-.672.544-1.45.544-2.336 0-.896-.182-1.675-.544-2.336a3.797 3.797 0 0 0-1.456-1.552c-.619-.363-1.323-.544-2.112-.544-.79 0-1.494.181-2.112.544-.619.363-1.11.88-1.472 1.552-.352.661-.528 1.44-.528 2.336 0 .885.176 1.664.528 2.336.362.672.853 1.19 1.472 1.552.629.363 1.333.544 2.112.544Zm7.106-.016c1.354-1.088 2.416-1.979 3.184-2.672a13.052 13.052 0 0 0 1.936-2.192c.533-.768.8-1.52.8-2.256 0-.693-.171-1.237-.512-1.632-.331-.405-.87-.608-1.616-.608-.726 0-1.291.23-1.696.688-.395.448-.608 1.05-.64 1.808h-1.408c.042-1.195.405-2.117 1.088-2.768.682-.65 1.562-.976 2.64-.976 1.098 0 1.968.304 2.608.912.65.608.976 1.445.976 2.512 0 .885-.267 1.75-.8 2.592a11.43 11.43 0 0 1-1.792 2.208 47.137 47.137 0 0 1-2.576 2.208h5.504v1.216h-7.696v-1.04Zm21.884-3.552c0 .277-.016.57-.048.88h-7.008c.054.864.347 1.541.88 2.032.544.48 1.2.72 1.968.72.63 0 1.152-.144 1.568-.432.427-.299.726-.693.896-1.184h1.568a3.804 3.804 0 0 1-1.408 2.064c-.704.523-1.578.784-2.624.784-.832 0-1.578-.187-2.24-.56A4.001 4.001 0 0 1 173.607 37c-.373-.693-.56-1.493-.56-2.4 0-.907.182-1.701.544-2.384a3.787 3.787 0 0 1 1.52-1.568c.662-.373 1.419-.56 2.272-.56.832 0 1.568.181 2.208.544a3.7 3.7 0 0 1 1.472 1.504c.352.63.528 1.344.528 2.144Zm-1.504-.304c0-.555-.122-1.03-.368-1.424a2.313 2.313 0 0 0-1.008-.912 3.006 3.006 0 0 0-1.392-.32c-.736 0-1.365.235-1.888.704-.512.47-.805 1.12-.88 1.952h5.536Zm13.97-3.904c.683 0 1.291.144 1.824.432.534.277.955.699 1.264 1.264.31.565.464 1.253.464 2.064V39h-1.44v-4.96c0-.875-.218-1.541-.656-2-.426-.47-1.008-.704-1.744-.704-.757 0-1.36.245-1.808.736-.448.48-.672 1.179-.672 2.096V39h-1.44v-4.96c0-.875-.218-1.541-.656-2-.426-.47-1.008-.704-1.744-.704-.757 0-1.36.245-1.808.736-.448.48-.672 1.179-.672 2.096V39h-1.456v-8.768h1.456v1.264a2.89 2.89 0 0 1 1.152-1.056 3.566 3.566 0 0 1 1.616-.368c.736 0 1.387.165 1.952.496.566.33.987.816 1.264 1.456a2.88 2.88 0 0 1 1.216-1.44 3.585 3.585 0 0 1 1.888-.512Zm6.693-1.264a.957.957 0 0 1-.704-.288.958.958 0 0 1-.288-.704c0-.277.096-.512.288-.704a.957.957 0 0 1 .704-.288.89.89 0 0 1 .672.288.958.958 0 0 1 .288.704.958.958 0 0 1-.288.704.89.89 0 0 1-.672.288Zm.704 1.424V39h-1.456v-8.768h1.456Zm5.585 8.912c-.672 0-1.275-.112-1.808-.336-.533-.235-.955-.555-1.264-.96a2.598 2.598 0 0 1-.512-1.424h1.504c.043.437.245.795.608 1.072.373.277.859.416 1.456.416.555 0 .992-.123 1.312-.368.32-.245.48-.555.48-.928 0-.384-.171-.667-.512-.848-.341-.192-.869-.379-1.584-.56a13.017 13.017 0 0 1-1.6-.512 3.044 3.044 0 0 1-1.056-.784c-.288-.352-.432-.81-.432-1.376 0-.448.133-.859.4-1.232s.645-.667 1.136-.88c.491-.224 1.051-.336 1.68-.336.971 0 1.755.245 2.352.736.597.49.917 1.163.96 2.016h-1.456a1.495 1.495 0 0 0-.56-1.104c-.331-.277-.779-.416-1.344-.416-.523 0-.939.112-1.248.336-.309.224-.464.517-.464.88 0 .288.091.528.272.72.192.181.427.33.704.448.288.107.683.23 1.184.368.629.17 1.141.341 1.536.512.395.16.731.405 1.008.736.288.33.437.763.448 1.296 0 .48-.133.912-.4 1.296s-.645.688-1.136.912c-.48.213-1.035.32-1.664.32Zm8.36 0c-.672 0-1.275-.112-1.808-.336-.534-.235-.955-.555-1.264-.96a2.59 2.59 0 0 1-.512-1.424h1.504c.042.437.245.795.608 1.072.373.277.858.416 1.456.416.554 0 .992-.123 1.312-.368.32-.245.48-.555.48-.928 0-.384-.171-.667-.512-.848-.342-.192-.87-.379-1.584-.56a13.017 13.017 0 0 1-1.6-.512 3.026 3.026 0 0 1-1.056-.784c-.288-.352-.432-.81-.432-1.376 0-.448.133-.859.4-1.232.266-.373.645-.667 1.136-.88.49-.224 1.05-.336 1.68-.336.97 0 1.754.245 2.352.736.597.49.917 1.163.96 2.016h-1.456a1.495 1.495 0 0 0-.56-1.104c-.331-.277-.779-.416-1.344-.416-.523 0-.939.112-1.248.336-.31.224-.464.517-.464.88 0 .288.09.528.272.72.192.181.426.33.704.448.288.107.682.23 1.184.368.629.17 1.141.341 1.536.512.394.16.73.405 1.008.736.288.33.437.763.448 1.296 0 .48-.134.912-.4 1.296-.267.384-.646.688-1.136.912-.48.213-1.035.32-1.664.32Zm6.007-10.336a.958.958 0 0 1-.704-.288.958.958 0 0 1-.288-.704c0-.277.096-.512.288-.704a.958.958 0 0 1 .704-.288c.267 0 .491.096.672.288a.958.958 0 0 1 .288.704.958.958 0 0 1-.288.704.886.886 0 0 1-.672.288Zm.704 1.424V39h-1.456v-8.768h1.456Zm6.305 8.912a4.535 4.535 0 0 1-2.24-.56A4.072 4.072 0 0 1 224.607 37c-.373-.693-.56-1.493-.56-2.4 0-.896.192-1.685.576-2.368a4.011 4.011 0 0 1 1.6-1.584c.672-.373 1.424-.56 2.256-.56.832 0 1.584.187 2.256.56.672.363 1.2.885 1.584 1.568.395.683.592 1.477.592 2.384 0 .907-.202 1.707-.608 2.4a4.112 4.112 0 0 1-1.616 1.584c-.682.373-1.44.56-2.272.56Zm0-1.28c.523 0 1.014-.123 1.472-.368a2.744 2.744 0 0 0 1.104-1.104c.288-.49.432-1.088.432-1.792s-.138-1.301-.416-1.792c-.277-.49-.64-.853-1.088-1.088a2.982 2.982 0 0 0-1.456-.368c-.533 0-1.024.123-1.472.368-.437.235-.789.597-1.056 1.088-.266.49-.4 1.088-.4 1.792 0 .715.128 1.317.384 1.808.267.49.619.859 1.056 1.104a3 3 0 0 0 1.44.352Zm10.683-7.792c1.066 0 1.93.325 2.592.976.661.64.992 1.568.992 2.784V39h-1.44v-4.96c0-.875-.219-1.541-.656-2-.438-.47-1.035-.704-1.792-.704-.768 0-1.382.24-1.84.72-.448.48-.672 1.179-.672 2.096V39h-1.456v-8.768h1.456v1.248a2.9 2.9 0 0 1 1.168-1.04 3.696 3.696 0 0 1 1.648-.368Zm9.066 9.072c-.672 0-1.275-.112-1.808-.336-.533-.235-.955-.555-1.264-.96a2.598 2.598 0 0 1-.512-1.424h1.504c.043.437.245.795.608 1.072.373.277.859.416 1.456.416.555 0 .992-.123 1.312-.368.32-.245.48-.555.48-.928 0-.384-.171-.667-.512-.848-.341-.192-.869-.379-1.584-.56a13.017 13.017 0 0 1-1.6-.512 3.044 3.044 0 0 1-1.056-.784c-.288-.352-.432-.81-.432-1.376 0-.448.133-.859.4-1.232s.645-.667 1.136-.88c.491-.224 1.051-.336 1.68-.336.971 0 1.755.245 2.352.736.597.49.917 1.163.96 2.016h-1.456a1.495 1.495 0 0 0-.56-1.104c-.331-.277-.779-.416-1.344-.416-.523 0-.939.112-1.248.336-.309.224-.464.517-.464.88 0 .288.091.528.272.72.192.181.427.33.704.448.288.107.683.23 1.184.368.629.17 1.141.341 1.536.512.395.16.731.405 1.008.736.288.33.437.763.448 1.296 0 .48-.133.912-.4 1.296s-.645.688-1.136.912c-.48.213-1.035.32-1.664.32ZM7 21c-3.85 0-7-3.15-7-7s3.15-7 7-7 7 3.15 7 7-3.15 7-7 7ZM7 7.875C3.631 7.875.875 10.631.875 14S3.631 20.125 7 20.125s6.125-2.756 6.125-6.125S10.369 7.875 7 7.875Z" fill="#000"/><path d="M5.686 16.8 3.63 14.744l.613-.613 1.443 1.444 4.07-4.069.612.613L5.686 16.8Z" fill="#000"/></svg>