<svg width="150" height="60" fill="none" xmlns="http://www.w3.org/2000/svg"><path d="M45.18 27.672c0-1.443.318-2.733.955-3.868.65-1.15 1.529-2.04 2.636-2.67 1.12-.645 2.373-.968 3.757-.968 1.619 0 3.037.42 4.255 1.262 1.217.84 2.068 2.004 2.553 3.49h-3.342c-.332-.7-.803-1.226-1.411-1.577-.596-.35-1.287-.525-2.076-.525-.844 0-1.598.203-2.262.61-.65.392-1.163.952-1.536 1.681-.36.73-.54 1.584-.54 2.565 0 .967.18 1.822.54 2.565.373.73.885 1.297 1.535 1.703.665.393 1.419.589 2.263.589.789 0 1.48-.175 2.076-.526.608-.364 1.079-.897 1.41-1.598h3.343c-.485 1.5-1.336 2.67-2.553 3.512-1.204.827-2.623 1.24-4.255 1.24-1.384 0-2.636-.315-3.757-.946a7.135 7.135 0 0 1-2.636-2.67c-.637-1.136-.955-2.425-.955-3.869Zm15.89 1.493c0-1.177.229-2.222.685-3.133.47-.91 1.1-1.612 1.89-2.102a5.033 5.033 0 0 1 2.677-.736c.858 0 1.605.175 2.241.526.65.35 1.17.792 1.557 1.324v-1.66h2.927V35.03H70.12v-1.703c-.374.547-.892 1.002-1.557 1.367-.65.35-1.404.525-2.262.525a4.892 4.892 0 0 1-2.657-.757c-.789-.504-1.418-1.212-1.889-2.123-.456-.925-.685-1.984-.685-3.175Zm9.05.042c0-.715-.138-1.325-.415-1.83a2.861 2.861 0 0 0-1.12-1.176 2.91 2.91 0 0 0-1.516-.42c-.54 0-1.038.132-1.495.399-.456.266-.83.658-1.12 1.177-.277.505-.415 1.107-.415 1.808 0 .7.138 1.318.415 1.85.29.519.664.918 1.12 1.199.47.28.97.42 1.495.42.54 0 1.045-.133 1.515-.4.47-.28.844-.672 1.12-1.177.278-.518.416-1.135.416-1.85Zm12.137-5.992c1.37 0 2.477.442 3.32 1.325.845.869 1.267 2.088 1.267 3.658v6.833h-2.906v-6.434c0-.925-.228-1.633-.685-2.123-.457-.505-1.08-.757-1.868-.757-.803 0-1.44.252-1.91.757-.456.49-.684 1.198-.684 2.123v6.434h-2.906V23.383h2.905v1.45a3.95 3.95 0 0 1 1.474-1.176 4.517 4.517 0 0 1 1.993-.442Zm6.603 5.95c0-1.177.228-2.222.685-3.133.47-.91 1.107-1.612 1.91-2.102a5.033 5.033 0 0 1 2.677-.736c.747 0 1.46.168 2.138.505.678.322 1.218.756 1.619 1.303v-5.53h2.947v15.559h-2.947v-1.724c-.36.575-.865 1.037-1.515 1.388-.65.35-1.405.525-2.263.525a4.892 4.892 0 0 1-2.657-.757c-.802-.504-1.439-1.212-1.91-2.123-.456-.925-.684-1.984-.684-3.175Zm9.05.042c0-.715-.139-1.325-.416-1.83a2.86 2.86 0 0 0-1.12-1.176 2.91 2.91 0 0 0-1.516-.42c-.54 0-1.037.132-1.494.399-.457.266-.83.658-1.12 1.177-.278.505-.416 1.107-.416 1.808 0 .7.138 1.318.415 1.85.29.519.664.918 1.121 1.199.47.28.969.42 1.494.42.54 0 1.045-.133 1.516-.4.47-.28.844-.672 1.12-1.177.277-.518.416-1.135.416-1.85Zm8.67-9.734V35.03h-2.906V19.473h2.906Zm13.56 9.482c0 .42-.027.799-.083 1.135h-8.406c.069.841.36 1.5.872 1.976.512.477 1.142.715 1.889.715 1.079 0 1.847-.47 2.304-1.408h3.134a5.36 5.36 0 0 1-1.91 2.775c-.941.715-2.096 1.072-3.466 1.072-1.107 0-2.103-.245-2.989-.736a5.381 5.381 0 0 1-2.055-2.123c-.484-.911-.726-1.962-.726-3.154 0-1.205.242-2.264.726-3.175a5.112 5.112 0 0 1 2.034-2.102c.872-.49 1.875-.736 3.01-.736 1.093 0 2.069.238 2.927.715a4.907 4.907 0 0 1 2.013 2.04c.484.868.726 1.87.726 3.006Zm-3.009-.841c-.014-.757-.284-1.36-.81-1.808-.526-.463-1.169-.694-1.93-.694-.72 0-1.328.224-1.827.673-.484.434-.781 1.044-.892 1.829h5.459Zm4.383 1.051c0-1.177.228-2.222.685-3.133.471-.91 1.1-1.612 1.889-2.102a5.03 5.03 0 0 1 2.677-.736c.858 0 1.606.175 2.242.526.65.35 1.169.792 1.557 1.324v-1.66h2.926V35.03h-2.926v-1.703c-.374.547-.893 1.002-1.557 1.367-.65.35-1.404.525-2.262.525a4.89 4.89 0 0 1-2.657-.757c-.789-.504-1.418-1.212-1.889-2.123-.457-.925-.685-1.984-.685-3.175Zm9.05.042c0-.715-.139-1.325-.415-1.83a2.866 2.866 0 0 0-1.121-1.176 2.912 2.912 0 0 0-1.515-.42c-.54 0-1.038.132-1.495.399-.456.266-.83.658-1.121 1.177-.276.505-.415 1.107-.415 1.808 0 .7.139 1.318.415 1.85.291.519.665.918 1.121 1.199.471.28.969.42 1.495.42.539 0 1.044-.133 1.515-.4a3.04 3.04 0 0 0 1.121-1.177c.276-.518.415-1.135.415-1.85Zm11.036-3.406h-2.013v9.23h-2.947v-9.23h-1.308v-2.418h1.308v-.588c0-1.43.401-2.481 1.204-3.154.802-.673 2.013-.988 3.632-.946v2.48c-.706-.013-1.197.106-1.474.358-.276.252-.415.708-.415 1.367v.483h2.013v2.418Z" fill="#fff"/><mask id="logo-web/footer__a" style="mask-type:alpha" maskUnits="userSpaceOnUse" x="0" y="9" width="39" height="39"><circle cx="19.009" cy="28.609" r="19.009" fill="#F578A5"/></mask><g mask="url(#logo-web/footer__a)"><circle cx="19.009" cy="28.609" r="19.009" fill="#fff"/><path d="M10.265 47.342v.416h18.463v-7.814a1.26 1.26 0 0 0-1.218-1.26l-15.942-.544a1.26 1.26 0 0 0-1.303 1.26v7.942Z" fill="#272727" stroke="#272727" stroke-width=".832"/><g clip-path="url(#logo-web/footer__b)"><path d="M13.927 22.948c3.874-5.387 2.208-9.77 2.213-9.776a.424.424 0 0 1 .588-.528c6.991 3.346 10 7.665 10.576 11.57a9.465 9.465 0 0 1-.417 4.516 9.058 9.058 0 0 1-2.242 3.535c-1.949 1.882-4.673 2.75-7.36 1.87a7.026 7.026 0 0 1-1.924-.975 7.16 7.16 0 0 1-2.562-3.393 6.925 6.925 0 0 1-.047-4.52 8.381 8.381 0 0 1 1.175-2.3Z" fill="#272727"/><path d="M16.225 13.311a.424.424 0 1 1 .618-.579c.016.014 3.391 3.553 3.874 10.391l.005.064a24.735 24.735 0 0 1-.154 4.792l2.308-1.769a.424.424 0 0 1 .525.665l-3.016 2.304c-.675 3.97-3.056 9.587.095 13.103a.424.424 0 0 1-.627.57c-3.779-4.212-1.029-9.43-.276-13.942l.01-.064c.305-1.796.41-3.62.312-5.439l-2.713-1.988a.425.425 0 1 1 .503-.683l2.102 1.547c-.656-5.928-3.554-8.958-3.566-8.972Z" fill="#fff"/></g></g><defs><clipPath id="logo-web/footer__b"><path fill="#fff" transform="rotate(-48 32.815 11.595)" d="M0 0h23.33v23.33H0z"/></clipPath></defs></svg>