<svg width="23" height="23" fill="none" xmlns="http://www.w3.org/2000/svg"><path fill-rule="evenodd" clip-rule="evenodd" d="M0 2.156a.719.719 0 0 1 .719-.719h2.156a.719.719 0 0 1 .697.545l.582 2.33h16.69a.72.72 0 0 1 .704.86l-1.437 7.188a.718.718 0 0 1-.669.576l-13.508.679.413 2.197h12.34a.719.719 0 1 1 0 1.438H5.75a.72.72 0 0 1-.706-.587L2.89 5.185l-.575-2.31H.72A.719.719 0 0 1 0 2.156ZM4.46 5.75l1.207 6.439 13.144-.66 1.156-5.779H4.459Zm2.728 11.5a2.875 2.875 0 1 0 0 5.75 2.875 2.875 0 0 0 0-5.75Zm10.062 0a2.875 2.875 0 1 0 0 5.75 2.875 2.875 0 0 0 0-5.75ZM7.187 18.688a1.438 1.438 0 1 0 0 2.875 1.438 1.438 0 0 0 0-2.875Zm10.063 0a1.438 1.438 0 1 0 0 2.875 1.438 1.438 0 0 0 0-2.875Z" fill="#272727"/></svg>