<svg width="164" height="137" fill="none" xmlns="http://www.w3.org/2000/svg"><path d="M8.925 122.88v1.488h-2.96V134H4.141v-9.632H1.165v-1.488h7.76Zm9.928 6.496c0 .331-.022.629-.064.896h-6.736c.053.704.314 1.269.784 1.696.469.427 1.045.64 1.728.64.981 0 1.674-.411 2.08-1.232h1.968a3.997 3.997 0 0 1-1.456 2c-.694.512-1.558.768-2.592.768-.843 0-1.6-.187-2.272-.56a4.183 4.183 0 0 1-1.568-1.6c-.374-.693-.56-1.493-.56-2.4 0-.907.181-1.701.544-2.384a3.937 3.937 0 0 1 1.552-1.6c.672-.373 1.44-.56 2.304-.56.832 0 1.573.181 2.224.544a3.84 3.84 0 0 1 1.52 1.536c.362.651.544 1.403.544 2.256Zm-1.904-.576c-.011-.672-.251-1.211-.72-1.616-.47-.405-1.051-.608-1.744-.608-.63 0-1.168.203-1.616.608-.448.395-.715.933-.8 1.616h4.88Zm5.523-2.336a2.82 2.82 0 0 1 1.056-1.04c.448-.256.976-.384 1.584-.384v1.888h-.464c-.715 0-1.259.181-1.632.544-.363.363-.544.992-.544 1.888V134h-1.824v-8.816h1.824v1.28Zm14.988-1.424c.694 0 1.312.144 1.856.432.555.288.987.715 1.296 1.28.32.565.48 1.248.48 2.048v5.2h-1.808v-4.928c0-.789-.197-1.392-.592-1.808-.394-.427-.933-.64-1.616-.64-.682 0-1.226.213-1.632.64-.394.416-.592 1.019-.592 1.808V134h-1.808v-4.928c0-.789-.197-1.392-.592-1.808-.394-.427-.933-.64-1.616-.64-.682 0-1.226.213-1.632.64-.394.416-.592 1.019-.592 1.808V134h-1.824v-8.816h1.824v1.008a3.032 3.032 0 0 1 1.136-.848 3.6 3.6 0 0 1 1.472-.304c.704 0 1.334.149 1.888.448a3.06 3.06 0 0 1 1.28 1.296c.267-.533.683-.955 1.248-1.264a3.642 3.642 0 0 1 1.824-.48Zm9.153 9.104c-.693 0-1.317-.123-1.872-.368-.544-.256-.976-.597-1.296-1.024a2.59 2.59 0 0 1-.512-1.456h1.888c.032.373.208.688.528.944.33.245.742.368 1.232.368.512 0 .907-.096 1.184-.288.288-.203.432-.459.432-.768 0-.331-.16-.576-.48-.736-.31-.16-.805-.336-1.488-.528-.661-.181-1.2-.357-1.616-.528a2.904 2.904 0 0 1-1.088-.784c-.298-.352-.448-.816-.448-1.392 0-.469.139-.896.416-1.28.278-.395.672-.704 1.184-.928.523-.224 1.12-.336 1.792-.336 1.003 0 1.808.256 2.416.768.619.501.95 1.189.992 2.064h-1.824a1.3 1.3 0 0 0-.48-.944c-.288-.235-.677-.352-1.168-.352-.48 0-.848.091-1.104.272a.841.841 0 0 0-.384.72c0 .235.086.432.256.592.17.16.379.288.624.384.246.085.608.197 1.088.336.64.171 1.163.347 1.568.528a2.84 2.84 0 0 1 1.072.768c.299.341.454.795.464 1.36 0 .501-.138.949-.416 1.344-.277.395-.672.704-1.184.928-.501.224-1.093.336-1.776.336ZM64.708 134l-1.376-1.376a5.51 5.51 0 0 1-1.744 1.2c-.629.256-1.333.384-2.112.384-.789 0-1.488-.139-2.096-.416-.608-.277-1.077-.672-1.408-1.184-.33-.523-.496-1.125-.496-1.808 0-.768.219-1.451.656-2.048.438-.608 1.088-1.088 1.952-1.44-.309-.373-.528-.72-.656-1.04a2.99 2.99 0 0 1-.192-1.088c0-.491.123-.928.368-1.312.256-.384.619-.688 1.088-.912.47-.224 1.014-.336 1.632-.336.63 0 1.163.123 1.6.368.448.235.779.56.992.976.224.416.315.88.272 1.392h-1.824c.011-.395-.085-.699-.288-.912-.202-.224-.48-.336-.832-.336s-.64.107-.864.32a.995.995 0 0 0-.32.752c0 .288.08.576.24.864.171.277.464.64.88 1.088l2.944 2.928 1.136-1.872h1.968l-1.44 2.464-.4.656L67.092 134h-2.384Zm-5.232-1.344c1.003 0 1.888-.411 2.656-1.232l-2.944-2.96c-1.258.501-1.888 1.259-1.888 2.272 0 .544.203 1.003.608 1.376.406.363.928.544 1.568.544Zm12.36-4.24c0-1.088.251-2.064.752-2.928a5.427 5.427 0 0 1 2.065-2.016 5.752 5.752 0 0 1 2.863-.736c1.184 0 2.235.293 3.152.88.928.576 1.6 1.397 2.016 2.464h-2.191c-.288-.587-.688-1.024-1.2-1.312-.513-.288-1.105-.432-1.777-.432-.736 0-1.392.165-1.968.496a3.504 3.504 0 0 0-1.36 1.424c-.32.619-.48 1.339-.48 2.16 0 .821.16 1.541.48 2.16a3.61 3.61 0 0 0 1.36 1.44c.576.331 1.233.496 1.968.496.672 0 1.264-.144 1.776-.432.513-.288.912-.725 1.2-1.312h2.192c-.415 1.067-1.087 1.888-2.016 2.464-.917.576-1.968.864-3.152.864-1.045 0-2-.24-2.864-.72a5.55 5.55 0 0 1-2.064-2.032c-.5-.864-.751-1.84-.751-2.928Zm16.808 5.728c-.833 0-1.585-.187-2.257-.56a4.149 4.149 0 0 1-1.584-1.6c-.383-.693-.575-1.493-.575-2.4 0-.896.197-1.691.592-2.384a4.09 4.09 0 0 1 1.616-1.6c.682-.373 1.445-.56 2.287-.56.843 0 1.606.187 2.288.56a4.09 4.09 0 0 1 1.617 1.6c.394.693.591 1.488.591 2.384 0 .896-.202 1.691-.607 2.384a4.254 4.254 0 0 1-1.664 1.616 4.785 4.785 0 0 1-2.304.56Zm0-1.584c.469 0 .906-.112 1.311-.336.416-.224.752-.56 1.008-1.008.257-.448.385-.992.385-1.632 0-.64-.123-1.179-.368-1.616a2.473 2.473 0 0 0-.977-1.008 2.67 2.67 0 0 0-1.311-.336c-.47 0-.907.112-1.313.336-.394.224-.709.56-.944 1.008-.234.437-.352.976-.352 1.616 0 .949.24 1.685.72 2.208.491.512 1.105.768 1.84.768Zm10.827-7.52c.693 0 1.312.144 1.856.432a3.07 3.07 0 0 1 1.296 1.28c.309.565.464 1.248.464 2.048v5.2h-1.808v-4.928c0-.789-.198-1.392-.592-1.808-.395-.427-.934-.64-1.616-.64-.683 0-1.227.213-1.632.64-.395.416-.592 1.019-.592 1.808V134h-1.824v-8.816h1.824v1.008a3.033 3.033 0 0 1 1.136-.848 3.706 3.706 0 0 1 1.488-.304Zm5.334 4.512c0-.885.182-1.669.544-2.352a4.066 4.066 0 0 1 3.632-2.16c.576 0 1.142.128 1.696.384.566.245 1.014.576 1.344.992v-4.256h1.84V134h-1.84v-1.328c-.298.427-.714.779-1.248 1.056-.522.277-1.125.416-1.808.416a4.028 4.028 0 0 1-2.112-.576 4.288 4.288 0 0 1-1.504-1.632c-.362-.704-.544-1.499-.544-2.384Zm7.216.032c0-.608-.128-1.136-.384-1.584a2.58 2.58 0 0 0-.976-1.024 2.568 2.568 0 0 0-1.312-.352c-.469 0-.906.117-1.312.352a2.58 2.58 0 0 0-.992 1.008c-.245.437-.368.96-.368 1.568 0 .608.123 1.141.368 1.6.256.459.587.811.992 1.056a2.63 2.63 0 0 0 2.624 0 2.58 2.58 0 0 0 .976-1.024c.256-.459.384-.992.384-1.6Zm5.164-5.568a1.13 1.13 0 0 1-.832-.336 1.13 1.13 0 0 1-.336-.832c0-.331.112-.608.336-.832a1.13 1.13 0 0 1 .832-.336c.32 0 .592.112.816.336.224.224.336.501.336.832 0 .331-.112.608-.336.832a1.11 1.11 0 0 1-.816.336Zm.896 1.168V134h-1.824v-8.816h1.824Zm4.523 1.488v4.88c0 .331.074.571.224.72.16.139.426.208.8.208h1.12V134h-1.44c-.822 0-1.451-.192-1.888-.576-.438-.384-.656-1.008-.656-1.872v-4.88h-1.04v-1.488h1.04v-2.192h1.84v2.192h2.144v1.488h-2.144Zm4.753-2.656a1.13 1.13 0 0 1-.832-.336 1.13 1.13 0 0 1-.336-.832c0-.331.112-.608.336-.832a1.13 1.13 0 0 1 .832-.336c.32 0 .592.112.816.336.224.224.336.501.336.832 0 .331-.112.608-.336.832a1.11 1.11 0 0 1-.816.336Zm.896 1.168V134h-1.824v-8.816h1.824Zm6.219 8.96c-.832 0-1.584-.187-2.256-.56a4.149 4.149 0 0 1-1.584-1.6c-.384-.693-.576-1.493-.576-2.4 0-.896.197-1.691.592-2.384a4.083 4.083 0 0 1 1.616-1.6c.682-.373 1.445-.56 2.288-.56.842 0 1.605.187 2.288.56a4.095 4.095 0 0 1 1.616 1.6c.394.693.592 1.488.592 2.384 0 .896-.203 1.691-.608 2.384a4.258 4.258 0 0 1-1.664 1.616 4.789 4.789 0 0 1-2.304.56Zm0-1.584c.469 0 .906-.112 1.312-.336.416-.224.752-.56 1.008-1.008.256-.448.384-.992.384-1.632 0-.64-.123-1.179-.368-1.616a2.479 2.479 0 0 0-.976-1.008 2.672 2.672 0 0 0-1.312-.336c-.47 0-.907.112-1.312.336-.395.224-.71.56-.944 1.008-.235.437-.352.976-.352 1.616 0 .949.24 1.685.72 2.208.49.512 1.104.768 1.84.768Zm10.827-7.52c.693 0 1.312.144 1.856.432a3.07 3.07 0 0 1 1.296 1.28c.309.565.464 1.248.464 2.048v5.2h-1.808v-4.928c0-.789-.198-1.392-.592-1.808-.395-.427-.934-.64-1.616-.64-.683 0-1.227.213-1.632.64-.395.416-.592 1.019-.592 1.808V134h-1.824v-8.816h1.824v1.008a3.025 3.025 0 0 1 1.136-.848 3.706 3.706 0 0 1 1.488-.304Zm9.142 9.104c-.693 0-1.317-.123-1.872-.368-.544-.256-.976-.597-1.296-1.024a2.596 2.596 0 0 1-.512-1.456h1.888c.032.373.208.688.528.944.331.245.742.368 1.232.368.512 0 .907-.096 1.184-.288.288-.203.432-.459.432-.768 0-.331-.16-.576-.48-.736-.309-.16-.805-.336-1.488-.528-.661-.181-1.2-.357-1.616-.528a2.91 2.91 0 0 1-1.088-.784c-.298-.352-.448-.816-.448-1.392 0-.469.139-.896.416-1.28.278-.395.672-.704 1.184-.928.523-.224 1.12-.336 1.792-.336 1.003 0 1.808.256 2.416.768.619.501.95 1.189.992 2.064h-1.824a1.3 1.3 0 0 0-.48-.944c-.288-.235-.677-.352-1.168-.352-.48 0-.848.091-1.104.272a.841.841 0 0 0-.384.72c0 .235.086.432.256.592.171.16.379.288.624.384.246.085.608.197 1.088.336.64.171 1.163.347 1.568.528a2.84 2.84 0 0 1 1.072.768c.299.341.454.795.464 1.36 0 .501-.138.949-.416 1.344-.277.395-.672.704-1.184.928-.501.224-1.093.336-1.776.336ZM9.517 91.192c0 .565-.133 1.099-.4 1.6-.266.501-.693.912-1.28 1.232-.586.31-1.338.464-2.256.464H3.565V99H1.741V87.88h3.84c.854 0 1.574.15 2.16.448.598.288 1.04.683 1.328 1.184a3.22 3.22 0 0 1 .448 1.68ZM5.581 93c.694 0 1.211-.155 1.552-.464.342-.32.512-.768.512-1.344 0-1.216-.688-1.824-2.064-1.824H3.565V93h2.016Zm7.5-1.536a2.822 2.822 0 0 1 1.056-1.04c.448-.256.976-.384 1.584-.384v1.888h-.464c-.715 0-1.259.181-1.632.544-.363.363-.544.992-.544 1.888V99h-1.824v-8.816h1.824v1.28Zm5.245-2.448a1.13 1.13 0 0 1-.832-.336 1.13 1.13 0 0 1-.336-.832c0-.33.112-.608.336-.832a1.13 1.13 0 0 1 .832-.336c.32 0 .592.112.816.336.224.224.336.501.336.832 0 .33-.112.608-.336.832a1.11 1.11 0 0 1-.816.336Zm.896 1.168V99h-1.824v-8.816h1.824Zm5.802 7.184 2.496-7.184h1.936L26.096 99H23.92l-3.344-8.816h1.952l2.496 7.184Zm5.203-2.816c0-.885.181-1.67.544-2.352a4.063 4.063 0 0 1 3.616-2.16c.694 0 1.296.139 1.808.416.523.267.939.603 1.248 1.008v-1.28h1.84V99h-1.84v-1.312c-.31.416-.73.763-1.264 1.04-.533.277-1.141.416-1.824.416a3.92 3.92 0 0 1-2.08-.576 4.276 4.276 0 0 1-1.504-1.632c-.363-.704-.544-1.499-.544-2.384Zm7.216.032c0-.608-.128-1.136-.384-1.584a2.584 2.584 0 0 0-.976-1.024 2.574 2.574 0 0 0-1.312-.352c-.47 0-.907.117-1.312.352a2.58 2.58 0 0 0-.992 1.008c-.245.437-.368.96-.368 1.568 0 .608.123 1.141.368 1.6.256.459.587.81.992 1.056a2.627 2.627 0 0 0 2.624 0c.406-.235.73-.576.976-1.024.256-.459.384-.992.384-1.6Zm3.628 0c0-.907.181-1.701.544-2.384a3.967 3.967 0 0 1 1.536-1.6c.65-.373 1.397-.56 2.24-.56 1.067 0 1.947.256 2.64.768.704.501 1.178 1.221 1.424 2.16h-1.968a2.081 2.081 0 0 0-.768-1.024c-.352-.245-.795-.368-1.328-.368-.747 0-1.344.267-1.792.8-.438.523-.656 1.259-.656 2.208 0 .95.218 1.69.656 2.224.448.533 1.045.8 1.792.8 1.056 0 1.755-.464 2.096-1.392h1.968c-.256.896-.736 1.61-1.44 2.144-.704.523-1.579.784-2.624.784-.843 0-1.59-.187-2.24-.56a4.105 4.105 0 0 1-1.536-1.6c-.363-.693-.544-1.493-.544-2.4Zm18.138-4.4-5.408 12.96h-1.888l1.792-4.288-3.472-8.672h2.032l2.48 6.72 2.576-6.72h1.888Zm13.308 1.008c0 .565-.133 1.099-.4 1.6-.266.501-.693.912-1.28 1.232-.586.31-1.338.464-2.256.464h-2.016V99h-1.824V87.88h3.84c.854 0 1.574.15 2.16.448.598.288 1.04.683 1.328 1.184a3.22 3.22 0 0 1 .448 1.68ZM68.581 93c.694 0 1.211-.155 1.552-.464.342-.32.512-.768.512-1.344 0-1.216-.688-1.824-2.064-1.824h-2.016V93h2.016Zm9.5 6.144c-.832 0-1.584-.187-2.256-.56a4.151 4.151 0 0 1-1.584-1.6c-.384-.693-.576-1.493-.576-2.4 0-.896.197-1.69.592-2.384a4.09 4.09 0 0 1 1.616-1.6c.683-.373 1.445-.56 2.288-.56.843 0 1.605.187 2.288.56a4.09 4.09 0 0 1 1.616 1.6c.395.693.592 1.488.592 2.384 0 .896-.203 1.69-.608 2.384a4.252 4.252 0 0 1-1.664 1.616 4.781 4.781 0 0 1-2.304.56Zm0-1.584c.47 0 .907-.112 1.312-.336.416-.224.752-.56 1.008-1.008.256-.448.384-.992.384-1.632 0-.64-.123-1.179-.368-1.616a2.473 2.473 0 0 0-.976-1.008 2.67 2.67 0 0 0-1.312-.336c-.47 0-.907.112-1.312.336-.395.224-.71.56-.944 1.008-.235.437-.352.976-.352 1.616 0 .95.24 1.685.72 2.208.49.512 1.104.768 1.84.768Zm8.203-10.4V99H84.46V87.16h1.824Zm3.323 1.856a1.13 1.13 0 0 1-.832-.336 1.13 1.13 0 0 1-.336-.832c0-.33.112-.608.336-.832a1.13 1.13 0 0 1 .832-.336c.32 0 .592.112.816.336.224.224.336.501.336.832 0 .33-.112.608-.336.832a1.11 1.11 0 0 1-.816.336Zm.896 1.168V99h-1.824v-8.816h1.824Zm1.787 4.4c0-.907.181-1.701.544-2.384a3.968 3.968 0 0 1 1.536-1.6c.65-.373 1.397-.56 2.24-.56 1.066 0 1.946.256 2.64.768.704.501 1.178 1.221 1.424 2.16h-1.968a2.081 2.081 0 0 0-.768-1.024c-.352-.245-.795-.368-1.328-.368-.747 0-1.344.267-1.792.8-.438.523-.656 1.259-.656 2.208 0 .95.218 1.69.656 2.224.448.533 1.045.8 1.792.8 1.056 0 1.754-.464 2.096-1.392h1.968c-.256.896-.736 1.61-1.44 2.144-.704.523-1.579.784-2.624.784-.843 0-1.59-.187-2.24-.56a4.107 4.107 0 0 1-1.536-1.6c-.363-.693-.544-1.493-.544-2.4Zm11.129-5.568c-.33 0-.608-.112-.832-.336a1.13 1.13 0 0 1-.336-.832c0-.33.112-.608.336-.832.224-.224.502-.336.832-.336.32 0 .592.112.816.336.224.224.336.501.336.832 0 .33-.112.608-.336.832a1.11 1.11 0 0 1-.816.336Zm.896 1.168V99h-1.824v-8.816h1.824Zm10.475 4.192c0 .33-.021.63-.064.896h-6.736c.053.704.315 1.27.784 1.696.469.427 1.045.64 1.728.64.981 0 1.675-.41 2.08-1.232h1.968a4 4 0 0 1-1.456 2c-.693.512-1.557.768-2.592.768-.843 0-1.6-.187-2.272-.56a4.187 4.187 0 0 1-1.568-1.6c-.373-.693-.56-1.493-.56-2.4 0-.907.181-1.701.544-2.384a3.936 3.936 0 0 1 1.552-1.6c.672-.373 1.44-.56 2.304-.56.832 0 1.573.181 2.224.544a3.83 3.83 0 0 1 1.52 1.536c.363.65.544 1.403.544 2.256Zm-1.904-.576c-.011-.672-.251-1.21-.72-1.616-.469-.405-1.051-.608-1.744-.608-.629 0-1.168.203-1.616.608-.448.395-.715.933-.8 1.616h4.88Zm6.899 5.344c-.693 0-1.317-.123-1.872-.368-.544-.256-.976-.597-1.296-1.024a2.588 2.588 0 0 1-.512-1.456h1.888c.032.373.208.688.528.944.331.245.741.368 1.232.368.512 0 .907-.096 1.184-.288.288-.203.432-.459.432-.768 0-.33-.16-.576-.48-.736-.309-.16-.805-.336-1.488-.528-.661-.181-1.2-.357-1.616-.528a2.898 2.898 0 0 1-1.088-.784c-.299-.352-.448-.816-.448-1.392 0-.47.139-.896.416-1.28.277-.395.672-.704 1.184-.928.523-.224 1.12-.336 1.792-.336 1.003 0 1.808.256 2.416.768.619.501.949 1.19.992 2.064h-1.824a1.3 1.3 0 0 0-.48-.944c-.288-.235-.677-.352-1.168-.352-.48 0-.848.09-1.104.272a.842.842 0 0 0-.384.72c0 .235.085.432.256.592.171.16.379.288.624.384.245.085.608.197 1.088.336.64.17 1.163.347 1.568.528.416.17.773.427 1.072.768.299.341.453.795.464 1.36 0 .501-.139.95-.416 1.344-.277.395-.672.704-1.184.928-.501.224-1.093.336-1.776.336ZM3.139 59.416c0-1.088.25-2.064.752-2.928a5.427 5.427 0 0 1 2.064-2.016 5.755 5.755 0 0 1 2.864-.736c1.184 0 2.234.293 3.152.88.928.576 1.6 1.397 2.016 2.464h-2.192c-.288-.587-.688-1.024-1.2-1.312-.512-.288-1.104-.432-1.776-.432-.736 0-1.392.165-1.968.496-.576.33-1.03.805-1.36 1.424-.32.619-.48 1.339-.48 2.16 0 .821.16 1.541.48 2.16.33.619.784 1.099 1.36 1.44.576.33 1.232.496 1.968.496.672 0 1.264-.144 1.776-.432.512-.288.912-.725 1.2-1.312h2.192c-.416 1.067-1.088 1.888-2.016 2.464-.918.576-1.968.864-3.152.864-1.046 0-2-.24-2.864-.72a5.548 5.548 0 0 1-2.064-2.032c-.502-.864-.752-1.84-.752-2.928Zm16.807 5.728c-.832 0-1.584-.187-2.256-.56a4.151 4.151 0 0 1-1.584-1.6c-.384-.693-.576-1.493-.576-2.4 0-.896.197-1.69.592-2.384a4.09 4.09 0 0 1 1.616-1.6c.682-.373 1.445-.56 2.288-.56.842 0 1.605.187 2.288.56a4.088 4.088 0 0 1 1.616 1.6c.394.693.592 1.488.592 2.384 0 .896-.203 1.69-.608 2.384a4.252 4.252 0 0 1-1.664 1.616 4.781 4.781 0 0 1-2.304.56Zm0-1.584c.469 0 .906-.112 1.312-.336.416-.224.752-.56 1.008-1.008.256-.448.384-.992.384-1.632 0-.64-.123-1.179-.368-1.616a2.472 2.472 0 0 0-.976-1.008 2.669 2.669 0 0 0-1.312-.336c-.47 0-.907.112-1.312.336-.395.224-.71.56-.944 1.008-.235.437-.352.976-.352 1.616 0 .95.24 1.685.72 2.208.49.512 1.104.768 1.84.768Zm10.827-7.52c.693 0 1.312.144 1.856.432a3.07 3.07 0 0 1 1.296 1.28c.31.565.464 1.248.464 2.048V65H32.58v-4.928c0-.79-.198-1.392-.592-1.808-.395-.427-.934-.64-1.616-.64-.683 0-1.227.213-1.632.64-.395.416-.592 1.019-.592 1.808V65h-1.824v-8.816h1.824v1.008a3.032 3.032 0 0 1 1.136-.848 3.71 3.71 0 0 1 1.488-.304Zm8.07 1.632v4.88c0 .33.075.57.224.72.16.139.427.208.8.208h1.12V65h-1.44c-.821 0-1.45-.192-1.888-.576-.437-.384-.656-1.008-.656-1.872v-4.88h-1.04v-1.488h1.04v-2.192h1.84v2.192h2.144v1.488h-2.144Zm3.217 2.88c0-.885.182-1.67.544-2.352a4.063 4.063 0 0 1 3.617-2.16c.693 0 1.296.139 1.808.416.522.267.938.603 1.247 1.008v-1.28h1.84V65h-1.84v-1.312c-.309.416-.73.763-1.264 1.04-.533.277-1.14.416-1.824.416a3.92 3.92 0 0 1-2.08-.576 4.275 4.275 0 0 1-1.503-1.632c-.363-.704-.544-1.499-.544-2.384Zm7.216.032c0-.608-.128-1.136-.384-1.584a2.584 2.584 0 0 0-.976-1.024 2.574 2.574 0 0 0-1.311-.352c-.47 0-.907.117-1.313.352a2.58 2.58 0 0 0-.992 1.008c-.245.437-.367.96-.367 1.568 0 .608.122 1.141.367 1.6.257.459.587.81.992 1.056a2.631 2.631 0 0 0 2.625 0c.405-.235.73-.576.975-1.024.256-.459.384-.992.384-1.6Zm3.628 0c0-.907.182-1.701.544-2.384a3.967 3.967 0 0 1 1.536-1.6c.65-.373 1.398-.56 2.24-.56 1.067 0 1.947.256 2.64.768.704.501 1.179 1.221 1.424 2.16H59.32a2.081 2.081 0 0 0-.768-1.024c-.352-.245-.794-.368-1.328-.368-.746 0-1.344.267-1.792.8-.437.523-.656 1.259-.656 2.208 0 .95.219 1.69.656 2.224.448.533 1.046.8 1.792.8 1.056 0 1.755-.464 2.096-1.392h1.968c-.256.896-.736 1.61-1.44 2.144-.704.523-1.578.784-2.624.784-.842 0-1.59-.187-2.24-.56a4.105 4.105 0 0 1-1.536-1.6c-.362-.693-.544-1.493-.544-2.4Zm12.33-2.912v4.88c0 .33.075.57.224.72.16.139.427.208.8.208h1.12V65h-1.44c-.821 0-1.45-.192-1.888-.576-.437-.384-.656-1.008-.656-1.872v-4.88h-1.04v-1.488h1.04v-2.192h1.84v2.192h2.144v1.488h-2.144Zm9.79-3.792v7.088c0 .843.218 1.477.655 1.904.448.427 1.067.64 1.856.64.8 0 1.419-.213 1.856-.64.448-.427.672-1.061.672-1.904V53.88h1.824v7.056c0 .907-.197 1.675-.592 2.304a3.674 3.674 0 0 1-1.584 1.408 5.11 5.11 0 0 1-2.192.464c-.8 0-1.53-.155-2.192-.464a3.595 3.595 0 0 1-1.552-1.408c-.384-.63-.576-1.397-.576-2.304V53.88h1.824Zm12.438 11.264c-.693 0-1.317-.123-1.872-.368-.544-.256-.976-.597-1.296-1.024a2.59 2.59 0 0 1-.512-1.456h1.888c.032.373.208.688.528.944.33.245.742.368 1.232.368.512 0 .907-.096 1.184-.288.288-.203.432-.459.432-.768 0-.33-.16-.576-.48-.736-.31-.16-.805-.336-1.488-.528a14.42 14.42 0 0 1-1.616-.528 2.9 2.9 0 0 1-1.088-.784c-.298-.352-.448-.816-.448-1.392 0-.47.139-.896.416-1.28.278-.395.672-.704 1.184-.928.523-.224 1.12-.336 1.792-.336 1.003 0 1.808.256 2.416.768.619.501.95 1.19.992 2.064h-1.824a1.3 1.3 0 0 0-.48-.944c-.288-.235-.677-.352-1.168-.352-.48 0-.848.09-1.104.272a.842.842 0 0 0-.384.72.78.78 0 0 0 .256.592c.17.16.379.288.624.384.246.085.608.197 1.088.336.64.17 1.163.347 1.568.528.416.17.774.427 1.072.768.299.341.454.795.464 1.36 0 .501-.138.95-.416 1.344-.277.395-.672.704-1.184.928-.501.224-1.093.336-1.776.336Z" fill="#fff"/><path d="M3.565 8.88V20H1.741V8.88h1.824Zm6.843 2.16c.694 0 1.312.144 1.856.432a3.06 3.06 0 0 1 1.296 1.28c.31.565.464 1.248.464 2.048V20h-1.808v-4.928c0-.79-.197-1.392-.592-1.808-.395-.427-.933-.64-1.616-.64s-1.227.213-1.632.64c-.395.416-.592 1.019-.592 1.808V20H5.96v-8.816h1.824v1.008a3.033 3.033 0 0 1 1.136-.848 3.71 3.71 0 0 1 1.488-.304Zm9.639 1.632h-1.632V20h-1.84v-7.328h-1.04v-1.488h1.04v-.624c0-1.013.266-1.75.8-2.208.544-.47 1.392-.704 2.544-.704v1.52c-.555 0-.944.107-1.168.32-.224.203-.336.56-.336 1.072v.624h1.632v1.488Zm5.44 7.472c-.832 0-1.584-.187-2.256-.56a4.151 4.151 0 0 1-1.584-1.6c-.384-.693-.576-1.493-.576-2.4 0-.896.198-1.69.592-2.384a4.088 4.088 0 0 1 1.616-1.6c.683-.373 1.446-.56 2.288-.56.843 0 1.606.187 2.288.56a4.09 4.09 0 0 1 1.616 1.6c.395.693.592 1.488.592 2.384 0 .896-.202 1.69-.608 2.384a4.252 4.252 0 0 1-1.664 1.616 4.782 4.782 0 0 1-2.304.56Zm0-1.584c.47 0 .907-.112 1.312-.336.416-.224.752-.56 1.008-1.008.256-.448.384-.992.384-1.632 0-.64-.122-1.179-.368-1.616a2.473 2.473 0 0 0-.976-1.008 2.67 2.67 0 0 0-1.312-.336c-.47 0-.906.112-1.312.336-.394.224-.71.56-.944 1.008-.234.437-.352.976-.352 1.616 0 .95.24 1.685.72 2.208.49.512 1.104.768 1.84.768Z" fill="#56B280"/></svg>