<svg width="346" height="35" fill="none" xmlns="http://www.w3.org/2000/svg"><path d="M34.08 3.88V15h-1.824v-4.864h-5.232V15H25.2V3.88h1.824v4.768h5.232V3.88h1.824Zm1.793 6.672c0-.885.182-1.67.544-2.352a4.062 4.062 0 0 1 3.616-2.16c.694 0 1.296.139 1.808.416.523.267.939.603 1.248 1.008v-1.28h1.84V15h-1.84v-1.312c-.31.416-.73.763-1.264 1.04-.533.277-1.141.416-1.824.416a3.92 3.92 0 0 1-2.08-.576 4.275 4.275 0 0 1-1.504-1.632c-.362-.704-.544-1.499-.544-2.384Zm7.216.032c0-.608-.128-1.136-.384-1.584a2.585 2.585 0 0 0-.976-1.024 2.575 2.575 0 0 0-1.312-.352c-.47 0-.906.117-1.312.352a2.58 2.58 0 0 0-.992 1.008c-.245.437-.368.96-.368 1.568 0 .608.123 1.141.368 1.6.256.459.587.81.992 1.056a2.63 2.63 0 0 0 2.624 0c.406-.235.73-.576.976-1.024.256-.459.384-.992.384-1.6Zm8.684-4.544c.693 0 1.312.144 1.856.432a3.06 3.06 0 0 1 1.296 1.28c.31.565.464 1.248.464 2.048V15h-1.808v-4.928c0-.79-.197-1.392-.592-1.808-.395-.427-.933-.64-1.616-.64s-1.227.213-1.632.64c-.395.416-.592 1.019-.592 1.808V15h-1.824V6.184h1.824v1.008a3.033 3.033 0 0 1 1.136-.848 3.71 3.71 0 0 1 1.488-.304Zm5.335 4.512c0-.885.181-1.67.544-2.352a4.064 4.064 0 0 1 3.632-2.16 4.01 4.01 0 0 1 1.696.384c.565.245 1.013.576 1.344.992V3.16h1.84V15h-1.84v-1.328c-.299.427-.715.779-1.248 1.056-.523.277-1.126.416-1.808.416a4.028 4.028 0 0 1-2.112-.576 4.276 4.276 0 0 1-1.504-1.632c-.363-.704-.544-1.499-.544-2.384Zm7.216.032c0-.608-.128-1.136-.384-1.584a2.584 2.584 0 0 0-.976-1.024 2.574 2.574 0 0 0-1.312-.352c-.47 0-.907.117-1.312.352-.406.224-.736.56-.992 1.008-.246.437-.368.96-.368 1.568 0 .608.122 1.141.368 1.6.256.459.586.81.992 1.056a2.627 2.627 0 0 0 2.624 0c.405-.235.73-.576.976-1.024.256-.459.384-.992.384-1.6ZM79.23 6.04c.694 0 1.312.144 1.856.432.555.288.987.715 1.296 1.28.32.565.48 1.248.48 2.048V15h-1.808v-4.928c0-.79-.197-1.392-.592-1.808-.394-.427-.933-.64-1.616-.64-.682 0-1.226.213-1.632.64-.394.416-.592 1.019-.592 1.808V15h-1.808v-4.928c0-.79-.197-1.392-.592-1.808-.394-.427-.933-.64-1.616-.64-.682 0-1.226.213-1.632.64-.394.416-.592 1.019-.592 1.808V15H68.56V6.184h1.824v1.008a3.032 3.032 0 0 1 1.136-.848 3.6 3.6 0 0 1 1.472-.304c.704 0 1.334.15 1.888.448.555.299.982.73 1.28 1.296.267-.533.683-.955 1.248-1.264a3.642 3.642 0 0 1 1.824-.48Zm5.345 4.512c0-.885.182-1.67.544-2.352a4.062 4.062 0 0 1 3.616-2.16c.694 0 1.296.139 1.808.416.523.267.939.603 1.248 1.008v-1.28h1.84V15h-1.84v-1.312c-.309.416-.73.763-1.264 1.04-.533.277-1.141.416-1.824.416a3.92 3.92 0 0 1-2.08-.576 4.275 4.275 0 0 1-1.504-1.632c-.362-.704-.544-1.499-.544-2.384Zm7.216.032c0-.608-.128-1.136-.384-1.584a2.585 2.585 0 0 0-.976-1.024 2.575 2.575 0 0 0-1.312-.352c-.469 0-.906.117-1.312.352a2.58 2.58 0 0 0-.992 1.008c-.245.437-.368.96-.368 1.568 0 .608.123 1.141.368 1.6.256.459.587.81.992 1.056a2.63 2.63 0 0 0 2.624 0 2.58 2.58 0 0 0 .976-1.024c.256-.459.384-.992.384-1.6Zm3.628-.032c0-.885.181-1.67.544-2.352a4.064 4.064 0 0 1 3.632-2.16 4.01 4.01 0 0 1 1.696.384c.565.245 1.013.576 1.344.992V3.16h1.84V15h-1.84v-1.328c-.299.427-.715.779-1.248 1.056-.523.277-1.125.416-1.808.416a4.028 4.028 0 0 1-2.112-.576 4.276 4.276 0 0 1-1.504-1.632c-.362-.704-.544-1.499-.544-2.384Zm7.216.032c0-.608-.128-1.136-.384-1.584a2.584 2.584 0 0 0-.976-1.024 2.574 2.574 0 0 0-1.312-.352c-.47 0-.906.117-1.312.352a2.58 2.58 0 0 0-.992 1.008c-.245.437-.368.96-.368 1.568 0 .608.123 1.141.368 1.6.256.459.587.81.992 1.056a2.627 2.627 0 0 0 2.624 0c.405-.235.731-.576.976-1.024.256-.459.384-.992.384-1.6Zm12.316-.208c0 .33-.021.63-.064.896h-6.736c.053.704.315 1.27.784 1.696.469.427 1.045.64 1.728.64.981 0 1.675-.41 2.08-1.232h1.968a4 4 0 0 1-1.456 2c-.693.512-1.557.768-2.592.768-.843 0-1.6-.187-2.272-.56a4.187 4.187 0 0 1-1.568-1.6c-.373-.693-.56-1.493-.56-2.4 0-.907.181-1.701.544-2.384a3.936 3.936 0 0 1 1.552-1.6c.672-.373 1.44-.56 2.304-.56.832 0 1.573.181 2.224.544a3.83 3.83 0 0 1 1.52 1.536c.363.65.544 1.403.544 2.256Zm-1.904-.576c-.011-.672-.251-1.21-.72-1.616-.469-.405-1.051-.608-1.744-.608-.629 0-1.168.203-1.616.608-.448.395-.715.933-.8 1.616h4.88Zm4.435 5.312a1.13 1.13 0 0 1-.832-.336 1.13 1.13 0 0 1-.336-.832c0-.33.112-.608.336-.832a1.13 1.13 0 0 1 .832-.336c.32 0 .592.112.816.336.224.224.336.501.336.832 0 .33-.112.608-.336.832a1.11 1.11 0 0 1-.816.336Zm0-6.72a1.13 1.13 0 0 1-.832-.336 1.13 1.13 0 0 1-.336-.832c0-.33.112-.608.336-.832a1.13 1.13 0 0 1 .832-.336c.32 0 .592.112.816.336.224.224.336.501.336.832 0 .33-.112.608-.336.832a1.11 1.11 0 0 1-.816.336Zm13.966 4.128h-4.864l-.896 2.48h-1.536l4.032-11.088h1.68L133.881 15h-1.536l-.896-2.48Zm-.416-1.184-2.016-5.632L127 11.336h4.032Zm6.061-8.176V15h-1.456V3.16h1.456Zm3.938 0V15h-1.456V3.16h1.456Zm6.203 7.44c0-.907.181-1.696.544-2.368a3.92 3.92 0 0 1 1.504-1.584c.651-.373 1.392-.56 2.224-.56 1.077 0 1.963.261 2.656.784.704.523 1.168 1.248 1.392 2.176h-1.568a2.238 2.238 0 0 0-.88-1.264c-.427-.31-.96-.464-1.6-.464-.832 0-1.504.288-2.016.864-.512.565-.768 1.37-.768 2.416 0 1.056.256 1.872.768 2.448.512.576 1.184.864 2.016.864.64 0 1.173-.15 1.6-.448.427-.299.72-.725.88-1.28h1.568c-.235.896-.704 1.616-1.408 2.16-.704.533-1.584.8-2.64.8-.832 0-1.573-.187-2.224-.56A3.92 3.92 0 0 1 147.779 13c-.363-.683-.544-1.483-.544-2.4Zm9.719-.016c0-.896.181-1.68.544-2.352a3.943 3.943 0 0 1 1.488-1.584 4.145 4.145 0 0 1 2.128-.56c.768 0 1.434.165 2 .496.565.33.986.747 1.264 1.248v-1.6h1.472V15h-1.472v-1.632c-.288.512-.72.939-1.296 1.28-.566.33-1.227.496-1.984.496a3.973 3.973 0 0 1-2.112-.576 4.03 4.03 0 0 1-1.488-1.616c-.363-.693-.544-1.483-.544-2.368Zm7.424.016c0-.661-.134-1.237-.4-1.728a2.76 2.76 0 0 0-1.088-1.12 2.854 2.854 0 0 0-1.488-.4c-.544 0-1.04.128-1.488.384-.448.256-.806.63-1.072 1.12-.267.49-.4 1.067-.4 1.728 0 .672.133 1.259.4 1.76.266.49.624.87 1.072 1.136.448.256.944.384 1.488.384s1.04-.128 1.488-.384a2.87 2.87 0 0 0 1.088-1.136c.266-.501.4-1.083.4-1.744Zm8.204-4.528c1.067 0 1.931.325 2.592.976.661.64.992 1.568.992 2.784V15h-1.44v-4.96c0-.875-.219-1.541-.656-2-.437-.47-1.035-.704-1.792-.704-.768 0-1.381.24-1.84.72-.448.48-.672 1.179-.672 2.096V15h-1.456V6.232h1.456V7.48a2.9 2.9 0 0 1 1.168-1.04 3.698 3.698 0 0 1 1.648-.368ZM178 10.584c0-.896.181-1.68.544-2.352a3.943 3.943 0 0 1 1.488-1.584 4.175 4.175 0 0 1 2.144-.56c.682 0 1.317.16 1.904.48.586.31 1.034.72 1.344 1.232V3.16h1.472V15h-1.472v-1.648c-.288.523-.715.955-1.28 1.296-.566.33-1.227.496-1.984.496a4.056 4.056 0 0 1-2.128-.576 4.03 4.03 0 0 1-1.488-1.616c-.363-.693-.544-1.483-.544-2.368Zm7.424.016c0-.661-.134-1.237-.4-1.728a2.76 2.76 0 0 0-1.088-1.12 2.854 2.854 0 0 0-1.488-.4c-.544 0-1.04.128-1.488.384-.448.256-.806.63-1.072 1.12-.267.49-.4 1.067-.4 1.728 0 .672.133 1.259.4 1.76.266.49.624.87 1.072 1.136.448.256.944.384 1.488.384s1.04-.128 1.488-.384a2.87 2.87 0 0 0 1.088-1.136c.266-.501.4-1.083.4-1.744Zm5.388-7.44V15h-1.456V3.16h1.456Zm10.482 7.12c0 .277-.016.57-.048.88h-7.008c.053.864.346 1.541.88 2.032.544.48 1.2.72 1.968.72.629 0 1.152-.144 1.568-.432.426-.299.725-.693.896-1.184h1.568a3.81 3.81 0 0 1-1.408 2.064c-.704.523-1.579.784-2.624.784-.832 0-1.579-.187-2.24-.56A3.988 3.988 0 0 1 193.311 13c-.374-.693-.56-1.493-.56-2.4 0-.907.181-1.701.544-2.384a3.775 3.775 0 0 1 1.52-1.568c.661-.373 1.418-.56 2.272-.56.832 0 1.568.181 2.208.544.64.363 1.13.864 1.472 1.504.352.63.528 1.344.528 2.144Zm-1.504-.304c0-.555-.123-1.03-.368-1.424a2.323 2.323 0 0 0-1.008-.912 3.006 3.006 0 0 0-1.392-.32c-.736 0-1.366.235-1.888.704-.512.47-.806 1.12-.88 1.952h5.536Zm6.529 5.168c-.672 0-1.274-.112-1.808-.336-.533-.235-.954-.555-1.264-.96a2.598 2.598 0 0 1-.512-1.424h1.504c.043.437.246.795.608 1.072.374.277.859.416 1.456.416.555 0 .992-.123 1.312-.368.32-.245.48-.555.48-.928a.897.897 0 0 0-.512-.848c-.341-.192-.869-.379-1.584-.56-.65-.17-1.184-.341-1.6-.512a3.044 3.044 0 0 1-1.056-.784c-.288-.352-.432-.81-.432-1.376 0-.448.134-.859.4-1.232.267-.373.646-.667 1.136-.88.491-.224 1.051-.336 1.68-.336.971 0 1.755.245 2.352.736.598.49.918 1.163.96 2.016h-1.456a1.492 1.492 0 0 0-.56-1.104c-.33-.277-.778-.416-1.344-.416-.522 0-.938.112-1.248.336-.309.224-.464.517-.464.88 0 .288.091.528.272.72.192.181.427.33.704.448.288.107.683.23 1.184.368.63.17 1.142.341 1.536.512.395.16.731.405 1.008.736.288.33.438.763.448 1.296 0 .48-.133.912-.4 1.296-.266.384-.645.688-1.136.912-.48.213-1.034.32-1.664.32Zm8.977-4.56c0-.896.182-1.68.544-2.352a3.956 3.956 0 0 1 1.488-1.584 4.15 4.15 0 0 1 2.128-.56c.768 0 1.435.165 2 .496.566.33.987.747 1.264 1.248v-1.6h1.472V15h-1.472v-1.632c-.288.512-.72.939-1.296 1.28-.565.33-1.226.496-1.984.496a3.978 3.978 0 0 1-2.112-.576 4.045 4.045 0 0 1-1.488-1.616c-.362-.693-.544-1.483-.544-2.368Zm7.424.016c0-.661-.133-1.237-.4-1.728a2.747 2.747 0 0 0-1.088-1.12 2.854 2.854 0 0 0-1.488-.4c-.544 0-1.04.128-1.488.384-.448.256-.805.63-1.072 1.12-.266.49-.4 1.067-.4 1.728 0 .672.134 1.259.4 1.76.267.49.624.87 1.072 1.136.448.256.944.384 1.488.384s1.04-.128 1.488-.384a2.857 2.857 0 0 0 1.088-1.136c.267-.501.4-1.083.4-1.744Zm5.389-2.944a2.81 2.81 0 0 1 1.088-1.168c.48-.277 1.061-.416 1.744-.416v1.504h-.384c-1.632 0-2.448.885-2.448 2.656V15h-1.456V6.232h1.456v1.424Zm12.513 2.624c0 .277-.016.57-.048.88h-7.008c.053.864.346 1.541.88 2.032.544.48 1.2.72 1.968.72.629 0 1.152-.144 1.568-.432.426-.299.725-.693.896-1.184h1.568a3.81 3.81 0 0 1-1.408 2.064c-.704.523-1.579.784-2.624.784-.832 0-1.579-.187-2.24-.56A3.988 3.988 0 0 1 232.639 13c-.374-.693-.56-1.493-.56-2.4 0-.907.181-1.701.544-2.384a3.775 3.775 0 0 1 1.52-1.568c.661-.373 1.418-.56 2.272-.56.832 0 1.568.181 2.208.544.64.363 1.13.864 1.472 1.504.352.63.528 1.344.528 2.144Zm-1.504-.304c0-.555-.123-1.03-.368-1.424a2.323 2.323 0 0 0-1.008-.912 3.006 3.006 0 0 0-1.392-.32c-.736 0-1.366.235-1.888.704-.512.47-.806 1.12-.88 1.952h5.536Zm7.147.624c0-.907.181-1.696.544-2.368a3.92 3.92 0 0 1 1.504-1.584c.651-.373 1.392-.56 2.224-.56 1.077 0 1.963.261 2.656.784.704.523 1.168 1.248 1.392 2.176h-1.568a2.238 2.238 0 0 0-.88-1.264c-.427-.31-.96-.464-1.6-.464-.832 0-1.504.288-2.016.864-.512.565-.768 1.37-.768 2.416 0 1.056.256 1.872.768 2.448.512.576 1.184.864 2.016.864.64 0 1.173-.15 1.6-.448.427-.299.72-.725.88-1.28h1.568c-.235.896-.704 1.616-1.408 2.16-.704.533-1.584.8-2.64.8-.832 0-1.573-.187-2.224-.56A3.92 3.92 0 0 1 246.81 13c-.363-.683-.544-1.483-.544-2.4Zm11.719-2.944a2.81 2.81 0 0 1 1.088-1.168c.48-.277 1.061-.416 1.744-.416v1.504h-.384c-1.632 0-2.448.885-2.448 2.656V15h-1.456V6.232h1.456v1.424Zm3.969 2.928c0-.896.181-1.68.544-2.352a3.943 3.943 0 0 1 1.488-1.584 4.145 4.145 0 0 1 2.128-.56c.768 0 1.434.165 2 .496.565.33.986.747 1.264 1.248v-1.6h1.472V15h-1.472v-1.632c-.288.512-.72.939-1.296 1.28-.566.33-1.227.496-1.984.496a3.973 3.973 0 0 1-2.112-.576 4.03 4.03 0 0 1-1.488-1.616c-.363-.693-.544-1.483-.544-2.368Zm7.424.016c0-.661-.134-1.237-.4-1.728a2.76 2.76 0 0 0-1.088-1.12 2.854 2.854 0 0 0-1.488-.4c-.544 0-1.04.128-1.488.384-.448.256-.806.63-1.072 1.12-.267.49-.4 1.067-.4 1.728 0 .672.133 1.259.4 1.76.266.49.624.87 1.072 1.136.448.256.944.384 1.488.384s1.04-.128 1.488-.384a2.87 2.87 0 0 0 1.088-1.136c.266-.501.4-1.083.4-1.744Zm7.5-3.168h-1.84V15h-1.456V7.432h-1.136v-1.2h1.136v-.624c0-.981.251-1.696.752-2.144.512-.459 1.328-.688 2.448-.688v1.216c-.64 0-1.093.128-1.36.384-.256.245-.384.656-.384 1.232v.624h1.84v1.2Zm3.474 0V12.6c0 .427.09.73.272.912.181.17.496.256.944.256h1.072V15h-1.312c-.811 0-1.419-.187-1.824-.56-.406-.373-.608-.987-.608-1.84V7.432h-1.136v-1.2h1.136V4.024h1.456v2.208h2.288v1.2h-2.288Zm5.508-4.272V15h-1.456V3.16h1.456Zm10.033 3.072-5.28 12.896h-1.504l1.728-4.224-3.536-8.672h1.616l2.752 7.104 2.72-7.104h1.504ZM35.776 25.072c.683 0 1.29.144 1.824.432.533.277.955.699 1.264 1.264.31.565.464 1.253.464 2.064V34h-1.44v-4.96c0-.875-.219-1.541-.656-2-.427-.47-1.008-.704-1.744-.704-.757 0-1.36.245-1.808.736-.448.48-.672 1.179-.672 2.096V34h-1.44v-4.96c0-.875-.219-1.541-.656-2-.427-.47-1.008-.704-1.744-.704-.757 0-1.36.245-1.808.736-.448.48-.672 1.179-.672 2.096V34h-1.456v-8.768h1.456v1.264a2.89 2.89 0 0 1 1.152-1.056 3.563 3.563 0 0 1 1.616-.368c.736 0 1.387.165 1.952.496.565.33.987.816 1.264 1.456a2.876 2.876 0 0 1 1.216-1.44 3.582 3.582 0 0 1 1.888-.512Zm5.396 4.512c0-.896.182-1.68.544-2.352a3.95 3.95 0 0 1 1.488-1.584 4.15 4.15 0 0 1 2.128-.56c.768 0 1.435.165 2 .496.566.33.987.747 1.264 1.248v-1.6h1.472V34h-1.472v-1.632c-.288.512-.72.939-1.296 1.28-.565.33-1.226.496-1.984.496a3.974 3.974 0 0 1-2.112-.576 4.04 4.04 0 0 1-1.488-1.616c-.362-.693-.544-1.483-.544-2.368Zm7.424.016c0-.661-.133-1.237-.4-1.728a2.754 2.754 0 0 0-1.088-1.12 2.854 2.854 0 0 0-1.488-.4c-.544 0-1.04.128-1.488.384-.448.256-.805.63-1.072 1.12-.266.49-.4 1.067-.4 1.728 0 .672.134 1.259.4 1.76a2.9 2.9 0 0 0 1.072 1.136c.448.256.944.384 1.488.384s1.04-.128 1.488-.384a2.864 2.864 0 0 0 1.088-1.136c.267-.501.4-1.083.4-1.744Zm3.389-.016c0-.896.181-1.68.544-2.352a3.95 3.95 0 0 1 1.488-1.584 4.176 4.176 0 0 1 2.144-.56c.682 0 1.317.16 1.904.48.587.31 1.035.72 1.344 1.232v-4.64h1.472V34h-1.472v-1.648c-.288.523-.715.955-1.28 1.296-.566.33-1.227.496-1.984.496a4.057 4.057 0 0 1-2.128-.576 4.04 4.04 0 0 1-1.488-1.616c-.363-.693-.544-1.483-.544-2.368Zm7.424.016c0-.661-.133-1.237-.4-1.728a2.754 2.754 0 0 0-1.088-1.12 2.854 2.854 0 0 0-1.488-.4c-.544 0-1.04.128-1.488.384-.448.256-.806.63-1.072 1.12-.267.49-.4 1.067-.4 1.728 0 .672.133 1.259.4 1.76a2.9 2.9 0 0 0 1.072 1.136c.448.256.944.384 1.488.384s1.04-.128 1.488-.384a2.864 2.864 0 0 0 1.088-1.136c.267-.501.4-1.083.4-1.744Zm11.932-.32c0 .277-.016.57-.048.88h-7.008c.054.864.347 1.541.88 2.032.544.48 1.2.72 1.968.72.63 0 1.152-.144 1.568-.432.427-.299.726-.693.896-1.184h1.568a3.808 3.808 0 0 1-1.408 2.064c-.704.523-1.578.784-2.624.784-.832 0-1.578-.187-2.24-.56A3.992 3.992 0 0 1 63.357 32c-.373-.693-.56-1.493-.56-2.4 0-.907.182-1.701.544-2.384a3.78 3.78 0 0 1 1.52-1.568c.662-.373 1.419-.56 2.272-.56.832 0 1.568.181 2.208.544a3.7 3.7 0 0 1 1.472 1.504c.352.63.528 1.344.528 2.144Zm-1.504-.304c0-.555-.122-1.03-.368-1.424a2.317 2.317 0 0 0-1.008-.912 3.006 3.006 0 0 0-1.392-.32c-.736 0-1.365.235-1.888.704-.512.47-.805 1.12-.88 1.952h5.536Zm19.372-3.744L86.473 34h-1.504l-2.112-6.96L80.745 34H79.24l-2.752-8.768h1.488l2.016 7.36 2.176-7.36h1.488l2.128 7.376 1.984-7.376h1.44Zm2.197-1.424a.958.958 0 0 1-.704-.288.958.958 0 0 1-.288-.704c0-.277.096-.512.288-.704a.958.958 0 0 1 .704-.288.89.89 0 0 1 .672.288.958.958 0 0 1 .288.704.958.958 0 0 1-.288.704.888.888 0 0 1-.672.288Zm.704 1.424V34h-1.456v-8.768h1.456Zm4.257 1.2V31.6c0 .427.091.73.272.912.182.17.496.256.944.256h1.072V34h-1.312c-.81 0-1.418-.187-1.824-.56-.405-.373-.608-.987-.608-1.84v-5.168h-1.136v-1.2h1.136v-2.208h1.456v2.208h2.288v1.2h-2.288Zm8.405-1.36c.661 0 1.258.144 1.792.432a2.92 2.92 0 0 1 1.248 1.264c.309.565.464 1.253.464 2.064V34h-1.44v-4.96c0-.875-.219-1.541-.656-2-.438-.47-1.035-.704-1.792-.704-.768 0-1.382.24-1.84.72-.448.48-.672 1.179-.672 2.096V34h-1.456V22.16h1.456v4.32a2.875 2.875 0 0 1 1.184-1.04 3.91 3.91 0 0 1 1.712-.368Zm11.604-2.912V34h-1.456V22.16h1.456Zm6.305 11.984a4.535 4.535 0 0 1-2.24-.56A4.072 4.072 0 0 1 118.873 32c-.373-.693-.56-1.493-.56-2.4 0-.896.192-1.685.576-2.368a4.011 4.011 0 0 1 1.6-1.584c.672-.373 1.424-.56 2.256-.56.832 0 1.584.187 2.256.56.672.363 1.2.885 1.584 1.568.395.683.592 1.477.592 2.384 0 .907-.203 1.707-.608 2.4a4.118 4.118 0 0 1-1.616 1.584c-.683.373-1.44.56-2.272.56Zm0-1.28c.523 0 1.013-.123 1.472-.368a2.744 2.744 0 0 0 1.104-1.104c.288-.49.432-1.088.432-1.792s-.139-1.301-.416-1.792c-.277-.49-.64-.853-1.088-1.088a2.982 2.982 0 0 0-1.456-.368c-.533 0-1.024.123-1.472.368-.437.235-.789.597-1.056 1.088-.267.49-.4 1.088-.4 1.792 0 .715.128 1.317.384 1.808.267.49.619.859 1.056 1.104.437.235.917.352 1.44.352Zm9.674-.208 2.72-7.424h1.552L133.187 34h-1.696l-3.44-8.768h1.568l2.736 7.424Zm13.705-3.376c0 .277-.016.57-.048.88h-7.008c.053.864.347 1.541.88 2.032.544.48 1.2.72 1.968.72.629 0 1.152-.144 1.568-.432.427-.299.725-.693.896-1.184h1.568a3.81 3.81 0 0 1-1.408 2.064c-.704.523-1.579.784-2.624.784-.832 0-1.579-.187-2.24-.56A3.988 3.988 0 0 1 138.076 32c-.373-.693-.56-1.493-.56-2.4 0-.907.181-1.701.544-2.384a3.781 3.781 0 0 1 1.52-1.568c.661-.373 1.419-.56 2.272-.56.832 0 1.568.181 2.208.544a3.7 3.7 0 0 1 1.472 1.504c.352.63.528 1.344.528 2.144Zm-1.504-.304c0-.555-.123-1.03-.368-1.424a2.313 2.313 0 0 0-1.008-.912 3.006 3.006 0 0 0-1.392-.32c-.736 0-1.365.235-1.888.704-.512.47-.805 1.12-.88 1.952h5.536Zm3.89 5.12a.958.958 0 0 1-.704-.288.958.958 0 0 1-.288-.704c0-.277.096-.512.288-.704a.958.958 0 0 1 .704-.288c.267 0 .491.096.672.288a.958.958 0 0 1 .288.704.958.958 0 0 1-.288.704.886.886 0 0 1-.672.288ZM7 19c-3.85 0-7-3.15-7-7s3.15-7 7-7 7 3.15 7 7-3.15 7-7 7ZM7 5.875C3.631 5.875.875 8.631.875 12S3.631 18.125 7 18.125s6.125-2.756 6.125-6.125S10.369 5.875 7 5.875Z" fill="#000"/><path d="M5.686 14.8 3.63 12.744l.613-.613 1.443 1.444 4.07-4.069.612.613L5.686 14.8Z" fill="#000"/></svg>