<svg width="346" height="44" fill="none" xmlns="http://www.w3.org/2000/svg"><path d="M27.024 18.528h3.76V20H25.2V8.88h1.824v9.648Zm9.11 1.616c-.833 0-1.585-.187-2.257-.56a4.151 4.151 0 0 1-1.584-1.6c-.384-.693-.576-1.493-.576-2.4 0-.896.198-1.69.592-2.384a4.088 4.088 0 0 1 1.616-1.6c.683-.373 1.446-.56 2.288-.56.843 0 1.606.187 2.288.56a4.09 4.09 0 0 1 1.616 1.6c.395.693.592 1.488.592 2.384 0 .896-.202 1.69-.608 2.384a4.252 4.252 0 0 1-1.664 1.616 4.782 4.782 0 0 1-2.304.56Zm0-1.584c.469 0 .906-.112 1.311-.336.416-.224.752-.56 1.008-1.008.256-.448.384-.992.384-1.632 0-.64-.122-1.179-.368-1.616a2.473 2.473 0 0 0-.976-1.008 2.67 2.67 0 0 0-1.312-.336c-.469 0-.906.112-1.312.336-.394.224-.709.56-.944 1.008-.234.437-.352.976-.352 1.616 0 .95.24 1.685.72 2.208.491.512 1.104.768 1.84.768Zm10.827-7.52c.693 0 1.312.144 1.855.432a3.06 3.06 0 0 1 1.296 1.28c.31.565.465 1.248.465 2.048V20h-1.808v-4.928c0-.79-.198-1.392-.593-1.808-.394-.427-.933-.64-1.616-.64-.682 0-1.226.213-1.632.64-.394.416-.591 1.019-.591 1.808V20h-1.825v-8.816h1.825v1.008a3.033 3.033 0 0 1 1.135-.848c.47-.203.966-.304 1.489-.304Zm9.494 0c.683 0 1.285.139 1.808.416.534.267.95.603 1.248 1.008v-1.28h1.84v8.96c0 .81-.17 1.53-.512 2.16a3.673 3.673 0 0 1-1.488 1.504c-.64.363-1.408.544-2.304.544-1.194 0-2.186-.283-2.976-.848-.79-.555-1.237-1.312-1.344-2.272h1.808c.139.459.432.827.88 1.104.459.288 1.003.432 1.632.432.736 0 1.328-.224 1.776-.672.459-.448.688-1.099.688-1.952v-1.472c-.31.416-.73.768-1.264 1.056-.523.277-1.12.416-1.792.416a4.028 4.028 0 0 1-2.112-.576 4.276 4.276 0 0 1-1.504-1.632c-.362-.704-.544-1.499-.544-2.384 0-.885.181-1.67.544-2.352a4.063 4.063 0 0 1 3.616-2.16Zm3.056 4.544c0-.608-.128-1.136-.384-1.584a2.584 2.584 0 0 0-.976-1.024 2.574 2.574 0 0 0-1.312-.352c-.47 0-.907.117-1.312.352a2.58 2.58 0 0 0-.992 1.008c-.245.437-.368.96-.368 1.568 0 .608.123 1.141.368 1.6.256.459.587.81.992 1.056a2.627 2.627 0 0 0 2.624 0c.405-.235.73-.576.976-1.024.256-.459.384-.992.384-1.6Zm10.216-3.088c.31-.427.73-.773 1.264-1.04a3.923 3.923 0 0 1 1.808-.416c.779 0 1.483.187 2.112.56.63.373 1.126.907 1.488 1.6.363.683.544 1.467.544 2.352 0 .885-.181 1.68-.544 2.384a4.116 4.116 0 0 1-1.504 1.632 3.945 3.945 0 0 1-2.096.576c-.683 0-1.29-.133-1.824-.4-.522-.267-.938-.608-1.248-1.024V20h-1.824V8.16h1.824v4.336Zm5.36 3.056c0-.608-.128-1.13-.384-1.568a2.443 2.443 0 0 0-.992-1.008 2.574 2.574 0 0 0-1.312-.352c-.459 0-.896.117-1.312.352A2.697 2.697 0 0 0 70.095 14c-.245.448-.368.976-.368 1.584 0 .608.123 1.141.368 1.6.256.448.587.79.992 1.024a2.627 2.627 0 0 0 2.624 0 2.63 2.63 0 0 0 .992-1.056c.256-.459.384-.992.384-1.6Zm11.644-4.368V20h-1.824v-1.04a3.01 3.01 0 0 1-1.136.864 3.6 3.6 0 0 1-1.472.304c-.694 0-1.318-.144-1.872-.432a3.184 3.184 0 0 1-1.296-1.28c-.31-.565-.464-1.248-.464-2.048v-5.184h1.808v4.912c0 .79.197 1.397.592 1.824.395.416.933.624 1.616.624.682 0 1.221-.208 1.616-.624.405-.427.608-1.035.608-1.824v-4.912h1.824Zm4.23 1.28a2.822 2.822 0 0 1 1.056-1.04c.449-.256.977-.384 1.585-.384v1.888h-.465c-.714 0-1.258.181-1.632.544-.362.363-.543.992-.543 1.888V20h-1.825v-8.816h1.825v1.28Zm8.765-1.424c.693 0 1.312.144 1.856.432.555.288.987.715 1.296 1.28.309.565.464 1.248.464 2.048V20h-1.808v-4.928c0-.79-.197-1.392-.592-1.808-.395-.427-.933-.64-1.616-.64-.682 0-1.226.213-1.632.64-.395.416-.592 1.019-.592 1.808V20h-1.824v-8.816h1.824v1.008a3.033 3.033 0 0 1 1.136-.848c.47-.203.966-.304 1.488-.304Zm6.871-1.024a1.13 1.13 0 0 1-.832-.336 1.13 1.13 0 0 1-.336-.832c0-.33.112-.608.336-.832a1.13 1.13 0 0 1 .832-.336c.32 0 .592.112.816.336.224.224.336.501.336.832 0 .33-.112.608-.336.832a1.11 1.11 0 0 1-.816.336Zm.896 1.168V20h-1.824v-8.816h1.824Zm6.843-.144c.693 0 1.312.144 1.856.432a3.07 3.07 0 0 1 1.296 1.28c.309.565.464 1.248.464 2.048V20h-1.808v-4.928c0-.79-.198-1.392-.592-1.808-.395-.427-.934-.64-1.616-.64-.683 0-1.227.213-1.632.64-.395.416-.592 1.019-.592 1.808V20h-1.824v-8.816h1.824v1.008a3.025 3.025 0 0 1 1.136-.848 3.71 3.71 0 0 1 1.488-.304Zm9.494 0c.683 0 1.285.139 1.808.416.533.267.949.603 1.248 1.008v-1.28h1.84v8.96c0 .81-.171 1.53-.512 2.16a3.67 3.67 0 0 1-1.488 1.504c-.64.363-1.408.544-2.304.544-1.195 0-2.187-.283-2.976-.848-.789-.555-1.237-1.312-1.344-2.272h1.808c.139.459.432.827.88 1.104.459.288 1.003.432 1.632.432.736 0 1.328-.224 1.776-.672.459-.448.688-1.099.688-1.952v-1.472c-.309.416-.731.768-1.264 1.056-.523.277-1.12.416-1.792.416a4.028 4.028 0 0 1-2.112-.576 4.275 4.275 0 0 1-1.504-1.632c-.363-.704-.544-1.499-.544-2.384 0-.885.181-1.67.544-2.352a4.063 4.063 0 0 1 3.616-2.16Zm3.056 4.544c0-.608-.128-1.136-.384-1.584a2.584 2.584 0 0 0-.976-1.024 2.574 2.574 0 0 0-1.312-.352c-.469 0-.907.117-1.312.352a2.58 2.58 0 0 0-.992 1.008c-.245.437-.368.96-.368 1.568 0 .608.123 1.141.368 1.6.256.459.587.81.992 1.056a2.63 2.63 0 0 0 1.312.352c.469 0 .907-.117 1.312-.352s.731-.576.976-1.024c.256-.459.384-.992.384-1.6Zm4.972 4.528a1.13 1.13 0 0 1-.832-.336 1.13 1.13 0 0 1-.336-.832c0-.33.112-.608.336-.832a1.13 1.13 0 0 1 .832-.336c.32 0 .592.112.816.336.224.224.336.501.336.832 0 .33-.112.608-.336.832a1.11 1.11 0 0 1-.816.336Zm0-6.72a1.13 1.13 0 0 1-.832-.336 1.13 1.13 0 0 1-.336-.832c0-.33.112-.608.336-.832a1.13 1.13 0 0 1 .832-.336c.32 0 .592.112.816.336.224.224.336.501.336.832 0 .33-.112.608-.336.832a1.11 1.11 0 0 1-.816.336ZM148.109 20h-1.456l-5.856-8.88V20h-1.456V8.832h1.456l5.856 8.864V8.832h1.456V20Zm6.306.144a4.535 4.535 0 0 1-2.24-.56A4.072 4.072 0 0 1 150.607 18c-.373-.693-.56-1.493-.56-2.4 0-.896.192-1.685.576-2.368a4.011 4.011 0 0 1 1.6-1.584c.672-.373 1.424-.56 2.256-.56.832 0 1.584.187 2.256.56.672.363 1.2.885 1.584 1.568.395.683.592 1.477.592 2.384 0 .907-.202 1.707-.608 2.4a4.112 4.112 0 0 1-1.616 1.584c-.682.373-1.44.56-2.272.56Zm0-1.28c.523 0 1.014-.123 1.472-.368a2.744 2.744 0 0 0 1.104-1.104c.288-.49.432-1.088.432-1.792s-.138-1.301-.416-1.792c-.277-.49-.64-.853-1.088-1.088a2.982 2.982 0 0 0-1.456-.368c-.533 0-1.024.123-1.472.368-.437.235-.789.597-1.056 1.088-.266.49-.4 1.088-.4 1.792 0 .715.128 1.317.384 1.808.267.49.619.859 1.056 1.104a3 3 0 0 0 1.44.352Zm21.22-7.792c.683 0 1.291.144 1.824.432.534.277.955.699 1.264 1.264.31.565.464 1.253.464 2.064V20h-1.44v-4.96c0-.875-.218-1.541-.656-2-.426-.47-1.008-.704-1.744-.704-.757 0-1.36.245-1.808.736-.448.48-.672 1.179-.672 2.096V20h-1.44v-4.96c0-.875-.218-1.541-.656-2-.426-.47-1.008-.704-1.744-.704-.757 0-1.36.245-1.808.736-.448.48-.672 1.179-.672 2.096V20h-1.456v-8.768h1.456v1.264a2.89 2.89 0 0 1 1.152-1.056 3.566 3.566 0 0 1 1.616-.368c.736 0 1.387.165 1.952.496.566.33.987.816 1.264 1.456a2.88 2.88 0 0 1 1.216-1.44 3.585 3.585 0 0 1 1.888-.512Zm9.765 9.072a4.532 4.532 0 0 1-2.24-.56A4.065 4.065 0 0 1 181.592 18c-.374-.693-.56-1.493-.56-2.4 0-.896.192-1.685.576-2.368a4.005 4.005 0 0 1 1.6-1.584c.672-.373 1.424-.56 2.256-.56.832 0 1.584.187 2.256.56.672.363 1.2.885 1.584 1.568.394.683.592 1.477.592 2.384 0 .907-.203 1.707-.608 2.4a4.125 4.125 0 0 1-1.616 1.584c-.683.373-1.44.56-2.272.56Zm0-1.28c.522 0 1.013-.123 1.472-.368a2.756 2.756 0 0 0 1.104-1.104c.288-.49.432-1.088.432-1.792s-.139-1.301-.416-1.792c-.278-.49-.64-.853-1.088-1.088a2.985 2.985 0 0 0-1.456-.368c-.534 0-1.024.123-1.472.368-.438.235-.79.597-1.056 1.088-.267.49-.4 1.088-.4 1.792 0 .715.128 1.317.384 1.808.266.49.618.859 1.056 1.104.437.235.917.352 1.44.352Zm7.866-6.208a2.81 2.81 0 0 1 1.088-1.168c.48-.277 1.061-.416 1.744-.416v1.504h-.384c-1.632 0-2.448.885-2.448 2.656V20h-1.456v-8.768h1.456v1.424Zm12.513 2.624c0 .277-.016.57-.048.88h-7.008c.053.864.347 1.541.88 2.032.544.48 1.2.72 1.968.72.629 0 1.152-.144 1.568-.432.427-.299.725-.693.896-1.184h1.568a3.81 3.81 0 0 1-1.408 2.064c-.704.523-1.579.784-2.624.784-.832 0-1.579-.187-2.24-.56A3.988 3.988 0 0 1 197.795 18c-.373-.693-.56-1.493-.56-2.4 0-.907.181-1.701.544-2.384a3.781 3.781 0 0 1 1.52-1.568c.661-.373 1.419-.56 2.272-.56.832 0 1.568.181 2.208.544a3.7 3.7 0 0 1 1.472 1.504c.352.63.528 1.344.528 2.144Zm-1.504-.304c0-.555-.123-1.03-.368-1.424a2.313 2.313 0 0 0-1.008-.912 3.006 3.006 0 0 0-1.392-.32c-.736 0-1.365.235-1.888.704-.512.47-.805 1.12-.88 1.952h5.536Zm19.371-3.744L220.91 20h-1.504l-2.112-6.96-2.112 6.96h-1.504l-2.752-8.768h1.488l2.016 7.36 2.176-7.36h1.488l2.128 7.376 1.984-7.376h1.44Zm.901 4.352c0-.896.182-1.68.544-2.352a3.956 3.956 0 0 1 1.488-1.584 4.15 4.15 0 0 1 2.128-.56c.768 0 1.435.165 2 .496.566.33.987.747 1.264 1.248v-1.6h1.472V20h-1.472v-1.632c-.288.512-.72.939-1.296 1.28-.565.33-1.226.496-1.984.496a3.978 3.978 0 0 1-2.112-.576 4.045 4.045 0 0 1-1.488-1.616c-.362-.693-.544-1.483-.544-2.368Zm7.424.016c0-.661-.133-1.237-.4-1.728a2.747 2.747 0 0 0-1.088-1.12 2.854 2.854 0 0 0-1.488-.4c-.544 0-1.04.128-1.488.384-.448.256-.805.63-1.072 1.12-.266.49-.4 1.067-.4 1.728 0 .672.134 1.259.4 1.76.267.49.624.87 1.072 1.136.448.256.944.384 1.488.384s1.04-.128 1.488-.384a2.857 2.857 0 0 0 1.088-1.136c.267-.501.4-1.083.4-1.744Zm7.037 4.544c-.672 0-1.275-.112-1.808-.336-.533-.235-.955-.555-1.264-.96a2.598 2.598 0 0 1-.512-1.424h1.504c.043.437.245.795.608 1.072.373.277.859.416 1.456.416.555 0 .992-.123 1.312-.368.32-.245.48-.555.48-.928 0-.384-.171-.667-.512-.848-.341-.192-.869-.379-1.584-.56a13.017 13.017 0 0 1-1.6-.512 3.044 3.044 0 0 1-1.056-.784c-.288-.352-.432-.81-.432-1.376 0-.448.133-.859.4-1.232s.645-.667 1.136-.88c.491-.224 1.051-.336 1.68-.336.971 0 1.755.245 2.352.736.597.49.917 1.163.96 2.016h-1.456a1.495 1.495 0 0 0-.56-1.104c-.331-.277-.779-.416-1.344-.416-.523 0-.939.112-1.248.336-.309.224-.464.517-.464.88 0 .288.091.528.272.72.192.181.427.33.704.448.288.107.683.23 1.184.368.629.17 1.141.341 1.536.512.395.16.731.405 1.008.736.288.33.437.763.448 1.296 0 .48-.133.912-.4 1.296s-.645.688-1.136.912c-.48.213-1.035.32-1.664.32Zm7.031-7.712V17.6c0 .427.091.73.272.912.182.17.496.256.944.256h1.072V20h-1.312c-.81 0-1.418-.187-1.824-.56-.405-.373-.608-.987-.608-1.84v-5.168h-1.136v-1.2h1.136V9.024h1.456v2.208h2.288v1.2h-2.288Zm12.052 2.848c0 .277-.016.57-.048.88h-7.008c.054.864.347 1.541.88 2.032.544.48 1.2.72 1.968.72.63 0 1.152-.144 1.568-.432.427-.299.726-.693.896-1.184h1.568a3.804 3.804 0 0 1-1.408 2.064c-.704.523-1.578.784-2.624.784-.832 0-1.578-.187-2.24-.56A4.001 4.001 0 0 1 250.107 18c-.373-.693-.56-1.493-.56-2.4 0-.907.182-1.701.544-2.384a3.787 3.787 0 0 1 1.52-1.568c.662-.373 1.419-.56 2.272-.56.832 0 1.568.181 2.208.544a3.7 3.7 0 0 1 1.472 1.504c.352.63.528 1.344.528 2.144Zm-1.504-.304c0-.555-.122-1.03-.368-1.424a2.313 2.313 0 0 0-1.008-.912 3.006 3.006 0 0 0-1.392-.32c-.736 0-1.365.235-1.888.704-.512.47-.805 1.12-.88 1.952h5.536Zm3.89 5.12a.958.958 0 0 1-.704-.288.958.958 0 0 1-.288-.704c0-.277.096-.512.288-.704a.958.958 0 0 1 .704-.288c.267 0 .491.096.672.288a.958.958 0 0 1 .288.704.958.958 0 0 1-.288.704.886.886 0 0 1-.672.288Zm6.617-5.68c0-1.088.246-2.064.736-2.928a5.356 5.356 0 0 1 2-2.048 5.59 5.59 0 0 1 2.832-.736c1.216 0 2.278.293 3.184.88.907.587 1.568 1.419 1.984 2.496h-1.744c-.309-.672-.757-1.19-1.344-1.552-.576-.363-1.269-.544-2.08-.544-.778 0-1.477.181-2.096.544a3.797 3.797 0 0 0-1.456 1.552c-.352.661-.528 1.44-.528 2.336 0 .885.176 1.664.528 2.336a3.821 3.821 0 0 0 1.456 1.536c.619.363 1.318.544 2.096.544.811 0 1.504-.176 2.08-.528.587-.363 1.035-.88 1.344-1.552h1.744c-.416 1.067-1.077 1.893-1.984 2.48-.906.576-1.968.864-3.184.864-1.034 0-1.978-.24-2.832-.72a5.388 5.388 0 0 1-2-2.032c-.49-.864-.736-1.84-.736-2.928Zm14.36-1.76a2.81 2.81 0 0 1 1.088-1.168c.48-.277 1.061-.416 1.744-.416v1.504h-.384c-1.632 0-2.448.885-2.448 2.656V20h-1.456v-8.768h1.456v1.424Zm12.512 2.624c0 .277-.016.57-.048.88h-7.008c.054.864.347 1.541.88 2.032.544.48 1.2.72 1.968.72.63 0 1.152-.144 1.568-.432.427-.299.726-.693.896-1.184h1.568a3.804 3.804 0 0 1-1.408 2.064c-.704.523-1.578.784-2.624.784-.832 0-1.578-.187-2.24-.56A4.001 4.001 0 0 1 285.982 18c-.373-.693-.56-1.493-.56-2.4 0-.907.182-1.701.544-2.384a3.787 3.787 0 0 1 1.52-1.568c.662-.373 1.419-.56 2.272-.56.832 0 1.568.181 2.208.544a3.7 3.7 0 0 1 1.472 1.504c.352.63.528 1.344.528 2.144Zm-1.504-.304c0-.555-.122-1.03-.368-1.424a2.313 2.313 0 0 0-1.008-.912 3.006 3.006 0 0 0-1.392-.32c-.736 0-1.365.235-1.888.704-.512.47-.805 1.12-.88 1.952h5.536Zm2.882.608c0-.896.182-1.68.544-2.352a3.956 3.956 0 0 1 1.488-1.584 4.15 4.15 0 0 1 2.128-.56c.768 0 1.435.165 2 .496.566.33.987.747 1.264 1.248v-1.6h1.472V20h-1.472v-1.632c-.288.512-.72.939-1.296 1.28-.565.33-1.226.496-1.984.496a3.978 3.978 0 0 1-2.112-.576 4.045 4.045 0 0 1-1.488-1.616c-.362-.693-.544-1.483-.544-2.368Zm7.424.016c0-.661-.133-1.237-.4-1.728a2.747 2.747 0 0 0-1.088-1.12 2.854 2.854 0 0 0-1.488-.4c-.544 0-1.04.128-1.488.384-.448.256-.805.63-1.072 1.12-.266.49-.4 1.067-.4 1.728 0 .672.134 1.259.4 1.76.267.49.624.87 1.072 1.136.448.256.944.384 1.488.384s1.04-.128 1.488-.384a2.857 2.857 0 0 0 1.088-1.136c.267-.501.4-1.083.4-1.744Zm5.709-3.168V17.6c0 .427.09.73.272.912.181.17.496.256.944.256h1.072V20h-1.312c-.811 0-1.419-.187-1.824-.56-.406-.373-.608-.987-.608-1.84v-5.168h-1.136v-1.2h1.136V9.024h1.456v2.208h2.288v1.2h-2.288Zm12.052 2.848c0 .277-.016.57-.048.88h-7.008c.053.864.347 1.541.88 2.032.544.48 1.2.72 1.968.72.629 0 1.152-.144 1.568-.432.427-.299.725-.693.896-1.184h1.568a3.81 3.81 0 0 1-1.408 2.064c-.704.523-1.579.784-2.624.784-.832 0-1.579-.187-2.24-.56A3.988 3.988 0 0 1 312.545 18c-.373-.693-.56-1.493-.56-2.4 0-.907.181-1.701.544-2.384a3.781 3.781 0 0 1 1.52-1.568c.661-.373 1.419-.56 2.272-.56.832 0 1.568.181 2.208.544a3.7 3.7 0 0 1 1.472 1.504c.352.63.528 1.344.528 2.144Zm-1.504-.304c0-.555-.123-1.03-.368-1.424a2.313 2.313 0 0 0-1.008-.912 3.006 3.006 0 0 0-1.392-.32c-.736 0-1.365.235-1.888.704-.512.47-.805 1.12-.88 1.952h5.536Zm2.882.608c0-.896.181-1.68.544-2.352a3.942 3.942 0 0 1 1.488-1.584 4.175 4.175 0 0 1 2.144-.56c.682 0 1.317.16 1.904.48.586.31 1.034.72 1.344 1.232V8.16h1.472V20h-1.472v-1.648c-.288.523-.715.955-1.28 1.296-.566.33-1.227.496-1.984.496a4.056 4.056 0 0 1-2.128-.576 4.03 4.03 0 0 1-1.488-1.616c-.363-.693-.544-1.483-.544-2.368Zm7.424.016c0-.661-.134-1.237-.4-1.728a2.76 2.76 0 0 0-1.088-1.12 2.854 2.854 0 0 0-1.488-.4c-.544 0-1.04.128-1.488.384-.448.256-.806.63-1.072 1.12-.267.49-.4 1.067-.4 1.728 0 .672.133 1.259.4 1.76.266.49.624.87 1.072 1.136.448.256.944.384 1.488.384s1.04-.128 1.488-.384a2.87 2.87 0 0 0 1.088-1.136c.266-.501.4-1.083.4-1.744ZM28.8 31.432h-1.84V39h-1.456v-7.568h-1.136v-1.2h1.136v-.624c0-.981.25-1.696.752-2.144.512-.459 1.328-.688 2.448-.688v1.216c-.64 0-1.093.128-1.36.384-.256.245-.384.656-.384 1.232v.624h1.84v1.2Zm5.522 7.712a4.534 4.534 0 0 1-2.24-.56A4.07 4.07 0 0 1 30.514 37c-.374-.693-.56-1.493-.56-2.4 0-.896.192-1.685.576-2.368a4.01 4.01 0 0 1 1.6-1.584c.672-.373 1.424-.56 2.256-.56.832 0 1.584.187 2.256.56.672.363 1.2.885 1.584 1.568.394.683.592 1.477.592 2.384 0 .907-.203 1.707-.608 2.4a4.118 4.118 0 0 1-1.616 1.584c-.683.373-1.44.56-2.272.56Zm0-1.28c.522 0 1.013-.123 1.472-.368a2.748 2.748 0 0 0 1.104-1.104c.288-.49.432-1.088.432-1.792s-.139-1.301-.416-1.792c-.278-.49-.64-.853-1.088-1.088a2.983 2.983 0 0 0-1.456-.368c-.534 0-1.024.123-1.472.368-.438.235-.79.597-1.056 1.088-.267.49-.4 1.088-.4 1.792 0 .715.128 1.317.384 1.808.266.49.618.859 1.056 1.104.437.235.917.352 1.44.352Zm7.866-6.208c.256-.501.619-.89 1.088-1.168.48-.277 1.061-.416 1.744-.416v1.504h-.384c-1.632 0-2.448.885-2.448 2.656V39h-1.456v-8.768h1.456v1.424Zm10.234-4.496V39h-1.456V27.16h1.456Zm1.938 7.424c0-.896.181-1.68.544-2.352a3.95 3.95 0 0 1 1.488-1.584 4.15 4.15 0 0 1 2.128-.56c.768 0 1.434.165 2 .496.565.33.986.747 1.264 1.248v-1.6h1.472V39h-1.472v-1.632c-.288.512-.72.939-1.296 1.28-.566.33-1.227.496-1.984.496a3.974 3.974 0 0 1-2.112-.576 4.04 4.04 0 0 1-1.488-1.616c-.363-.693-.544-1.483-.544-2.368Zm7.424.016c0-.661-.133-1.237-.4-1.728a2.754 2.754 0 0 0-1.088-1.12 2.854 2.854 0 0 0-1.488-.4c-.544 0-1.04.128-1.488.384-.448.256-.806.63-1.072 1.12-.267.49-.4 1.067-.4 1.728 0 .672.133 1.259.4 1.76a2.9 2.9 0 0 0 1.072 1.136c.448.256.944.384 1.488.384s1.04-.128 1.488-.384a2.864 2.864 0 0 0 1.088-1.136c.267-.501.4-1.083.4-1.744Zm7.036 4.544c-.672 0-1.274-.112-1.808-.336-.533-.235-.954-.555-1.264-.96a2.596 2.596 0 0 1-.512-1.424h1.504c.043.437.246.795.608 1.072.374.277.859.416 1.456.416.555 0 .992-.123 1.312-.368.32-.245.48-.555.48-.928a.897.897 0 0 0-.512-.848c-.341-.192-.869-.379-1.584-.56-.65-.17-1.184-.341-1.6-.512a3.037 3.037 0 0 1-1.056-.784c-.288-.352-.432-.81-.432-1.376 0-.448.134-.859.4-1.232.267-.373.646-.667 1.136-.88.491-.224 1.051-.336 1.68-.336.971 0 1.755.245 2.352.736.598.49.918 1.163.96 2.016h-1.456a1.494 1.494 0 0 0-.56-1.104c-.33-.277-.778-.416-1.344-.416-.522 0-.938.112-1.248.336-.309.224-.464.517-.464.88 0 .288.091.528.272.72.192.181.427.33.704.448.288.107.683.23 1.184.368.63.17 1.142.341 1.536.512.395.16.731.405 1.008.736.288.33.438.763.448 1.296 0 .48-.133.912-.4 1.296-.266.384-.645.688-1.136.912-.48.213-1.034.32-1.664.32Zm7.032-7.712V36.6c0 .427.09.73.272.912.181.17.496.256.944.256h1.072V39h-1.312c-.81 0-1.419-.187-1.824-.56-.406-.373-.608-.987-.608-1.84v-5.168H73.26v-1.2h1.136v-2.208h1.456v2.208h2.288v1.2h-2.288Zm9.773-4.272V39H84.17V27.16h1.457Zm6.306 11.984a4.534 4.534 0 0 1-2.24-.56A4.07 4.07 0 0 1 88.123 37c-.373-.693-.56-1.493-.56-2.4 0-.896.192-1.685.576-2.368a4.01 4.01 0 0 1 1.6-1.584c.672-.373 1.424-.56 2.256-.56.832 0 1.584.187 2.256.56.672.363 1.2.885 1.584 1.568.395.683.592 1.477.592 2.384 0 .907-.203 1.707-.608 2.4a4.118 4.118 0 0 1-1.616 1.584c-.683.373-1.44.56-2.272.56Zm0-1.28c.523 0 1.013-.123 1.472-.368a2.748 2.748 0 0 0 1.104-1.104c.288-.49.432-1.088.432-1.792s-.139-1.301-.416-1.792c-.277-.49-.64-.853-1.088-1.088a2.983 2.983 0 0 0-1.456-.368c-.533 0-1.024.123-1.472.368-.437.235-.79.597-1.056 1.088-.267.49-.4 1.088-.4 1.792 0 .715.128 1.317.384 1.808.267.49.619.859 1.056 1.104.437.235.917.352 1.44.352Zm10.682-7.792c1.067 0 1.931.325 2.592.976.662.64.992 1.568.992 2.784V39h-1.44v-4.96c0-.875-.218-1.541-.656-2-.437-.47-1.034-.704-1.792-.704-.768 0-1.381.24-1.84.72-.448.48-.672 1.179-.672 2.096V39h-1.456v-8.768h1.456v1.248a2.903 2.903 0 0 1 1.168-1.04 3.702 3.702 0 0 1 1.648-.368Zm9.579.016c.757 0 1.418.165 1.984.496.576.33 1.002.747 1.28 1.248v-1.6h1.472v8.96c0 .8-.171 1.51-.512 2.128a3.627 3.627 0 0 1-1.472 1.472c-.63.352-1.366.528-2.208.528-1.152 0-2.112-.272-2.88-.816-.768-.544-1.222-1.285-1.36-2.224h1.44c.16.533.49.96.992 1.28.501.33 1.104.496 1.808.496.8 0 1.45-.25 1.952-.752.512-.501.768-1.205.768-2.112v-1.84c-.288.512-.715.939-1.28 1.28-.566.341-1.227.512-1.984.512a4.056 4.056 0 0 1-2.128-.576 4.03 4.03 0 0 1-1.488-1.616c-.363-.693-.544-1.483-.544-2.368 0-.896.181-1.68.544-2.352a3.942 3.942 0 0 1 1.488-1.584 4.145 4.145 0 0 1 2.128-.56Zm3.264 4.512c0-.661-.134-1.237-.4-1.728a2.76 2.76 0 0 0-1.088-1.12 2.854 2.854 0 0 0-1.488-.4c-.544 0-1.04.128-1.488.384-.448.256-.806.63-1.072 1.12-.267.49-.4 1.067-.4 1.728 0 .672.133 1.259.4 1.76.266.49.624.87 1.072 1.136.448.256.944.384 1.488.384s1.04-.128 1.488-.384a2.87 2.87 0 0 0 1.088-1.136c.266-.501.4-1.083.4-1.744Zm4.396 4.496a.958.958 0 0 1-.704-.288.958.958 0 0 1-.288-.704c0-.277.096-.512.288-.704a.958.958 0 0 1 .704-.288c.267 0 .491.096.672.288a.958.958 0 0 1 .288.704.958.958 0 0 1-.288.704.886.886 0 0 1-.672.288ZM7 21c-3.85 0-7-3.15-7-7s3.15-7 7-7 7 3.15 7 7-3.15 7-7 7ZM7 7.875C3.631 7.875.875 10.631.875 14S3.631 20.125 7 20.125s6.125-2.756 6.125-6.125S10.369 7.875 7 7.875Z" fill="#000"/><path d="M5.686 16.8 3.63 14.744l.613-.613 1.443 1.444 4.07-4.069.612.613L5.686 16.8Z" fill="#000"/></svg>