<svg width="30" height="30" fill="none" xmlns="http://www.w3.org/2000/svg"><path fill-rule="evenodd" clip-rule="evenodd" d="M24.375 26.25s1.875 0 1.875-1.875-1.875-7.5-11.25-7.5-11.25 5.625-11.25 7.5 1.875 1.875 1.875 1.875h18.75Zm-18.74-1.77v-.004.004Zm.031-.105h18.668a.574.574 0 0 0 .026-.004l.015-.003c-.002-.462-.289-1.85-1.56-3.12-1.223-1.223-3.523-2.498-7.815-2.498-4.294 0-6.592 1.275-7.815 2.497-1.271 1.272-1.556 2.66-1.56 3.12l.041.008Zm18.702.105v-.004.004ZM15 13.125a3.75 3.75 0 1 0 0-7.5 3.75 3.75 0 0 0 0 7.5Zm5.625-3.75a5.625 5.625 0 1 1-11.25 0 5.625 5.625 0 0 1 11.25 0Z" fill="#272727"/></svg>